# Blender 5.1.1
# www.blender.org
mtllib Boss.mtl
o 立方体
v -0.905562 -0.588843 0.741405
v -0.425304 1.302163 0.557445
v -0.933857 -0.605243 -0.829541
v -0.425304 0.927047 -0.557445
v 0.905562 -0.588843 0.741405
v 0.425304 1.302163 0.557445
v 0.933857 -0.605243 -0.829541
v 0.425304 0.927047 -0.557445
v -0.995894 -0.303003 -0.602828
v -0.518503 0.020847 0.000000
v -0.967599 -0.282396 0.514692
v -0.967599 -0.024917 0.822717
v -0.518503 0.461077 0.679601
v -0.487341 0.737537 0.638757
v -0.487341 0.995016 0.330732
v -0.518503 1.029158 0.000000
v -0.487341 0.995016 -0.330732
v -0.487341 0.737537 -0.638757
v -0.518503 0.461077 -0.679601
v -0.995894 -0.045524 -0.910853
v 0.760885 -0.303003 -0.910853
v 0.000000 0.008074 -0.679601
v -0.760885 -0.303003 -0.910853
v -0.252333 0.995016 -0.638757
v 0.000000 1.280030 -1.150355
v 0.252333 0.995016 -0.638757
v 0.487341 0.737537 -0.638757
v 0.518503 0.461077 -0.679601
v 0.995894 -0.045524 -0.910853
v 0.967599 -0.282396 0.514692
v 0.518503 0.020847 0.000000
v 0.995894 -0.303003 -0.602828
v 0.487341 0.995016 -0.330732
v 0.518503 1.029158 0.000000
v 0.487341 0.995016 0.330732
v 0.487341 0.737537 0.638757
v 0.518503 0.461077 0.679601
v 0.967599 -0.024917 0.822717
v -0.732590 -0.282396 0.822717
v 0.000000 -0.043072 0.679601
v 0.732590 -0.282396 0.822717
v 0.252333 0.995016 0.638757
v 0.000000 1.614619 0.679601
v -0.252333 0.995016 0.638757
v -1.100342 -0.043097 0.536440
v -0.665030 0.461077 0.371415
v -0.620085 0.755716 0.352480
v -0.665030 0.150610 -0.000000
v -0.714091 0.461077 0.000000
v -0.665030 0.771544 0.000000
v -1.128637 -0.063704 -0.624576
v -0.665030 0.461077 -0.371415
v -0.620085 0.755716 -0.352480
v -0.777478 -0.063704 -1.084839
v -0.283372 0.461077 -0.871653
v -0.268926 0.755716 -0.812744
v 0.000000 0.150610 -0.871653
v 0.000000 0.461077 -0.935957
v -0.000000 0.771544 -0.871653
v 0.777478 -0.063704 -1.084839
v 0.283372 0.461077 -0.871653
v 0.268926 0.755716 -0.812744
v 1.128637 -0.063704 -0.624576
v 0.665030 0.461077 -0.371415
v 0.620085 0.755716 -0.352480
v 0.665030 0.150610 0.000000
v 0.714091 0.461077 0.000000
v 0.665030 0.771544 -0.000000
v 1.100342 -0.043097 0.536440
v 0.665030 0.461077 0.371415
v 0.620085 0.755716 0.352480
v 0.749183 -0.043097 0.996703
v 0.283372 0.461077 0.871653
v 0.268926 0.755716 0.812744
v -0.000000 0.150610 0.871653
v -0.000000 0.461077 0.935957
v 0.000000 0.771544 0.871653
v -0.749183 -0.043097 0.996703
v -0.283372 0.461077 0.871653
v -0.268926 0.755716 0.812744
v -0.268926 0.059242 -0.352480
v 0.000000 0.009999 -0.371415
v 0.268926 0.059242 -0.352480
v -0.283372 0.009999 -0.000000
v 0.000000 -0.043753 0.000000
v 0.283372 0.009999 -0.000000
v -0.268926 0.059242 0.352480
v 0.000000 0.009999 0.371415
v 0.268926 0.059242 0.352480
v 0.268926 1.140452 -0.352480
v 0.000000 1.189694 -0.371415
v -0.268926 1.140452 -0.352480
v 0.283372 1.189694 0.000000
v -0.000000 1.243446 0.000000
v -0.283372 1.189694 -0.000000
v 0.268926 1.140452 0.352480
v -0.000000 1.189694 0.371415
v -0.268926 1.140452 0.352480
v -0.480227 0.611198 0.781835
v -0.480227 0.778390 0.781835
v -0.489413 0.611198 0.812148
v -0.489413 0.778390 0.812148
v 0.480227 0.611198 0.781835
v 0.480227 0.778390 0.781835
v 0.489413 0.611198 0.812148
v 0.489413 0.778390 0.812148
v 0.384298 0.611198 0.844001
v 0.279182 0.611198 0.875854
v 0.174067 0.611198 0.907707
v 0.068951 0.611198 0.939560
v -0.068951 0.611198 0.939560
v -0.174067 0.611198 0.907707
v -0.279182 0.611198 0.875854
v -0.384298 0.611198 0.844001
v -0.384298 0.778390 0.844001
v -0.279182 0.778390 0.875854
v -0.174067 0.778390 0.907707
v -0.068951 0.778390 0.939560
v 0.068951 0.778390 0.939560
v 0.174067 0.778390 0.907707
v 0.279182 0.778390 0.875854
v 0.384298 0.778390 0.844001
v -0.375112 0.611198 0.813688
v -0.269996 0.611198 0.845541
v -0.164881 0.611198 0.877394
v -0.059765 0.611198 0.909247
v 0.059765 0.611198 0.909247
v 0.164881 0.611198 0.877394
v 0.269996 0.611198 0.845541
v 0.375112 0.611198 0.813688
v 0.375112 0.778390 0.813688
v 0.269996 0.778390 0.845541
v 0.164881 0.778390 0.877394
v 0.059765 0.778390 0.909247
v -0.059765 0.778390 0.909247
v -0.164881 0.778390 0.877394
v -0.269996 0.778390 0.845541
v -0.375112 0.778390 0.813688
v -0.476911 0.312078 0.779294
v -0.476911 0.618792 0.779294
v -0.486444 0.312078 0.809500
v -0.486444 0.618792 0.809500
v -0.365385 0.312078 0.814493
v -0.365385 0.618792 0.814493
v -0.374918 0.312078 0.844699
v -0.374918 0.618792 0.844699
v 0.363275 0.312078 0.809387
v 0.363275 0.618792 0.809387
v 0.372808 0.312078 0.839593
v 0.372808 0.618792 0.839593
v 0.474801 0.312078 0.774189
v 0.474801 0.618792 0.774189
v 0.484334 0.312078 0.804394
v 0.484334 0.618792 0.804394
v -0.979145 -0.454705 0.743502
v -0.898440 0.258376 0.414236
v -1.008995 -0.449405 0.759953
v -0.921937 0.271442 0.427712
v -0.917333 -0.450928 0.760501
v -0.604701 0.250237 0.884717
v -0.947183 -0.445627 0.776952
v -0.628198 0.263303 0.898193
v -1.121027 -0.053221 0.545993
v -1.142350 -0.036227 0.555626
v -0.855830 -0.022174 1.026847
v -0.834507 -0.039168 1.017214
v -0.750767 -0.265260 1.044672
v -0.487834 0.382172 0.944855
v -0.750767 -0.265260 1.076346
v -0.487834 0.382172 0.976529
v 0.750767 -0.265260 1.044672
v 0.487834 0.382172 0.944855
v 0.750767 -0.265260 1.076346
v 0.487834 0.382172 0.976529
v 0.000000 -0.092406 1.000294
v 0.000000 0.321308 1.000294
v 0.000000 -0.092406 0.968620
v 0.000000 0.321308 0.968620
v 0.936246 -0.454705 0.816688
v 0.609521 0.258376 0.907133
v 0.965183 -0.449405 0.834697
v 0.632758 0.271442 0.921051
v 0.920879 -0.450928 0.754450
v 0.876526 0.250237 0.420982
v 0.949817 -0.445627 0.772459
v 0.899764 0.263303 0.434900
v 0.833228 -0.053221 1.036978
v 0.852051 -0.036227 1.050878
v 1.123229 -0.022174 0.570664
v 1.104406 -0.039168 0.556765
v -0.847688 0.175459 0.670999
v -0.837151 0.176022 0.688672
v -0.829065 0.173573 0.707442
v -0.823741 0.168207 0.726587
v -0.821384 0.160129 0.745372
v -0.822085 0.149651 0.763075
v -0.825815 0.137174 0.779016
v -0.832432 0.123178 0.792581
v -0.841682 0.108202 0.803250
v -0.853210 0.092820 0.810612
v -0.866571 0.077624 0.814386
v -0.881253 0.063197 0.814425
v -0.896692 0.050095 0.810728
v -0.912293 0.038821 0.803437
v -0.927459 0.029807 0.792833
v -0.941605 0.023401 0.779322
v -0.954188 0.019848 0.763425
v -0.964725 0.019285 0.745752
v -0.972811 0.021734 0.726982
v -0.978135 0.027100 0.707837
v -0.980492 0.035178 0.689052
v -0.979791 0.045656 0.671349
v -0.976061 0.058133 0.655408
v -0.969444 0.072129 0.641843
v -0.960193 0.087105 0.631174
v -0.948666 0.102487 0.623811
v -0.935305 0.117683 0.620038
v -0.920623 0.132110 0.619999
v -0.905184 0.145212 0.623696
v -0.889583 0.156486 0.630987
v -0.874417 0.165500 0.641591
v -0.860271 0.171906 0.655102
v -1.037733 0.237081 0.794330
v -0.398471 0.287676 0.980323
v -0.382049 0.287413 0.979133
v -0.365982 0.283948 0.978143
v -0.350885 0.277414 0.977392
v -0.337341 0.268062 0.976908
v -0.325868 0.256251 0.976710
v -0.316908 0.242435 0.976806
v -0.310806 0.227146 0.977192
v -0.307795 0.210970 0.977853
v -0.307992 0.194529 0.978763
v -0.311389 0.178456 0.979888
v -0.317856 0.163367 0.981185
v -0.327143 0.149843 0.982603
v -0.338894 0.138404 0.984089
v -0.352657 0.129488 0.985584
v -0.367905 0.123440 0.987033
v -0.384049 0.120490 0.988378
v -0.400471 0.120752 0.989568
v -0.416539 0.124217 0.990558
v -0.431635 0.130752 0.991309
v -0.445180 0.140104 0.991793
v -0.456652 0.151915 0.991990
v -0.465612 0.165730 0.991895
v -0.471714 0.181020 0.991509
v -0.474725 0.197196 0.990848
v -0.474528 0.213636 0.989938
v -0.471131 0.229710 0.988812
v -0.464665 0.244798 0.987516
v -0.455377 0.258322 0.986097
v -0.443626 0.269762 0.984612
v -0.429863 0.278677 0.983116
v -0.414616 0.284726 0.981668
v -0.378988 0.213201 1.151653
v -0.195075 0.115230 1.008386
v -0.178653 0.114967 1.007196
v -0.162585 0.111502 1.006206
v -0.147489 0.104968 1.005455
v -0.133944 0.095616 1.004971
v -0.122472 0.083805 1.004773
v -0.113512 0.069989 1.004869
v -0.107410 0.054700 1.005255
v -0.104399 0.038524 1.005915
v -0.104596 0.022083 1.006826
v -0.107993 0.006010 1.007951
v -0.114459 -0.009079 1.009248
v -0.123746 -0.022602 1.010666
v -0.135498 -0.034042 1.012152
v -0.149261 -0.042957 1.013647
v -0.164508 -0.049006 1.015095
v -0.180653 -0.051956 1.016440
v -0.197074 -0.051693 1.017631
v -0.213142 -0.048228 1.018620
v -0.228239 -0.041694 1.019372
v -0.241783 -0.032342 1.019855
v -0.253256 -0.020531 1.020053
v -0.262216 -0.006715 1.019957
v -0.268318 0.008574 1.019572
v -0.271328 0.024750 1.018911
v -0.271131 0.041191 1.018000
v -0.267735 0.057264 1.016875
v -0.261268 0.072352 1.015578
v -0.251981 0.085876 1.014160
v -0.240230 0.097316 1.012674
v -0.226466 0.106231 1.011179
v -0.211219 0.112280 1.009731
v -0.175592 0.040756 1.179716
v -0.510664 0.030698 1.004932
v -0.494242 0.030435 1.003741
v -0.478174 0.026970 1.002752
v -0.463078 0.020436 1.002000
v -0.449533 0.011084 1.001517
v -0.438061 -0.000727 1.001319
v -0.429101 -0.014543 1.001415
v -0.422999 -0.029833 1.001800
v -0.419988 -0.046009 1.002461
v -0.420185 -0.062449 1.003372
v -0.423582 -0.078522 1.004497
v -0.430048 -0.093611 1.005794
v -0.439335 -0.107135 1.007212
v -0.451086 -0.118574 1.008698
v -0.464850 -0.127490 1.010193
v -0.480097 -0.133539 1.011641
v -0.496242 -0.136488 1.012986
v -0.512663 -0.136226 1.014176
v -0.528731 -0.132761 1.015166
v -0.543827 -0.126227 1.015917
v -0.557372 -0.116874 1.016401
v -0.568845 -0.105063 1.016599
v -0.577804 -0.091248 1.016503
v -0.583907 -0.075958 1.016117
v -0.586917 -0.059782 1.015457
v -0.586720 -0.043342 1.014546
v -0.583323 -0.027268 1.013421
v -0.576857 -0.012180 1.012124
v -0.567570 0.001344 1.010706
v -0.555819 0.012783 1.009220
v -0.542055 0.021699 1.007725
v -0.526808 0.027748 1.006277
v -0.491181 -0.043777 1.176262
v 0.498676 0.035837 1.048586
v 0.515074 0.035389 1.050020
v 0.531071 0.031738 1.051403
v 0.546053 0.025024 1.052684
v 0.559443 0.015507 1.053812
v 0.570727 0.003550 1.054744
v 0.579472 -0.010385 1.055446
v 0.585341 -0.025765 1.055889
v 0.588108 -0.041996 1.056056
v 0.587668 -0.058457 1.055942
v 0.584038 -0.074514 1.055550
v 0.577356 -0.089550 1.054896
v 0.567879 -0.102987 1.054005
v 0.555973 -0.114310 1.052910
v 0.542094 -0.123082 1.051655
v 0.526775 -0.128967 1.050287
v 0.510606 -0.131739 1.048859
v 0.494208 -0.131290 1.047426
v 0.478211 -0.127639 1.046042
v 0.463229 -0.120926 1.044762
v 0.449839 -0.111408 1.043634
v 0.438555 -0.099452 1.042701
v 0.429810 -0.085516 1.042000
v 0.423942 -0.070137 1.041557
v 0.421174 -0.053905 1.041390
v 0.421614 -0.037445 1.041504
v 0.425245 -0.021388 1.041896
v 0.431927 -0.006352 1.042550
v 0.441403 0.007086 1.043441
v 0.453309 0.018408 1.044535
v 0.467188 0.027180 1.045791
v 0.482507 0.033065 1.047158
v 0.489992 -0.048721 1.216081
v 0.186353 0.112129 1.001669
v 0.202718 0.111339 1.003327
v 0.218585 0.107369 1.005228
v 0.233346 0.100371 1.007298
v 0.246434 0.090613 1.009459
v 0.257345 0.078472 1.011627
v 0.265661 0.064414 1.013719
v 0.271061 0.048979 1.015654
v 0.273338 0.032759 1.017359
v 0.272404 0.016379 1.018767
v 0.268296 0.000468 1.019824
v 0.261172 -0.014363 1.020490
v 0.251304 -0.027543 1.020740
v 0.239073 -0.038567 1.020563
v 0.224948 -0.047011 1.019966
v 0.209472 -0.052549 1.018973
v 0.193241 -0.054970 1.017622
v 0.176876 -0.054180 1.015963
v 0.161009 -0.050209 1.014063
v 0.146248 -0.043211 1.011992
v 0.133160 -0.033454 1.009831
v 0.122249 -0.021313 1.007663
v 0.113933 -0.007255 1.005571
v 0.108533 0.008181 1.003636
v 0.106256 0.024400 1.001931
v 0.107190 0.040780 1.000523
v 0.111298 0.056691 0.999466
v 0.118422 0.071522 0.998800
v 0.128290 0.084703 0.998550
v 0.140521 0.095726 0.998727
v 0.154646 0.104170 0.999324
v 0.170122 0.109708 1.000317
v 0.173658 0.043813 1.176173
v 0.372009 0.274655 0.990027
v 0.388448 0.274457 0.989077
v 0.404568 0.271111 0.988762
v 0.419751 0.264745 0.989096
v 0.433412 0.255603 0.990065
v 0.445028 0.244037 0.991632
v 0.454152 0.230491 0.993737
v 0.460432 0.215486 0.996298
v 0.463628 0.199598 0.999219
v 0.463618 0.183439 1.002385
v 0.460400 0.167628 1.005676
v 0.454099 0.152774 1.008965
v 0.444957 0.139448 1.012126
v 0.433326 0.128161 1.015037
v 0.419652 0.119347 1.017587
v 0.404461 0.113346 1.019677
v 0.388336 0.110387 1.021227
v 0.371898 0.110584 1.022177
v 0.355778 0.113930 1.022491
v 0.340595 0.120297 1.022158
v 0.326933 0.129439 1.021189
v 0.315317 0.141005 1.019622
v 0.306194 0.154551 1.017517
v 0.299913 0.169556 1.014955
v 0.296717 0.185443 1.012035
v 0.296728 0.201603 1.008868
v 0.299946 0.217413 1.005577
v 0.306247 0.232267 1.002288
v 0.315388 0.245594 0.999127
v 0.327020 0.256881 0.996216
v 0.340694 0.265694 0.993667
v 0.355885 0.271696 0.991577
v 0.390076 0.224764 1.170206
v 0.847687 0.175459 0.670999
v 0.860271 0.171906 0.655102
v 0.874417 0.165500 0.641591
v 0.889582 0.156486 0.630987
v 0.905184 0.145212 0.623696
v 0.920622 0.132110 0.619999
v 0.935304 0.117683 0.620038
v 0.948666 0.102487 0.623811
v 0.960193 0.087105 0.631174
v 0.969443 0.072129 0.641843
v 0.976060 0.058133 0.655408
v 0.979791 0.045656 0.671349
v 0.980491 0.035178 0.689052
v 0.978134 0.027100 0.707837
v 0.972810 0.021734 0.726982
v 0.964725 0.019285 0.745752
v 0.954188 0.019848 0.763425
v 0.941604 0.023401 0.779322
v 0.927458 0.029807 0.792833
v 0.912293 0.038821 0.803437
v 0.896691 0.050095 0.810728
v 0.881253 0.063197 0.814425
v 0.866571 0.077624 0.814386
v 0.853209 0.092820 0.810612
v 0.841682 0.108202 0.803250
v 0.832432 0.123178 0.792581
v 0.825815 0.137174 0.779016
v 0.822084 0.149651 0.763075
v 0.821384 0.160129 0.745372
v 0.823741 0.168207 0.726587
v 0.829064 0.173573 0.707442
v 0.837150 0.176022 0.688672
v 1.037732 0.237081 0.794330
vn -0.7494 0.5080 -0.4247
vn -0.9790 0.1576 0.1293
vn -0.7731 0.4867 0.4068
vn -0.9790 0.1576 -0.1293
vn -0.9870 -0.1235 0.1032
vn -0.6821 0.6783 0.2732
vn -0.8910 0.1630 0.4236
vn -0.7876 0.4728 0.3952
vn -0.8617 0.4900 0.1319
vn -0.8617 0.4900 -0.1319
vn -0.8056 0.4359 -0.4012
vn -0.8910 0.1630 -0.4236
vn -0.6439 0.7222 -0.2527
vn -0.9868 -0.1245 -0.1041
vn -0.4862 -0.5490 0.6799
vn -0.4642 -0.5242 -0.7139
vn 0.2100 0.1917 -0.9587
vn -0.2168 0.2016 -0.9552
vn -0.2100 0.1917 -0.9587
vn 0.2168 0.2016 -0.9552
vn -0.1759 -0.1606 -0.9712
vn -0.4244 0.6753 -0.6033
vn -0.6219 0.1827 -0.7614
vn -0.5723 0.4744 -0.6689
vn -0.2063 0.5847 -0.7846
vn 0.2063 0.5847 -0.7846
vn 0.5723 0.4744 -0.6689
vn 0.6219 0.1827 -0.7614
vn 0.4244 0.6753 -0.6033
vn 0.1759 -0.1606 -0.9712
vn -0.4342 -0.5099 -0.7427
vn 0.4342 -0.5099 -0.7427
vn 0.7731 0.4867 0.4068
vn 0.9790 0.1576 -0.1293
vn 0.7494 0.5080 -0.4247
vn 0.9790 0.1576 0.1293
vn 0.9867 -0.1245 -0.1041
vn 0.6439 0.7222 -0.2527
vn 0.8910 0.1630 -0.4236
vn 0.8056 0.4359 -0.4012
vn 0.8617 0.4900 -0.1319
vn 0.8617 0.4900 0.1319
vn 0.7876 0.4728 0.3952
vn 0.8910 0.1630 0.4236
vn 0.6821 0.6783 0.2732
vn 0.9870 -0.1235 0.1032
vn 0.4642 -0.5242 -0.7139
vn 0.4862 -0.5490 0.6799
vn -0.1328 0.1212 0.9837
vn 0.2168 0.2016 0.9552
vn 0.1328 0.1212 0.9837
vn -0.2168 0.2016 0.9552
vn 0.1745 -0.1593 0.9717
vn 0.4599 0.6139 0.6415
vn 0.6219 0.1827 0.7614
vn 0.5609 0.5119 0.6506
vn 0.2063 0.5847 0.7846
vn -0.2063 0.5847 0.7846
vn -0.5609 0.5119 0.6506
vn -0.6219 0.1827 0.7614
vn -0.4599 0.6139 0.6415
vn -0.1745 -0.1593 0.9717
vn 0.3279 -0.5406 0.7748
vn -0.3279 -0.5406 0.7748
vn -0.1844 -0.9723 -0.1434
vn 0.1879 -0.9721 -0.1407
vn -0.1844 -0.9723 0.1434
vn 0.1879 -0.9721 0.1407
vn 0.7632 -0.2801 0.5823
vn 0.2597 -0.8984 0.3540
vn 0.1797 -0.9837 0.0061
vn -0.3535 -0.8957 0.2697
vn 0.0456 -0.9891 -0.1400
vn 0.0456 -0.9891 0.1400
vn -0.3682 -0.8863 -0.2809
vn 0.1662 -0.9718 -0.1673
vn 0.2004 -0.8760 -0.4388
vn 0.7640 -0.2766 -0.5829
vn 0.3972 -0.8993 -0.1833
vn 0.3894 -0.9039 0.1772
vn 0.1844 0.9723 -0.1434
vn -0.1879 0.9721 -0.1407
vn 0.1844 0.9723 0.1434
vn -0.1879 0.9721 0.1407
vn 0.5396 0.7544 -0.3738
vn 0.1913 0.8706 -0.4534
vn -0.6642 0.7426 0.0861
vn -0.4953 0.7626 -0.4161
vn -0.5584 0.8181 -0.1372
vn -0.5584 0.8181 0.1372
vn 0.8248 0.5220 0.2174
vn -0.7950 0.3561 -0.4910
vn 0.1913 0.8706 0.4534
vn 0.3291 0.6029 -0.7268
vn 0.5585 0.8181 0.1371
vn 0.5585 0.8181 -0.1371
vn -0.9570 -0.0000 -0.2900
vn 0.2900 -0.0000 0.9570
vn 0.9570 -0.0000 -0.2900
vn 0.2900 -0.0000 -0.9570
vn -0.0000 -1.0000 -0.0000
vn -0.0000 1.0000 -0.0000
vn -0.2900 -0.0000 -0.9570
vn -0.0000 -0.0000 -1.0000
vn -0.2900 -0.0000 0.9570
vn -0.0000 -0.0000 1.0000
vn -0.9536 -0.0000 -0.3010
vn -0.3010 -0.0000 0.9536
vn 0.9536 -0.0000 0.3010
vn 0.3010 -0.0000 -0.9536
vn -0.9536 -0.0000 0.3010
vn 0.3010 -0.0000 0.9536
vn 0.9536 -0.0000 -0.3010
vn -0.3010 -0.0000 -0.9536
vn -0.5009 -0.0081 -0.8655
vn -0.6663 0.6379 0.3861
vn 0.4437 0.0495 0.8948
vn 0.6203 -0.6753 -0.3990
vn -0.0176 -0.9606 0.2775
vn 0.3754 0.9007 -0.2188
vn 0.8424 0.1527 -0.5168
vn -0.0136 -0.5060 0.8624
vn -0.2679 0.3562 0.8952
vn -0.4816 -0.5180 -0.7070
vn -0.9265 0.3763 -0.0000
vn 0.0487 -0.0000 0.9988
vn 0.9265 0.3763 -0.0000
vn 0.0487 -0.0000 -0.9988
vn -0.2244 -0.9745 -0.0000
vn 0.1238 0.9923 -0.0000
vn -0.1238 0.9923 -0.0000
vn 0.2244 -0.9745 -0.0000
vn 0.0718 -0.1234 -0.9898
vn 0.0718 0.1234 0.9898
vn -0.5104 -0.0081 0.8599
vn 0.6624 0.6379 0.3928
vn 0.5640 0.0495 -0.8243
vn -0.6512 -0.6753 -0.3463
vn 0.2508 -0.9606 -0.1202
vn -0.3743 0.9007 -0.2206
vn -0.8624 0.1527 -0.4826
vn 0.7592 -0.5060 -0.4094
vn 0.9120 0.3562 -0.2035
vn -0.3816 -0.5180 0.7656
vn 0.2112 0.9648 -0.1566
vn 0.2910 0.9567 -0.0005
vn 0.3484 0.9233 0.1619
vn 0.3813 0.8657 0.3244
vn 0.3884 0.7862 0.4807
vn 0.3694 0.6878 0.6248
vn 0.3251 0.5744 0.7512
vn 0.2571 0.4503 0.8550
vn 0.1681 0.3203 0.9323
vn 0.0615 0.1893 0.9800
vn -0.0586 0.0624 0.9963
vn -0.1877 -0.0556 0.9807
vn -0.3206 -0.1600 0.9336
vn -0.4525 -0.2469 0.8569
vn -0.5780 -0.3130 0.7536
vn -0.6925 -0.3556 0.6276
vn -0.7916 -0.3733 0.4838
vn -0.8713 -0.3652 0.3277
vn -0.9288 -0.3317 0.1653
vn -0.9617 -0.2741 0.0028
vn -0.9688 -0.1946 -0.1535
vn -0.9498 -0.0963 -0.2976
vn -0.9055 0.0171 -0.4240
vn -0.8375 0.1412 -0.5279
vn -0.7485 0.2713 -0.6051
vn -0.6419 0.4023 -0.6528
vn -0.5217 0.5292 -0.6691
vn -0.3927 0.6471 -0.6535
vn -0.2597 0.7515 -0.6064
vn -0.1279 0.8385 -0.5297
vn 0.6514 -0.6639 -0.3672
vn -0.0024 0.9045 -0.4264
vn 0.1121 0.9472 -0.3005
vn 0.0432 0.9180 0.3941
vn 0.2172 0.8981 0.3825
vn 0.3841 0.8445 0.3731
vn 0.5375 0.7595 0.3665
vn 0.6714 0.6461 0.3629
vn 0.7809 0.5089 0.3623
vn 0.8615 0.3531 0.3649
vn 0.9103 0.1846 0.3705
vn 0.9254 0.0099 0.3789
vn 0.9061 -0.1642 0.3898
vn 0.8533 -0.3311 0.4028
vn 0.7690 -0.4843 0.4173
vn 0.6563 -0.6180 0.4329
vn 0.5197 -0.7270 0.4488
vn 0.3643 -0.8071 0.4646
vn 0.1962 -0.8553 0.4796
vn 0.0218 -0.8697 0.4931
vn -0.1521 -0.8497 0.5048
vn -0.3190 -0.7962 0.5141
vn -0.4724 -0.7111 0.5208
vn -0.6064 -0.5978 0.5244
vn -0.7158 -0.4605 0.5249
vn -0.7964 -0.3047 0.5224
vn -0.8452 -0.1362 0.5168
vn -0.8603 0.0385 0.5084
vn -0.8410 0.2126 0.4975
vn -0.7882 0.3794 0.4845
vn -0.7039 0.5327 0.4699
vn -0.5912 0.6663 0.4544
vn -0.4546 0.7753 0.4384
vn -0.0730 -0.0543 -0.9959
vn -0.2992 0.8555 0.4227
vn -0.1311 0.9036 0.4077
vn -0.7158 -0.4605 0.5250
vn -0.8603 0.0384 0.5084
vn 0.0433 0.9180 0.3941
vn 0.8615 0.3530 0.3649
vn -0.0731 -0.0543 -0.9959
vn -0.0149 0.8929 0.4500
vn 0.1586 0.8710 0.4651
vn 0.3244 0.8155 0.4793
vn 0.4764 0.7285 0.4922
vn 0.6085 0.6135 0.5033
vn 0.7157 0.4749 0.5120
vn 0.7940 0.3179 0.5182
vn 0.8402 0.1486 0.5214
vn 0.8527 -0.0264 0.5217
vn 0.8309 -0.2005 0.5190
vn 0.7757 -0.3670 0.5134
vn 0.6892 -0.5195 0.5051
vn 0.5747 -0.6521 0.4945
vn 0.4366 -0.7597 0.4819
vn 0.2802 -0.8382 0.4679
vn 0.1116 -0.8845 0.4529
vn -0.0628 -0.8970 0.4376
vn -0.2362 -0.8750 0.4225
vn -0.4021 -0.8195 0.4082
vn -0.5541 -0.7326 0.3953
vn -0.6862 -0.6176 0.3843
vn -0.7934 -0.4790 0.3755
vn -0.8717 -0.3220 0.3694
vn -0.9179 -0.1527 0.3661
vn -0.9304 0.0223 0.3659
vn -0.9086 0.1965 0.3686
vn -0.8534 0.3630 0.3742
vn -0.7669 0.5154 0.3824
vn -0.6524 0.6480 0.3931
vn -0.5143 0.7556 0.4057
vn 0.0872 0.0046 -0.9962
vn -0.3579 0.8341 0.4197
vn -0.1893 0.8805 0.4347
vn 0.0080 0.9310 0.3650
vn 0.1805 0.9055 0.3841
vn 0.3446 0.8467 0.4054
vn 0.4937 0.7570 0.4280
vn 0.6222 0.6397 0.4512
vn 0.7252 0.4995 0.4740
vn 0.7986 0.3415 0.4956
vn 0.8397 0.1720 0.5151
vn 0.8469 -0.0025 0.5317
vn 0.8199 -0.1755 0.5449
vn 0.7598 -0.3401 0.5542
vn 0.6688 -0.4901 0.5591
vn 0.5504 -0.6197 0.5595
vn 0.4093 -0.7239 0.5553
vn 0.2508 -0.7988 0.5468
vn 0.0810 -0.8414 0.5342
vn -0.0935 -0.8502 0.5181
vn -0.2661 -0.8247 0.4991
vn -0.4302 -0.7659 0.4778
vn -0.5793 -0.6762 0.4551
vn -0.7078 -0.5590 0.4320
vn -0.8107 -0.4187 0.4092
vn -0.8842 -0.2607 0.3876
vn -0.9253 -0.0912 0.3681
vn -0.9325 0.0833 0.3514
vn -0.9055 0.2563 0.3382
vn -0.8454 0.4209 0.3290
vn -0.7544 0.5709 0.3241
vn -0.6360 0.7005 0.3237
vn -0.4949 0.8047 0.3279
vn 0.0961 -0.0907 -0.9912
vn -0.3364 0.8796 0.3364
vn -0.1666 0.9222 0.3489
vn 0.0269 0.9641 0.2643
vn 0.2012 0.9451 0.2575
vn 0.3688 0.8931 0.2576
vn 0.5233 0.8100 0.2646
vn 0.6586 0.6992 0.2781
vn 0.7697 0.5647 0.2978
vn 0.8522 0.4118 0.3228
vn 0.9029 0.2464 0.3522
vn 0.9200 0.0748 0.3847
vn 0.9027 -0.0964 0.4193
vn 0.8517 -0.2606 0.4546
vn 0.7690 -0.4115 0.4891
vn 0.6578 -0.5433 0.5216
vn 0.5223 -0.6510 0.5509
vn 0.3677 -0.7303 0.5757
vn 0.2000 -0.7783 0.5952
vn 0.0257 -0.7931 0.6086
vn -0.1487 -0.7741 0.6153
vn -0.3163 -0.7221 0.6152
vn -0.4708 -0.6391 0.6083
vn -0.6061 -0.5282 0.5947
vn -0.7172 -0.3937 0.5750
vn -0.7997 -0.2408 0.5500
vn -0.8504 -0.0754 0.5207
vn -0.8675 0.0962 0.4881
vn -0.8502 0.2674 0.4535
vn -0.7992 0.4316 0.4183
vn -0.7165 0.5825 0.3837
vn -0.6053 0.7143 0.3512
vn -0.4698 0.8220 0.3220
vn -0.0589 -0.1919 -0.9796
vn -0.3152 0.9013 0.2971
vn -0.1475 0.9493 0.2776
vn -0.1121 0.9472 -0.3005
vn 0.0024 0.9045 -0.4264
vn 0.1279 0.8385 -0.5297
vn 0.2597 0.7515 -0.6064
vn 0.3927 0.6471 -0.6535
vn 0.5217 0.5292 -0.6691
vn 0.6419 0.4023 -0.6528
vn 0.7485 0.2713 -0.6051
vn 0.8375 0.1412 -0.5279
vn 0.9055 0.0171 -0.4240
vn 0.9498 -0.0963 -0.2976
vn 0.9688 -0.1946 -0.1535
vn 0.9617 -0.2741 0.0028
vn 0.9288 -0.3317 0.1653
vn 0.8713 -0.3652 0.3277
vn 0.7916 -0.3733 0.4838
vn 0.6925 -0.3556 0.6276
vn 0.5780 -0.3130 0.7536
vn 0.4525 -0.2469 0.8569
vn 0.3206 -0.1600 0.9336
vn 0.1877 -0.0556 0.9807
vn 0.0586 0.0624 0.9963
vn -0.0615 0.1893 0.9800
vn -0.1681 0.3203 0.9323
vn -0.2571 0.4503 0.8550
vn -0.3251 0.5744 0.7512
vn -0.3694 0.6878 0.6248
vn -0.3884 0.7862 0.4807
vn -0.3813 0.8657 0.3244
vn -0.3484 0.9233 0.1619
vn -0.6514 -0.6639 -0.3672
vn -0.2910 0.9567 -0.0005
vn -0.2112 0.9648 -0.1566
vn -0.9794 -0.1548 0.1294
vn -0.9791 0.1547 0.1318
vn -0.9794 -0.1548 -0.1294
vn -0.9791 0.1547 -0.1318
vn -0.7876 -0.4728 0.3952
vn -0.6512 0.6929 0.3096
vn -0.8911 0.1631 0.4235
vn -0.9870 0.1233 0.1031
vn -0.8617 0.4901 0.1318
vn -0.8617 0.4901 -0.1318
vn -0.8008 0.4771 -0.3622
vn -0.8911 0.1631 -0.4235
vn -0.6370 0.7089 -0.3029
vn -0.7876 -0.4728 -0.3952
vn -0.6999 -0.3307 0.6330
vn -0.6778 -0.3156 -0.6640
vn -0.2169 -0.1980 -0.9559
vn -0.2208 0.1978 -0.9550
vn 0.2169 -0.1980 -0.9559
vn 0.2208 0.1978 -0.9550
vn -0.5609 -0.5119 -0.6506
vn -0.4678 0.6731 -0.5727
vn -0.6218 0.1826 -0.7616
vn -0.5222 0.5249 -0.6721
vn -0.7772 -0.3025 -0.5518
vn 0.7772 -0.3025 -0.5518
vn 0.5222 0.5249 -0.6721
vn 0.6218 0.1826 -0.7616
vn 0.4678 0.6731 -0.5727
vn 0.5609 -0.5119 -0.6506
vn -0.3591 -0.7494 -0.5562
vn 0.3591 -0.7494 -0.5562
vn 0.9794 -0.1548 -0.1294
vn 0.9791 0.1547 -0.1318
vn 0.9794 -0.1548 0.1294
vn 0.9791 0.1547 0.1318
vn 0.7876 -0.4728 -0.3952
vn 0.6370 0.7089 -0.3029
vn 0.8911 0.1631 -0.4235
vn 0.8008 0.4771 -0.3622
vn 0.8617 0.4901 -0.1318
vn 0.8617 0.4901 0.1318
vn 0.9870 0.1233 0.1031
vn 0.8911 0.1631 0.4235
vn 0.6512 0.6929 0.3096
vn 0.7876 -0.4728 0.3952
vn 0.6778 -0.3156 -0.6640
vn 0.6999 -0.3307 0.6330
vn 0.2169 -0.1980 0.9559
vn 0.2208 0.1978 0.9550
vn -0.2169 -0.1980 0.9559
vn -0.2208 0.1978 0.9550
vn 0.5609 -0.5119 0.6506
vn 0.4996 0.6133 0.6117
vn 0.6218 0.1826 0.7616
vn 0.1743 0.1591 0.9718
vn 0.5752 0.1817 0.7976
vn -0.5752 0.1817 0.7976
vn -0.1743 0.1591 0.9718
vn -0.6218 0.1826 0.7616
vn -0.4996 0.6133 0.6117
vn -0.5609 -0.5119 0.6506
vn 0.2879 -0.6743 0.6800
vn -0.2879 -0.6743 0.6800
vn -0.1879 -0.9721 -0.1407
vn 0.1844 -0.9723 -0.1434
vn -0.1879 -0.9721 0.1407
vn 0.1844 -0.9723 0.1434
vn 0.3535 -0.8957 0.2697
vn -0.1797 -0.9837 0.0061
vn -0.2597 -0.8984 0.3540
vn -0.7632 -0.2801 0.5823
vn -0.3894 -0.9039 0.1772
vn -0.3972 -0.8993 -0.1833
vn -0.7640 -0.2766 -0.5829
vn -0.2004 -0.8760 -0.4388
vn -0.1662 -0.9718 -0.1673
vn 0.3682 -0.8863 -0.2809
vn -0.0456 -0.9891 0.1400
vn -0.0456 -0.9891 -0.1400
vn 0.1879 0.9721 -0.1407
vn -0.1844 0.9723 -0.1434
vn 0.1879 0.9721 0.1407
vn -0.1844 0.9723 0.1434
vn 0.4953 0.7626 -0.4161
vn 0.6642 0.7426 0.0861
vn -0.1913 0.8706 -0.4534
vn -0.5396 0.7544 -0.3738
vn -0.5585 0.8181 -0.1371
vn -0.5585 0.8181 0.1371
vn -0.3291 0.6029 -0.7268
vn -0.1913 0.8706 0.4534
vn 0.7950 0.3561 -0.4910
vn -0.8248 0.5220 0.2174
vn 0.5584 0.8181 0.1372
vn 0.5584 0.8181 -0.1372
vn -0.4455 -0.0524 -0.8937
vn -0.6207 0.6748 0.3992
vn 0.4981 0.0015 0.8671
vn 0.6658 -0.6387 -0.3858
vn 0.2683 -0.3472 -0.8986
vn 0.3277 -0.5464 0.7707
vn -0.8463 -0.1233 0.5183
vn -0.6531 -0.4944 -0.5735
vn -0.0718 0.1234 0.9898
vn -0.0718 -0.1234 -0.9898
vn -0.0487 -0.0000 -0.9988
vn -0.0487 -0.0000 0.9988
vn -0.5622 -0.0524 0.8254
vn 0.6515 0.6748 0.3465
vn 0.5132 0.0015 -0.8582
vn -0.6619 -0.6387 -0.3924
vn -0.9151 -0.3472 0.2049
vn 0.5124 -0.5464 -0.6625
vn 0.8657 -0.1233 0.4852
vn -0.1814 -0.4944 0.8501
vn 0.6514 -0.6640 -0.3672
vn 0.6514 -0.6639 -0.3673
vn -0.0730 -0.0544 -0.9958
vn -0.0730 -0.0543 -0.9958
vn -0.0731 -0.0543 -0.9958
vn -0.0731 -0.0542 -0.9959
vn -0.0730 -0.0542 -0.9959
vn -0.0731 -0.0544 -0.9958
vn 0.0872 0.0045 -0.9962
vn 0.0872 0.0047 -0.9962
vn 0.0871 0.0045 -0.9962
vn 0.0871 0.0046 -0.9962
vn 0.0961 -0.0906 -0.9912
vn -0.0589 -0.1920 -0.9796
vn -0.0590 -0.1919 -0.9796
vn -0.0589 -0.1918 -0.9797
vn -0.6514 -0.6640 -0.3672
vn -0.6514 -0.6639 -0.3673
vt 0.213069 0.809660
vt 0.301699 0.827670
vt 0.224034 0.896558
vt 0.194612 0.768723
vt 0.266672 0.779067
vt 0.313804 0.736091
vt 0.399963 0.768506
vt 0.276566 0.705648
vt 0.188771 0.908812
vt 0.239387 0.924656
vt 0.227020 0.974158
vt 0.155393 0.786983
vt 0.164993 0.823253
vt 0.174881 0.735799
vt 0.236478 0.739163
vt 0.248676 0.678228
vt 0.276395 0.659058
vt 0.304606 0.669681
vt 0.343540 0.688132
vt 0.418344 0.743347
vt 0.424445 0.791517
vt 0.479986 0.781769
vt 0.320195 0.852794
vt 0.364706 0.641744
vt 0.431273 0.604594
vt 0.427694 0.717002
vt 0.316587 0.629436
vt 0.375700 0.591934
vt 0.386813 0.541506
vt 0.480006 0.502083
vt 0.336958 0.533007
vt 0.461116 0.734450
vt 0.273987 0.631531
vt 0.318623 0.579666
vt 0.298429 0.514470
vt 0.311135 0.490348
vt 0.341445 0.490271
vt 0.386948 0.488214
vt 0.484573 0.473135
vt 0.518165 0.502860
vt 0.559112 0.471383
vt 0.469425 0.613879
vt 0.378418 0.425688
vt 0.412494 0.306522
vt 0.480969 0.440250
vt 0.325646 0.443782
vt 0.342521 0.354755
vt 0.287210 0.296644
vt 0.326579 0.202212
vt 0.246834 0.340793
vt 0.516536 0.432627
vt 0.287920 0.464889
vt 0.290404 0.392642
vt 0.204282 0.378254
vt 0.206308 0.300175
vt 0.235290 0.258662
vt 0.296181 0.186699
vt 0.347116 0.172987
vt 0.329665 0.118378
vt 0.447028 0.283363
vt 0.189906 0.230207
vt 0.164124 0.165145
vt 0.266883 0.176528
vt 0.167448 0.272828
vt 0.146844 0.212199
vt 0.105076 0.196651
vt 0.074106 0.113682
vt 0.091530 0.238930
vt 0.284431 0.143089
vt 0.150034 0.312825
vt 0.128155 0.256643
vt 0.071099 0.275643
vt 0.052850 0.229529
vt 0.060279 0.189688
vt 0.040298 0.103740
vt 0.081201 0.076699
vt 0.067386 0.027814
vt 0.177306 0.124871
vt 0.600700 0.244161
vt 0.535878 0.226091
vt 0.572743 0.202006
vt 0.537111 0.299240
vt 0.571700 0.271481
vt 0.545397 0.160052
vt 0.470344 0.195819
vt 0.508773 0.174961
vt 0.715260 0.263863
vt 0.714688 0.208941
vt 0.759641 0.239360
vt 0.602733 0.304231
vt 0.573721 0.422399
vt 0.494270 0.253131
vt 0.380315 0.125595
vt 0.490879 0.132708
vt 0.572792 0.060127
vt 0.623461 0.081584
vt 0.612628 0.027814
vt 0.600801 0.183480
vt 0.264640 0.496584
vt 0.191888 0.504802
vt 0.217939 0.463258
vt 0.223868 0.569152
vt 0.246686 0.534761
vt 0.158615 0.415534
vt 0.108452 0.537556
vt 0.120221 0.472880
vt 0.304826 0.516721
vt 0.260073 0.593858
vt 0.342646 0.590043
vt 0.239930 0.612103
vt 0.208728 0.602349
vt 0.174931 0.549110
vt 0.118233 0.582278
vt 0.067581 0.568686
vt 0.056724 0.526511
vt 0.022917 0.436078
vt 0.108094 0.390723
vt 0.139844 0.364834
vt 0.250787 0.426776
vt 0.715262 0.354158
vt 0.732690 0.374056
vt 0.712226 0.358034
vt 0.812681 0.229733
vt 0.822619 0.259198
vt 0.802155 0.243176
vt 0.815716 0.225856
vt 0.833144 0.245755
vt 0.911375 0.103680
vt 0.921313 0.133145
vt 0.900849 0.117123
vt 0.799237 0.219207
vt 0.957977 0.299487
vt 0.975374 0.295870
vt 0.975001 0.300780
vt 0.836179 0.241878
vt 0.846587 0.256280
vt 0.849623 0.252403
vt 0.860031 0.266806
vt 0.863066 0.262929
vt 0.873474 0.277331
vt 0.876509 0.273454
vt 0.886917 0.287857
vt 0.889953 0.283980
vt 0.906903 0.295609
vt 0.924300 0.291992
vt 0.923928 0.296902
vt 0.941325 0.293285
vt 0.940952 0.298194
vt 0.958349 0.294578
vt 0.729906 0.103680
vt 0.730569 0.121437
vt 0.725229 0.105220
vt 0.735246 0.119897
vt 0.735908 0.137654
vt 0.740585 0.136114
vt 0.741248 0.153871
vt 0.745924 0.152332
vt 0.746587 0.170089
vt 0.751264 0.168549
vt 0.758908 0.187631
vt 0.775386 0.194279
vt 0.772351 0.198156
vt 0.788830 0.204805
vt 0.785794 0.208682
vt 0.802273 0.215331
vt 0.826242 0.212413
vt 0.836767 0.198969
vt 0.846705 0.228435
vt 0.847292 0.185526
vt 0.857230 0.214991
vt 0.857818 0.172083
vt 0.867756 0.201548
vt 0.869273 0.157453
vt 0.878281 0.188105
vt 0.879798 0.144010
vt 0.889736 0.173475
vt 0.890324 0.130566
vt 0.900262 0.160032
vt 0.910787 0.146588
vt 0.725787 0.340714
vt 0.735725 0.370180
vt 0.736313 0.327271
vt 0.746250 0.356736
vt 0.746838 0.313828
vt 0.756776 0.343293
vt 0.757363 0.300385
vt 0.767301 0.329850
vt 0.770579 0.283506
vt 0.777827 0.316406
vt 0.801568 0.286085
vt 0.791042 0.299528
vt 0.791630 0.256619
vt 0.781104 0.270063
vt 0.812093 0.272641
vt 0.644866 0.104662
vt 0.639942 0.152340
vt 0.639942 0.104662
vt 0.663045 0.104662
vt 0.644866 0.152340
vt 0.667969 0.104662
vt 0.663045 0.152340
vt 0.686148 0.104662
vt 0.667969 0.152340
vt 0.667969 0.086483
vt 0.663045 0.086483
vt 0.667969 0.170519
vt 0.663045 0.170519
vt 0.613799 0.368724
vt 0.608876 0.416402
vt 0.608876 0.368724
vt 0.631979 0.368724
vt 0.613799 0.416402
vt 0.636903 0.368724
vt 0.631979 0.416402
vt 0.655082 0.368724
vt 0.636903 0.416402
vt 0.631979 0.350545
vt 0.631979 0.434581
vt 0.616403 0.756141
vt 0.639765 0.816105
vt 0.635606 0.818607
vt 0.675383 0.730345
vt 0.620856 0.756422
vt 0.677318 0.726601
vt 0.720872 0.763128
vt 0.771277 0.676906
vt 0.724397 0.760443
vt 0.611168 0.668917
vt 0.618410 0.671715
vt 0.608011 0.673640
vt 0.771277 0.827398
vt 0.767751 0.830083
vt 0.621566 0.666992
vt 0.709265 0.644949
vt 0.606573 0.677873
vt 0.600709 0.677899
vt 0.862069 0.447843
vt 0.753476 0.436939
vt 0.753490 0.432015
vt 0.778856 0.539712
vt 0.676854 0.568034
vt 0.723333 0.507261
vt 0.739647 0.657300
vt 0.743930 0.654872
vt 0.619399 0.662000
vt 0.526371 0.611479
vt 0.602027 0.600080
vt 0.792715 0.764879
vt 0.638091 0.502163
vt 0.601467 0.435079
vt 0.642374 0.499735
vt 0.857786 0.865653
vt 0.862069 0.863224
vt 0.672571 0.570462
vt 0.862055 0.452766
vt 0.465615 0.899259
vt 0.488977 0.959223
vt 0.484819 0.961724
vt 0.524595 0.873462
vt 0.470068 0.899539
vt 0.526530 0.869718
vt 0.570084 0.906246
vt 0.620489 0.820024
vt 0.573609 0.903561
vt 0.460380 0.812034
vt 0.467622 0.814833
vt 0.457223 0.816757
vt 0.620489 0.970515
vt 0.616963 0.973200
vt 0.470779 0.810110
vt 0.558477 0.788067
vt 0.455785 0.820990
vt 0.449921 0.821016
vt 0.165573 0.069905
vt 0.163176 0.045569
vt 0.170275 0.068970
vt 0.174704 0.067136
vt 0.178690 0.064472
vt 0.182080 0.061082
vt 0.184743 0.057097
vt 0.186578 0.052668
vt 0.187513 0.047966
vt 0.187513 0.043172
vt 0.186578 0.038470
vt 0.184743 0.034041
vt 0.182080 0.030055
vt 0.178690 0.026666
vt 0.174704 0.024002
vt 0.170275 0.022168
vt 0.165573 0.021232
vt 0.160780 0.021232
vt 0.156078 0.022168
vt 0.151649 0.024002
vt 0.147663 0.026666
vt 0.144273 0.030055
vt 0.141610 0.034041
vt 0.139775 0.038470
vt 0.138840 0.043172
vt 0.138840 0.047966
vt 0.139775 0.052668
vt 0.141610 0.057097
vt 0.144273 0.061082
vt 0.147663 0.064472
vt 0.151649 0.067136
vt 0.156078 0.068970
vt 0.187905 0.644977
vt 0.210876 0.647240
vt 0.208614 0.670211
vt 0.160780 0.069905
vt 0.055963 0.617525
vt 0.038709 0.626747
vt 0.053832 0.614336
vt 0.051120 0.611624
vt 0.047931 0.609494
vt 0.044388 0.608026
vt 0.040627 0.607278
vt 0.036792 0.607278
vt 0.033030 0.608026
vt 0.029487 0.609494
vt 0.026299 0.611624
vt 0.023587 0.614336
vt 0.021456 0.617525
vt 0.019988 0.621068
vt 0.019240 0.624829
vt 0.019240 0.628664
vt 0.019988 0.632426
vt 0.021456 0.635969
vt 0.023587 0.639158
vt 0.026299 0.641870
vt 0.029487 0.644000
vt 0.033030 0.645468
vt 0.036792 0.646216
vt 0.040627 0.646216
vt 0.044388 0.645468
vt 0.047931 0.644000
vt 0.051120 0.641870
vt 0.053832 0.639158
vt 0.055963 0.635969
vt 0.057430 0.632426
vt 0.058178 0.628664
vt 0.058178 0.624829
vt 0.751880 0.039987
vt 0.743066 0.044698
vt 0.740507 0.018709
vt 0.057430 0.621068
vt 0.564961 0.570773
vt 0.555739 0.553520
vt 0.568150 0.568642
vt 0.570861 0.565930
vt 0.572992 0.562742
vt 0.574460 0.559199
vt 0.575208 0.555437
vt 0.575208 0.551602
vt 0.574460 0.547841
vt 0.572992 0.544298
vt 0.570861 0.541109
vt 0.568150 0.538397
vt 0.564961 0.536266
vt 0.561418 0.534799
vt 0.557656 0.534050
vt 0.553821 0.534050
vt 0.550060 0.534799
vt 0.546517 0.536266
vt 0.543328 0.538397
vt 0.540616 0.541109
vt 0.538485 0.544297
vt 0.537018 0.547841
vt 0.536270 0.551602
vt 0.536270 0.555437
vt 0.537018 0.559198
vt 0.538485 0.562742
vt 0.540616 0.565930
vt 0.543328 0.568642
vt 0.546517 0.570773
vt 0.550060 0.572241
vt 0.553821 0.572989
vt 0.557656 0.572989
vt 0.065807 0.746872
vt 0.082093 0.738167
vt 0.090798 0.754453
vt 0.561418 0.572241
vt 0.135935 0.652472
vt 0.120813 0.640061
vt 0.138066 0.649283
vt 0.139534 0.645740
vt 0.140282 0.641979
vt 0.140282 0.638143
vt 0.139534 0.634382
vt 0.138066 0.630839
vt 0.135935 0.627650
vt 0.133224 0.624938
vt 0.130035 0.622808
vt 0.126492 0.621340
vt 0.122730 0.620592
vt 0.118895 0.620592
vt 0.115134 0.621340
vt 0.111591 0.622808
vt 0.108402 0.624938
vt 0.105690 0.627650
vt 0.103559 0.630839
vt 0.102092 0.634382
vt 0.101344 0.638143
vt 0.101344 0.641979
vt 0.102092 0.645740
vt 0.103559 0.649283
vt 0.105690 0.652472
vt 0.108402 0.655184
vt 0.111591 0.657314
vt 0.115134 0.658782
vt 0.118895 0.659530
vt 0.122730 0.659530
vt 0.126492 0.658782
vt 0.130035 0.657314
vt 0.783009 0.115707
vt 0.773445 0.112805
vt 0.790012 0.092618
vt 0.133224 0.655184
vt 0.329726 0.029666
vt 0.342136 0.044789
vt 0.327014 0.032378
vt 0.324883 0.035567
vt 0.323415 0.039110
vt 0.322667 0.042872
vt 0.322667 0.046707
vt 0.323415 0.050468
vt 0.324883 0.054011
vt 0.327014 0.057200
vt 0.329726 0.059912
vt 0.332914 0.062042
vt 0.336457 0.063510
vt 0.340219 0.064258
vt 0.344054 0.064258
vt 0.347815 0.063510
vt 0.351358 0.062042
vt 0.354547 0.059912
vt 0.357259 0.057200
vt 0.359390 0.054011
vt 0.360857 0.050468
vt 0.361606 0.046707
vt 0.361606 0.042872
vt 0.360857 0.039110
vt 0.359390 0.035567
vt 0.357259 0.032378
vt 0.354547 0.029666
vt 0.351358 0.027536
vt 0.347815 0.026068
vt 0.344054 0.025320
vt 0.340219 0.025320
vt 0.336457 0.026068
vt 0.682888 0.318218
vt 0.674183 0.334504
vt 0.657898 0.325799
vt 0.332914 0.027536
vt 0.521145 0.032972
vt 0.502423 0.038651
vt 0.519677 0.029428
vt 0.517546 0.026240
vt 0.514835 0.023528
vt 0.511646 0.021397
vt 0.508103 0.019930
vt 0.504341 0.019181
vt 0.500506 0.019181
vt 0.496745 0.019930
vt 0.493202 0.021397
vt 0.490013 0.023528
vt 0.487301 0.026240
vt 0.485170 0.029428
vt 0.483703 0.032972
vt 0.482955 0.036733
vt 0.482955 0.040568
vt 0.483703 0.044329
vt 0.485170 0.047873
vt 0.487301 0.051061
vt 0.490013 0.053773
vt 0.493202 0.055904
vt 0.496745 0.057371
vt 0.500506 0.058120
vt 0.504341 0.058120
vt 0.508103 0.057371
vt 0.511646 0.055904
vt 0.514835 0.053773
vt 0.517546 0.051061
vt 0.519677 0.047873
vt 0.521145 0.044329
vt 0.521893 0.040568
vt 0.020889 0.696087
vt 0.035163 0.684373
vt 0.046878 0.698647
vt 0.521893 0.036733
vt 0.439344 0.051862
vt 0.422090 0.042640
vt 0.440811 0.048319
vt 0.441559 0.044557
vt 0.441559 0.040722
vt 0.440811 0.036961
vt 0.439344 0.033418
vt 0.437213 0.030229
vt 0.434501 0.027517
vt 0.431312 0.025386
vt 0.427769 0.023919
vt 0.424008 0.023170
vt 0.420173 0.023170
vt 0.416411 0.023919
vt 0.412868 0.025386
vt 0.409679 0.027517
vt 0.406968 0.030229
vt 0.404837 0.033418
vt 0.403369 0.036961
vt 0.402621 0.040722
vt 0.402621 0.044557
vt 0.403369 0.048319
vt 0.404837 0.051862
vt 0.406968 0.055050
vt 0.409679 0.057762
vt 0.412868 0.059893
vt 0.416411 0.061361
vt 0.420173 0.062109
vt 0.424008 0.062109
vt 0.427769 0.061361
vt 0.431312 0.059893
vt 0.434501 0.057762
vt 0.676157 0.018370
vt 0.684971 0.023081
vt 0.664784 0.039648
vt 0.437213 0.055050
vt 0.258772 0.069905
vt 0.256375 0.045569
vt 0.263474 0.068970
vt 0.267903 0.067136
vt 0.271889 0.064472
vt 0.275278 0.061082
vt 0.277942 0.057096
vt 0.279776 0.052668
vt 0.280711 0.047966
vt 0.280711 0.043172
vt 0.279776 0.038470
vt 0.277942 0.034041
vt 0.275278 0.030055
vt 0.271888 0.026666
vt 0.267902 0.024002
vt 0.263474 0.022168
vt 0.258772 0.021232
vt 0.253978 0.021233
vt 0.249276 0.022168
vt 0.244847 0.024002
vt 0.240861 0.026666
vt 0.237472 0.030055
vt 0.234808 0.034041
vt 0.232974 0.038470
vt 0.232038 0.043172
vt 0.232038 0.047966
vt 0.232974 0.052668
vt 0.234808 0.057097
vt 0.237472 0.061083
vt 0.240861 0.064472
vt 0.244847 0.067136
vt 0.249276 0.068970
vt 0.694179 0.470015
vt 0.672090 0.476716
vt 0.665390 0.454627
vt 0.253978 0.069905
vt 0.126777 0.714120
vt 0.210656 0.705931
vt 0.224995 0.560182
vt 0.075010 0.369903
vt 0.031292 0.308265
vt 0.164900 0.590703
vt 0.931838 0.119702
vt 0.907276 0.290699
vt 0.761943 0.183754
vt 0.686148 0.152340
vt 0.655082 0.416402
vt 0.636903 0.350545
vt 0.636903 0.434581
vt 0.624295 0.655599
vt 0.514254 0.720535
vt 0.788432 0.767308
vt 0.597184 0.437508
vt 0.473507 0.798716
vt 0.185642 0.667949
vt 0.183865 0.665288
vt 0.182640 0.662332
vt 0.182016 0.659194
vt 0.182016 0.655994
vt 0.182640 0.652856
vt 0.183865 0.649900
vt 0.185642 0.647240
vt 0.190565 0.643200
vt 0.193521 0.641975
vt 0.196659 0.641351
vt 0.199859 0.641351
vt 0.202997 0.641975
vt 0.205953 0.643200
vt 0.208614 0.644977
vt 0.212654 0.649900
vt 0.213878 0.652856
vt 0.214503 0.655994
vt 0.214503 0.659194
vt 0.213878 0.662332
vt 0.212654 0.665288
vt 0.210876 0.667949
vt 0.205953 0.671989
vt 0.202997 0.673213
vt 0.199859 0.673838
vt 0.196659 0.673838
vt 0.193521 0.673213
vt 0.190565 0.671989
vt 0.187905 0.670211
vt 0.740507 0.044698
vt 0.737996 0.044199
vt 0.735631 0.043219
vt 0.733503 0.041797
vt 0.731693 0.039987
vt 0.730271 0.037859
vt 0.729291 0.035494
vt 0.728792 0.032983
vt 0.728792 0.030424
vt 0.729291 0.027913
vt 0.730271 0.025548
vt 0.731693 0.023420
vt 0.733503 0.021610
vt 0.735631 0.020188
vt 0.737996 0.019208
vt 0.743066 0.018709
vt 0.745577 0.019208
vt 0.747942 0.020188
vt 0.750070 0.021610
vt 0.751880 0.023420
vt 0.754781 0.030424
vt 0.753302 0.025548
vt 0.754282 0.027913
vt 0.754781 0.032983
vt 0.754282 0.035494
vt 0.753302 0.037859
vt 0.750070 0.041797
vt 0.747942 0.043219
vt 0.745577 0.044199
vt 0.074512 0.763158
vt 0.072147 0.762178
vt 0.070019 0.760756
vt 0.068209 0.758946
vt 0.066787 0.756818
vt 0.065807 0.754453
vt 0.065308 0.751943
vt 0.065308 0.749383
vt 0.066787 0.744507
vt 0.072147 0.739147
vt 0.068209 0.742379
vt 0.070019 0.740569
vt 0.074512 0.738167
vt 0.077023 0.737668
vt 0.079583 0.737668
vt 0.084458 0.739147
vt 0.089818 0.744507
vt 0.086586 0.740569
vt 0.088396 0.742379
vt 0.090798 0.746872
vt 0.091297 0.749383
vt 0.091297 0.751943
vt 0.089818 0.756818
vt 0.088396 0.758946
vt 0.086586 0.760756
vt 0.084458 0.762178
vt 0.082093 0.763158
vt 0.079583 0.763657
vt 0.077023 0.763657
vt 0.771635 0.110995
vt 0.770213 0.108867
vt 0.769233 0.106502
vt 0.768734 0.103992
vt 0.768734 0.101432
vt 0.771635 0.094428
vt 0.769233 0.098921
vt 0.770213 0.096557
vt 0.773445 0.092618
vt 0.780449 0.089717
vt 0.775573 0.091196
vt 0.777938 0.090217
vt 0.783009 0.089717
vt 0.785519 0.090217
vt 0.787884 0.091196
vt 0.791822 0.094428
vt 0.793244 0.096557
vt 0.794224 0.098921
vt 0.794723 0.101432
vt 0.794723 0.103992
vt 0.794224 0.106502
vt 0.793244 0.108867
vt 0.791822 0.110995
vt 0.790012 0.112805
vt 0.787884 0.114228
vt 0.785519 0.115207
vt 0.780449 0.115706
vt 0.777938 0.115207
vt 0.775573 0.114228
vt 0.683388 0.320729
vt 0.681909 0.328164
vt 0.683388 0.323288
vt 0.682888 0.325799
vt 0.680487 0.330292
vt 0.678677 0.332102
vt 0.676548 0.333524
vt 0.671673 0.335003
vt 0.669113 0.335003
vt 0.666603 0.334504
vt 0.664238 0.333524
vt 0.662109 0.332102
vt 0.660299 0.330292
vt 0.658877 0.328164
vt 0.657398 0.323288
vt 0.657398 0.320729
vt 0.657898 0.318218
vt 0.658877 0.315853
vt 0.660299 0.313725
vt 0.662109 0.311915
vt 0.664238 0.310493
vt 0.666603 0.309513
vt 0.669113 0.309014
vt 0.671673 0.309014
vt 0.674183 0.309513
vt 0.676548 0.310493
vt 0.678677 0.311915
vt 0.680487 0.313725
vt 0.681909 0.315853
vt 0.046379 0.701158
vt 0.045399 0.703523
vt 0.043977 0.705651
vt 0.042167 0.707461
vt 0.040039 0.708883
vt 0.032603 0.710362
vt 0.037674 0.709863
vt 0.035163 0.710362
vt 0.030093 0.709863
vt 0.023790 0.705651
vt 0.027728 0.708883
vt 0.025600 0.707461
vt 0.022368 0.703523
vt 0.021388 0.701158
vt 0.020889 0.698647
vt 0.021388 0.693577
vt 0.022368 0.691212
vt 0.023790 0.689084
vt 0.025600 0.687274
vt 0.027728 0.685851
vt 0.030093 0.684872
vt 0.032603 0.684373
vt 0.037674 0.684872
vt 0.040039 0.685851
vt 0.042167 0.687274
vt 0.043977 0.689084
vt 0.045399 0.691212
vt 0.046379 0.693577
vt 0.046878 0.696087
vt 0.686393 0.025209
vt 0.687373 0.027574
vt 0.687872 0.030085
vt 0.687872 0.032645
vt 0.687373 0.035155
vt 0.686393 0.037520
vt 0.684971 0.039648
vt 0.683161 0.041458
vt 0.681033 0.042880
vt 0.678668 0.043860
vt 0.676157 0.044359
vt 0.673598 0.044359
vt 0.671087 0.043860
vt 0.668722 0.042880
vt 0.666594 0.041458
vt 0.663362 0.037520
vt 0.662382 0.035155
vt 0.661883 0.032645
vt 0.661883 0.030085
vt 0.662382 0.027574
vt 0.663362 0.025209
vt 0.664784 0.023081
vt 0.666594 0.021271
vt 0.668722 0.019849
vt 0.671087 0.018869
vt 0.673598 0.018370
vt 0.678668 0.018869
vt 0.681033 0.019849
vt 0.683161 0.021271
vt 0.667167 0.451967
vt 0.669430 0.449704
vt 0.672090 0.447927
vt 0.675046 0.446702
vt 0.678185 0.446078
vt 0.681384 0.446078
vt 0.684522 0.446702
vt 0.687479 0.447927
vt 0.690139 0.449704
vt 0.692401 0.451967
vt 0.694179 0.454627
vt 0.695404 0.457583
vt 0.696028 0.460722
vt 0.696028 0.463921
vt 0.695404 0.467059
vt 0.692401 0.472676
vt 0.690139 0.474938
vt 0.687479 0.476716
vt 0.684522 0.477940
vt 0.681384 0.478565
vt 0.678185 0.478565
vt 0.675046 0.477940
vt 0.669430 0.474938
vt 0.667167 0.472676
vt 0.665390 0.470015
vt 0.664165 0.467059
vt 0.663541 0.463921
vt 0.663541 0.460722
vt 0.664165 0.457583
s 0
usemtl マテリアル
f 46/1/1 48/2/1 45/3/1
f 47/4/2 49/5/2 46/1/2
f 48/2/3 52/6/3 51/7/3
f 49/5/4 53/8/4 52/6/4
f 12/9/5 11/10/5 1/11/5
f 12/9/6 46/1/6 45/3/6
f 14/12/7 46/1/7 13/13/7
f 14/12/8 15/14/8 47/4/8
f 15/14/9 50/15/9 47/4/9
f 50/15/10 17/16/10 53/8/10
f 53/8/11 4/17/11 18/18/11
f 52/6/12 18/18/12 19/19/12
f 51/7/13 19/19/13 20/20/13
f 9/21/14 20/20/14 3/22/14
f 48/2/15 9/21/15 10/23/15
f 11/10/16 48/2/16 10/23/16
f 55/24/17 57/25/17 54/26/17
f 56/27/18 58/28/18 55/24/18
f 57/25/19 61/29/19 60/30/19
f 58/28/20 62/31/20 61/29/20
f 20/20/21 23/32/21 3/22/21
f 19/19/22 54/26/22 20/20/22
f 19/19/23 56/27/23 55/24/23
f 4/17/24 56/27/24 18/18/24
f 24/33/25 59/34/25 56/27/25
f 59/34/26 26/35/26 62/31/26
f 62/31/27 8/36/27 27/37/27
f 62/31/28 28/38/28 61/29/28
f 60/30/29 28/38/29 29/39/29
f 21/40/30 29/39/30 7/41/30
f 22/42/31 60/30/31 21/40/31
f 54/26/32 22/42/32 23/32/32
f 64/43/33 66/44/33 63/45/33
f 65/46/34 67/47/34 64/43/34
f 66/44/35 70/48/35 69/49/35
f 67/47/36 71/50/36 70/48/36
f 29/39/37 32/51/37 7/41/37
f 28/38/38 63/45/38 29/39/38
f 27/37/39 64/43/39 28/38/39
f 8/36/40 65/46/40 27/37/40
f 33/52/41 68/53/41 65/46/41
f 68/53/42 35/54/42 71/50/42
f 35/54/43 36/55/43 71/50/43
f 70/48/44 36/55/44 37/56/44
f 70/48/45 38/57/45 69/49/45
f 30/58/46 38/57/46 5/59/46
f 66/44/47 30/58/47 31/60/47
f 32/51/48 66/44/48 31/60/48
f 73/61/49 75/62/49 72/63/49
f 74/64/50 76/65/50 73/61/50
f 75/62/51 79/66/51 78/67/51
f 76/65/52 80/68/52 79/66/52
f 38/57/53 41/69/53 5/59/53
f 37/56/54 72/63/54 38/57/54
f 37/56/55 74/64/55 73/61/55
f 36/55/56 42/70/56 74/64/56
f 42/70/57 77/71/57 74/64/57
f 77/71/58 44/72/58 80/68/58
f 44/72/59 14/73/59 80/68/59
f 80/68/60 13/74/60 79/66/60
f 78/67/61 13/74/61 12/75/61
f 39/76/62 12/75/62 1/77/62
f 40/78/63 78/67/63 39/76/63
f 72/63/64 40/78/64 41/69/64
f 81/79/65 85/80/65 84/81/65
f 83/82/66 85/80/66 82/83/66
f 85/80/67 87/84/67 84/81/67
f 85/80/68 89/85/68 88/86/68
f 23/87/69 9/88/69 3/89/69
f 22/90/70 81/79/70 23/87/70
f 22/90/71 83/82/71 82/83/71
f 21/91/72 32/51/72 83/82/72
f 83/82/73 31/60/73 86/92/73
f 31/60/74 89/85/74 86/92/74
f 30/58/75 41/93/75 89/85/75
f 89/85/76 40/94/76 88/86/76
f 87/84/77 40/94/77 39/95/77
f 11/96/78 39/95/78 1/97/78
f 10/98/79 87/84/79 11/96/79
f 81/79/80 10/98/80 9/88/80
f 90/99/81 94/100/81 93/101/81
f 92/102/82 94/100/82 91/103/82
f 94/100/83 96/104/83 93/101/83
f 94/100/84 98/105/84 97/106/84
f 8/36/85 90/99/85 33/52/85
f 26/107/86 91/103/86 90/99/86
f 24/108/87 91/103/87 25/109/87
f 4/110/88 92/102/88 24/108/88
f 17/111/89 95/112/89 92/102/89
f 95/112/90 15/113/90 98/105/90
f 98/105/91 2/114/91 44/115/91
f 97/106/92 44/115/92 43/116/92
f 97/106/93 42/117/93 96/104/93
f 96/104/94 6/118/94 35/54/94
f 93/101/95 35/54/95 34/119/95
f 33/52/96 93/101/96 34/119/96
f 101/120/97 100/121/97 99/122/97
f 105/123/98 122/124/98 107/125/98
f 103/126/99 106/127/99 105/123/99
f 99/128/100 138/129/100 123/130/100
f 107/131/101 103/126/101 105/123/101
f 115/132/102 100/133/102 102/134/102
f 104/135/102 122/136/102 106/127/102
f 131/137/102 121/138/102 122/136/102
f 132/139/102 120/140/102 121/138/102
f 133/141/102 119/142/102 120/140/102
f 134/143/102 118/144/102 119/142/102
f 118/144/102 136/145/102 117/146/102
f 117/146/102 137/147/102 116/148/102
f 116/148/102 138/149/102 115/132/102
f 99/150/101 114/151/101 101/152/101
f 123/153/101 113/154/101 114/151/101
f 124/155/101 112/156/101 113/154/101
f 125/157/101 111/158/101 112/156/101
f 126/159/101 110/160/101 111/158/101
f 110/160/101 128/161/101 109/162/101
f 109/162/101 129/163/101 108/164/101
f 108/164/101 130/165/101 107/131/101
f 130/166/103 104/135/103 103/126/103
f 129/167/103 131/168/103 130/166/103
f 128/169/103 132/170/103 129/167/103
f 127/171/103 133/172/103 128/169/103
f 126/173/104 134/174/104 127/171/104
f 125/175/100 135/176/100 126/173/100
f 124/177/100 136/178/100 125/175/100
f 123/130/100 137/179/100 124/177/100
f 114/180/105 102/181/105 101/120/105
f 113/182/105 115/183/105 114/180/105
f 112/184/105 116/185/105 113/182/105
f 111/186/105 117/187/105 112/184/105
f 110/188/106 118/189/106 111/186/106
f 110/188/98 120/190/98 119/191/98
f 108/192/98 120/190/98 109/193/98
f 107/125/98 121/194/98 108/192/98
f 141/195/107 140/196/107 139/197/107
f 145/198/108 142/199/108 141/195/108
f 143/200/109 146/201/109 145/198/109
f 139/202/110 144/203/110 143/200/110
f 139/204/101 145/198/101 141/205/101
f 146/201/102 140/206/102 142/207/102
f 149/208/111 148/209/111 147/210/111
f 153/211/112 150/212/112 149/208/112
f 151/213/113 154/214/113 153/211/113
f 147/215/114 152/216/114 151/213/114
f 149/217/101 151/213/101 153/211/101
f 152/216/102 150/218/102 154/214/102
f 163/219/115 158/220/115 156/221/115
f 165/222/116 158/220/116 164/223/116
f 166/224/117 162/225/117 165/222/117
f 166/224/118 156/226/118 160/227/118
f 155/228/119 161/229/119 157/230/119
f 162/225/120 156/231/120 158/232/120
f 159/233/121 163/234/121 166/224/121
f 161/229/122 166/224/122 165/222/122
f 161/229/123 164/223/123 157/235/123
f 157/235/124 163/219/124 155/236/124
f 167/237/125 170/238/125 168/239/125
f 175/240/126 174/241/126 176/242/126
f 171/243/127 174/241/127 173/244/127
f 177/245/128 168/246/128 178/247/128
f 175/248/129 171/243/129 173/244/129
f 178/249/130 170/250/130 176/251/130
f 174/241/131 178/249/131 176/251/131
f 167/252/132 175/248/132 169/253/132
f 177/245/133 172/254/133 171/243/133
f 175/240/134 170/238/134 169/255/134
f 187/256/135 182/257/135 180/258/135
f 189/259/136 182/257/136 188/260/136
f 190/261/137 186/262/137 189/259/137
f 190/261/138 180/263/138 184/264/138
f 179/265/139 185/266/139 181/267/139
f 186/262/140 180/268/140 182/269/140
f 183/270/141 187/271/141 190/261/141
f 185/266/142 190/261/142 189/259/142
f 185/266/143 188/260/143 181/272/143
f 181/272/144 187/256/144 179/273/144
f 191/274/145 223/275/145 192/276/145
f 192/276/146 223/275/146 193/277/146
f 193/277/147 223/275/147 194/278/147
f 194/278/148 223/275/148 195/279/148
f 195/279/149 223/275/149 196/280/149
f 196/280/150 223/275/150 197/281/150
f 197/281/151 223/275/151 198/282/151
f 198/282/152 223/275/152 199/283/152
f 199/283/153 223/275/153 200/284/153
f 200/284/154 223/275/154 201/285/154
f 201/285/155 223/275/155 202/286/155
f 202/286/156 223/275/156 203/287/156
f 203/287/157 223/275/157 204/288/157
f 204/288/158 223/275/158 205/289/158
f 205/289/159 223/275/159 206/290/159
f 206/290/160 223/275/160 207/291/160
f 207/291/161 223/275/161 208/292/161
f 208/292/162 223/275/162 209/293/162
f 209/293/163 223/275/163 210/294/163
f 210/294/164 223/275/164 211/295/164
f 211/295/165 223/275/165 212/296/165
f 212/296/166 223/275/166 213/297/166
f 213/297/167 223/275/167 214/298/167
f 214/298/168 223/275/168 215/299/168
f 215/299/169 223/275/169 216/300/169
f 216/300/170 223/275/170 217/301/170
f 217/301/171 223/275/171 218/302/171
f 218/302/172 223/275/172 219/303/172
f 219/303/173 223/275/173 220/304/173
f 220/304/174 223/275/174 221/305/174
f 198/306/175 206/307/175 214/308/175
f 221/305/176 223/275/176 222/309/176
f 222/309/177 223/275/177 191/274/177
f 224/310/178 256/311/178 225/312/178
f 225/312/179 256/311/179 226/313/179
f 226/313/180 256/311/180 227/314/180
f 227/314/181 256/311/181 228/315/181
f 228/315/182 256/311/182 229/316/182
f 229/316/183 256/311/183 230/317/183
f 230/317/184 256/311/184 231/318/184
f 231/318/185 256/311/185 232/319/185
f 232/319/186 256/311/186 233/320/186
f 233/320/187 256/311/187 234/321/187
f 234/321/188 256/311/188 235/322/188
f 235/322/189 256/311/189 236/323/189
f 236/323/190 256/311/190 237/324/190
f 237/324/191 256/311/191 238/325/191
f 238/325/192 256/311/192 239/326/192
f 239/326/193 256/311/193 240/327/193
f 240/327/194 256/311/194 241/328/194
f 241/328/195 256/311/195 242/329/195
f 242/329/196 256/311/196 243/330/196
f 243/330/197 256/311/197 244/331/197
f 244/331/198 256/311/198 245/332/198
f 245/332/199 256/311/199 246/333/199
f 246/333/200 256/311/200 247/334/200
f 247/334/201 256/311/201 248/335/201
f 248/335/202 256/311/202 249/336/202
f 249/336/203 256/311/203 250/337/203
f 250/337/204 256/311/204 251/338/204
f 251/338/205 256/311/205 252/339/205
f 252/339/206 256/311/206 253/340/206
f 253/340/207 256/311/207 254/341/207
f 251/342/208 255/343/208 239/344/208
f 254/341/209 256/311/209 255/345/209
f 255/345/210 256/311/210 224/310/210
f 257/346/178 289/347/178 258/348/178
f 258/348/179 289/347/179 259/349/179
f 259/349/180 289/347/180 260/350/180
f 260/350/181 289/347/181 261/351/181
f 261/351/182 289/347/182 262/352/182
f 262/352/183 289/347/183 263/353/183
f 263/353/184 289/347/184 264/354/184
f 264/354/185 289/347/185 265/355/185
f 265/355/186 289/347/186 266/356/186
f 266/356/187 289/347/187 267/357/187
f 267/357/188 289/347/188 268/358/188
f 268/358/189 289/347/189 269/359/189
f 269/359/190 289/347/190 270/360/190
f 270/360/191 289/347/191 271/361/191
f 271/361/192 289/347/192 272/362/192
f 272/362/193 289/347/193 273/363/193
f 273/363/194 289/347/194 274/364/194
f 274/364/195 289/347/195 275/365/195
f 275/365/196 289/347/196 276/366/196
f 276/366/197 289/347/197 277/367/197
f 277/367/198 289/347/198 278/368/198
f 278/368/211 289/347/211 279/369/211
f 279/369/200 289/347/200 280/370/200
f 280/370/201 289/347/201 281/371/201
f 281/371/212 289/347/212 282/372/212
f 282/372/203 289/347/203 283/373/203
f 283/373/204 289/347/204 284/374/204
f 284/374/205 289/347/205 285/375/205
f 285/375/206 289/347/206 286/376/206
f 286/376/207 289/347/207 287/377/207
f 264/378/208 272/379/208 280/380/208
f 287/377/209 289/347/209 288/381/209
f 288/381/210 289/347/210 257/346/210
f 290/382/213 322/383/213 291/384/213
f 291/384/179 322/383/179 292/385/179
f 292/385/180 322/383/180 293/386/180
f 293/386/181 322/383/181 294/387/181
f 294/387/182 322/383/182 295/388/182
f 295/388/183 322/383/183 296/389/183
f 296/389/214 322/383/214 297/390/214
f 297/390/185 322/383/185 298/391/185
f 298/391/186 322/383/186 299/392/186
f 299/392/187 322/383/187 300/393/187
f 300/393/188 322/383/188 301/394/188
f 301/394/189 322/383/189 302/395/189
f 302/395/190 322/383/190 303/396/190
f 303/396/191 322/383/191 304/397/191
f 304/397/192 322/383/192 305/398/192
f 305/398/193 322/383/193 306/399/193
f 306/399/194 322/383/194 307/400/194
f 307/400/195 322/383/195 308/401/195
f 308/401/196 322/383/196 309/402/196
f 309/402/197 322/383/197 310/403/197
f 310/403/198 322/383/198 311/404/198
f 311/404/199 322/383/199 312/405/199
f 312/405/200 322/383/200 313/406/200
f 313/406/201 322/383/201 314/407/201
f 314/407/202 322/383/202 315/408/202
f 315/408/203 322/383/203 316/409/203
f 316/409/204 322/383/204 317/410/204
f 317/410/205 322/383/205 318/411/205
f 318/411/206 322/383/206 319/412/206
f 319/412/207 322/383/207 320/413/207
f 317/414/215 321/415/215 305/416/215
f 320/413/209 322/383/209 321/417/209
f 321/417/210 322/383/210 290/382/210
f 323/418/216 355/419/216 324/420/216
f 324/420/217 355/419/217 325/421/217
f 325/421/218 355/419/218 326/422/218
f 326/422/219 355/419/219 327/423/219
f 327/423/220 355/419/220 328/424/220
f 328/424/221 355/419/221 329/425/221
f 329/425/222 355/419/222 330/426/222
f 330/426/223 355/419/223 331/427/223
f 331/427/224 355/419/224 332/428/224
f 332/428/225 355/419/225 333/429/225
f 333/429/226 355/419/226 334/430/226
f 334/430/227 355/419/227 335/431/227
f 335/431/228 355/419/228 336/432/228
f 336/432/229 355/419/229 337/433/229
f 337/433/230 355/419/230 338/434/230
f 338/434/231 355/419/231 339/435/231
f 339/435/232 355/419/232 340/436/232
f 340/436/233 355/419/233 341/437/233
f 341/437/234 355/419/234 342/438/234
f 342/438/235 355/419/235 343/439/235
f 343/439/236 355/419/236 344/440/236
f 344/440/237 355/419/237 345/441/237
f 345/441/238 355/419/238 346/442/238
f 346/442/239 355/419/239 347/443/239
f 347/443/240 355/419/240 348/444/240
f 348/444/241 355/419/241 349/445/241
f 349/445/242 355/419/242 350/446/242
f 350/446/243 355/419/243 351/447/243
f 351/447/244 355/419/244 352/448/244
f 352/448/245 355/419/245 353/449/245
f 354/450/246 330/451/246 338/452/246
f 353/449/247 355/419/247 354/453/247
f 354/453/248 355/419/248 323/418/248
f 356/454/249 388/455/249 357/456/249
f 357/456/250 388/455/250 358/457/250
f 358/457/251 388/455/251 359/458/251
f 359/458/252 388/455/252 360/459/252
f 360/459/253 388/455/253 361/460/253
f 361/460/254 388/455/254 362/461/254
f 362/461/255 388/455/255 363/462/255
f 363/462/256 388/455/256 364/463/256
f 364/463/257 388/455/257 365/464/257
f 365/464/258 388/455/258 366/465/258
f 366/465/259 388/455/259 367/466/259
f 367/466/260 388/455/260 368/467/260
f 368/467/261 388/455/261 369/468/261
f 369/468/262 388/455/262 370/469/262
f 370/469/263 388/455/263 371/470/263
f 371/470/264 388/455/264 372/471/264
f 372/471/265 388/455/265 373/472/265
f 373/472/266 388/455/266 374/473/266
f 374/473/267 388/455/267 375/474/267
f 375/474/268 388/455/268 376/475/268
f 376/475/269 388/455/269 377/476/269
f 377/476/270 388/455/270 378/477/270
f 378/477/271 388/455/271 379/478/271
f 379/478/272 388/455/272 380/479/272
f 380/479/273 388/455/273 381/480/273
f 381/480/274 388/455/274 382/481/274
f 382/481/275 388/455/275 383/482/275
f 383/482/276 388/455/276 384/483/276
f 384/483/277 388/455/277 385/484/277
f 385/484/278 388/455/278 386/485/278
f 371/486/279 379/487/279 387/488/279
f 386/485/280 388/455/280 387/489/280
f 387/489/281 388/455/281 356/454/281
f 389/490/282 421/491/282 390/492/282
f 390/492/283 421/491/283 391/493/283
f 391/493/284 421/491/284 392/494/284
f 392/494/285 421/491/285 393/495/285
f 393/495/286 421/491/286 394/496/286
f 394/496/287 421/491/287 395/497/287
f 395/497/288 421/491/288 396/498/288
f 396/498/289 421/491/289 397/499/289
f 397/499/290 421/491/290 398/500/290
f 398/500/291 421/491/291 399/501/291
f 399/501/292 421/491/292 400/502/292
f 400/502/293 421/491/293 401/503/293
f 401/503/294 421/491/294 402/504/294
f 402/504/295 421/491/295 403/505/295
f 403/505/296 421/491/296 404/506/296
f 404/506/297 421/491/297 405/507/297
f 405/507/298 421/491/298 406/508/298
f 406/508/299 421/491/299 407/509/299
f 407/509/300 421/491/300 408/510/300
f 408/510/301 421/491/301 409/511/301
f 409/511/302 421/491/302 410/512/302
f 410/512/303 421/491/303 411/513/303
f 411/513/304 421/491/304 412/514/304
f 412/514/305 421/491/305 413/515/305
f 413/515/306 421/491/306 414/516/306
f 414/516/307 421/491/307 415/517/307
f 415/517/308 421/491/308 416/518/308
f 416/518/309 421/491/309 417/519/309
f 417/519/310 421/491/310 418/520/310
f 418/520/311 421/491/311 419/521/311
f 416/522/312 420/523/312 404/524/312
f 419/521/313 421/491/313 420/525/313
f 420/525/314 421/491/314 389/490/314
f 422/526/315 454/527/315 423/528/315
f 423/528/316 454/527/316 424/529/316
f 424/529/317 454/527/317 425/530/317
f 425/530/318 454/527/318 426/531/318
f 426/531/319 454/527/319 427/532/319
f 427/532/320 454/527/320 428/533/320
f 428/533/321 454/527/321 429/534/321
f 429/534/322 454/527/322 430/535/322
f 430/535/323 454/527/323 431/536/323
f 431/536/324 454/527/324 432/537/324
f 432/537/325 454/527/325 433/538/325
f 433/538/326 454/527/326 434/539/326
f 434/539/327 454/527/327 435/540/327
f 435/540/328 454/527/328 436/541/328
f 436/541/329 454/527/329 437/542/329
f 437/542/330 454/527/330 438/543/330
f 438/543/331 454/527/331 439/544/331
f 439/544/332 454/527/332 440/545/332
f 440/545/333 454/527/333 441/546/333
f 441/546/334 454/527/334 442/547/334
f 442/547/335 454/527/335 443/548/335
f 443/548/336 454/527/336 444/549/336
f 444/549/337 454/527/337 445/550/337
f 445/550/338 454/527/338 446/551/338
f 446/551/339 454/527/339 447/552/339
f 447/552/340 454/527/340 448/553/340
f 448/553/341 454/527/341 449/554/341
f 449/554/342 454/527/342 450/555/342
f 450/555/343 454/527/343 451/556/343
f 451/556/344 454/527/344 452/557/344
f 437/558/345 445/559/345 453/560/345
f 452/557/346 454/527/346 453/561/346
f 453/561/347 454/527/347 422/526/347
f 46/1/348 49/5/348 48/2/348
f 47/4/349 50/15/349 49/5/349
f 48/2/350 49/5/350 52/6/350
f 49/5/351 50/15/351 53/8/351
f 12/9/352 45/3/352 11/10/352
f 12/9/353 13/13/353 46/1/353
f 14/12/354 47/4/354 46/1/354
f 14/12/355 2/562/355 15/14/355
f 15/14/356 16/563/356 50/15/356
f 50/15/357 16/563/357 17/16/357
f 53/8/358 17/16/358 4/17/358
f 52/6/359 53/8/359 18/18/359
f 51/7/360 52/6/360 19/19/360
f 9/21/361 51/7/361 20/20/361
f 48/2/362 51/7/362 9/21/362
f 11/10/363 45/3/363 48/2/363
f 55/24/364 58/28/364 57/25/364
f 56/27/365 59/34/365 58/28/365
f 57/25/366 58/28/366 61/29/366
f 58/28/367 59/34/367 62/31/367
f 20/20/368 54/26/368 23/32/368
f 19/19/369 55/24/369 54/26/369
f 19/19/370 18/18/370 56/27/370
f 4/17/371 24/33/371 56/27/371
f 24/33/372 25/564/372 59/34/372
f 59/34/373 25/564/373 26/35/373
f 62/31/374 26/35/374 8/36/374
f 62/31/375 27/37/375 28/38/375
f 60/30/376 61/29/376 28/38/376
f 21/40/377 60/30/377 29/39/377
f 22/42/378 57/25/378 60/30/378
f 54/26/379 57/25/379 22/42/379
f 64/43/380 67/47/380 66/44/380
f 65/46/381 68/53/381 67/47/381
f 66/44/382 67/47/382 70/48/382
f 67/47/383 68/53/383 71/50/383
f 29/39/384 63/45/384 32/51/384
f 28/38/385 64/43/385 63/45/385
f 27/37/386 65/46/386 64/43/386
f 8/36/387 33/52/387 65/46/387
f 33/52/388 34/119/388 68/53/388
f 68/53/389 34/119/389 35/54/389
f 35/54/390 6/118/390 36/55/390
f 70/48/391 71/50/391 36/55/391
f 70/48/392 37/56/392 38/57/392
f 30/58/393 69/49/393 38/57/393
f 66/44/394 69/49/394 30/58/394
f 32/51/395 63/45/395 66/44/395
f 73/61/396 76/65/396 75/62/396
f 74/64/397 77/71/397 76/65/397
f 75/62/398 76/65/398 79/66/398
f 76/65/399 77/71/399 80/68/399
f 38/57/400 72/63/400 41/69/400
f 37/56/401 73/61/401 72/63/401
f 37/56/402 36/55/402 74/64/402
f 36/55/403 6/118/403 42/70/403
f 42/70/404 43/565/404 77/71/404
f 77/71/405 43/565/405 44/72/405
f 44/72/406 2/566/406 14/73/406
f 80/68/407 14/73/407 13/74/407
f 78/67/408 79/66/408 13/74/408
f 39/76/409 78/67/409 12/75/409
f 40/78/410 75/62/410 78/67/410
f 72/63/411 75/62/411 40/78/411
f 81/79/412 82/83/412 85/80/412
f 83/82/413 86/92/413 85/80/413
f 85/80/414 88/86/414 87/84/414
f 85/80/415 86/92/415 89/85/415
f 23/87/416 81/79/416 9/88/416
f 22/90/417 82/83/417 81/79/417
f 22/90/418 21/91/418 83/82/418
f 21/91/419 7/41/419 32/51/419
f 83/82/420 32/51/420 31/60/420
f 31/60/421 30/58/421 89/85/421
f 30/58/422 5/59/422 41/93/422
f 89/85/423 41/93/423 40/94/423
f 87/84/424 88/86/424 40/94/424
f 11/96/425 87/84/425 39/95/425
f 10/98/426 84/81/426 87/84/426
f 81/79/427 84/81/427 10/98/427
f 90/99/428 91/103/428 94/100/428
f 92/102/429 95/112/429 94/100/429
f 94/100/430 97/106/430 96/104/430
f 94/100/431 95/112/431 98/105/431
f 8/36/432 26/107/432 90/99/432
f 26/107/433 25/109/433 91/103/433
f 24/108/434 92/102/434 91/103/434
f 4/110/435 17/111/435 92/102/435
f 17/111/436 16/567/436 95/112/436
f 95/112/437 16/567/437 15/113/437
f 98/105/438 15/113/438 2/114/438
f 97/106/439 98/105/439 44/115/439
f 97/106/440 43/116/440 42/117/440
f 96/104/441 42/117/441 6/118/441
f 93/101/442 96/104/442 35/54/442
f 33/52/443 90/99/443 93/101/443
f 101/120/97 102/181/97 100/121/97
f 105/123/98 106/127/98 122/124/98
f 103/126/99 104/135/99 106/127/99
f 99/128/100 100/568/100 138/129/100
f 107/131/101 130/165/101 103/126/101
f 115/132/102 138/149/102 100/133/102
f 104/135/102 131/137/102 122/136/102
f 131/137/102 132/139/102 121/138/102
f 132/139/102 133/141/102 120/140/102
f 133/141/102 134/143/102 119/142/102
f 134/143/102 135/569/102 118/144/102
f 118/144/102 135/569/102 136/145/102
f 117/146/102 136/145/102 137/147/102
f 116/148/102 137/147/102 138/149/102
f 99/150/101 123/153/101 114/151/101
f 123/153/101 124/155/101 113/154/101
f 124/155/101 125/157/101 112/156/101
f 125/157/101 126/159/101 111/158/101
f 126/159/101 127/570/101 110/160/101
f 110/160/101 127/570/101 128/161/101
f 109/162/101 128/161/101 129/163/101
f 108/164/101 129/163/101 130/165/101
f 130/166/103 131/168/103 104/135/103
f 129/167/103 132/170/103 131/168/103
f 128/169/103 133/172/103 132/170/103
f 127/171/103 134/174/103 133/172/103
f 126/173/104 135/176/104 134/174/104
f 125/175/100 136/178/100 135/176/100
f 124/177/100 137/179/100 136/178/100
f 123/130/100 138/129/100 137/179/100
f 114/180/105 115/183/105 102/181/105
f 113/182/105 116/185/105 115/183/105
f 112/184/105 117/187/105 116/185/105
f 111/186/105 118/189/105 117/187/105
f 110/188/106 119/191/106 118/189/106
f 110/188/98 109/193/98 120/190/98
f 108/192/98 121/194/98 120/190/98
f 107/125/98 122/124/98 121/194/98
f 141/195/107 142/199/107 140/196/107
f 145/198/108 146/201/108 142/199/108
f 143/200/109 144/203/109 146/201/109
f 139/202/110 140/571/110 144/203/110
f 139/204/101 143/200/101 145/198/101
f 146/201/102 144/203/102 140/206/102
f 149/208/111 150/212/111 148/209/111
f 153/211/112 154/214/112 150/212/112
f 151/213/113 152/216/113 154/214/113
f 147/215/114 148/572/114 152/216/114
f 149/217/101 147/573/101 151/213/101
f 152/216/102 148/574/102 150/218/102
f 163/219/444 164/223/444 158/220/444
f 165/222/445 162/225/445 158/220/445
f 166/224/446 160/227/446 162/225/446
f 166/224/447 163/234/447 156/226/447
f 155/228/119 159/233/119 161/229/119
f 162/225/120 160/227/120 156/231/120
f 159/233/448 155/575/448 163/234/448
f 161/229/449 159/233/449 166/224/449
f 161/229/450 165/222/450 164/223/450
f 157/235/451 164/223/451 163/219/451
f 167/237/125 169/255/125 170/238/125
f 175/240/452 173/244/452 174/241/452
f 171/243/127 172/254/127 174/241/127
f 177/245/453 167/576/453 168/246/453
f 175/248/129 177/577/129 171/243/129
f 178/249/130 168/578/130 170/250/130
f 174/241/131 172/254/131 178/249/131
f 167/252/132 177/577/132 175/248/132
f 177/245/454 178/247/454 172/254/454
f 175/240/455 176/242/455 170/238/455
f 187/256/456 188/260/456 182/257/456
f 189/259/457 186/262/457 182/257/457
f 190/261/458 184/264/458 186/262/458
f 190/261/459 187/271/459 180/263/459
f 179/265/139 183/270/139 185/266/139
f 186/262/140 184/264/140 180/268/140
f 183/270/460 179/579/460 187/271/460
f 185/266/461 183/270/461 190/261/461
f 185/266/462 189/259/462 188/260/462
f 181/272/463 188/260/463 187/256/463
f 222/580/464 191/581/464 192/582/464
f 192/582/175 193/583/175 194/584/175
f 194/584/175 195/585/175 196/586/175
f 196/586/175 197/587/175 194/584/175
f 197/587/175 198/306/175 194/584/175
f 198/306/175 199/588/175 200/589/175
f 200/589/175 201/590/175 198/306/175
f 201/590/175 202/591/175 198/306/175
f 202/591/465 203/592/465 204/593/465
f 204/593/175 205/594/175 202/591/175
f 205/594/175 206/307/175 202/591/175
f 206/307/465 207/595/465 208/596/465
f 208/596/464 209/597/464 206/307/464
f 209/597/175 210/598/175 206/307/175
f 210/598/175 211/599/175 212/600/175
f 212/600/175 213/601/175 214/308/175
f 214/308/465 215/602/465 216/603/465
f 216/603/175 217/604/175 214/308/175
f 217/604/465 218/605/465 214/308/465
f 218/605/465 219/606/465 220/607/465
f 220/607/175 221/608/175 218/605/175
f 221/608/175 222/580/175 218/605/175
f 222/580/175 192/582/175 198/306/175
f 192/582/175 194/584/175 198/306/175
f 210/598/175 212/600/175 206/307/175
f 212/600/175 214/308/175 206/307/175
f 198/306/175 202/591/175 206/307/175
f 214/308/175 218/605/175 222/580/175
f 222/580/175 198/306/175 214/308/175
f 255/343/466 224/609/466 225/610/466
f 225/610/467 226/611/467 227/612/467
f 227/612/208 228/613/208 229/614/208
f 229/614/208 230/615/208 227/612/208
f 230/615/468 231/616/468 227/612/468
f 231/616/208 232/617/208 233/618/208
f 233/618/468 234/619/468 231/616/468
f 234/619/468 235/620/468 231/616/468
f 235/620/208 236/621/208 237/622/208
f 237/622/469 238/623/469 239/344/469
f 239/344/468 240/624/468 241/625/468
f 241/625/467 242/626/467 239/344/467
f 242/626/208 243/627/208 239/344/208
f 243/627/468 244/628/468 247/629/468
f 244/628/208 245/630/208 247/629/208
f 245/630/468 246/631/468 247/629/468
f 247/629/468 248/632/468 251/342/468
f 248/632/468 249/633/468 251/342/468
f 249/633/468 250/634/468 251/342/468
f 251/342/208 252/635/208 253/636/208
f 253/636/469 254/637/469 251/342/469
f 254/637/467 255/343/467 251/342/467
f 255/343/208 225/610/208 227/612/208
f 235/620/208 237/622/208 231/616/208
f 237/622/208 239/344/208 231/616/208
f 255/343/215 227/612/215 239/344/215
f 227/612/208 231/616/208 239/344/208
f 239/344/208 243/627/208 247/629/208
f 247/629/208 251/342/208 239/344/208
f 288/638/467 257/639/467 258/640/467
f 258/640/469 259/641/469 260/642/469
f 260/642/208 261/643/208 264/378/208
f 261/643/468 262/644/468 264/378/468
f 262/644/208 263/645/208 264/378/208
f 264/378/468 265/646/468 268/647/468
f 265/646/468 266/648/468 268/647/468
f 266/648/469 267/649/469 268/647/469
f 268/647/470 269/650/470 270/651/470
f 270/651/208 271/652/208 268/647/208
f 271/652/468 272/379/468 268/647/468
f 272/379/208 273/653/208 276/654/208
f 273/653/468 274/655/468 276/654/468
f 274/655/470 275/656/470 276/654/470
f 276/654/208 277/657/208 278/658/208
f 278/658/208 279/659/208 280/380/208
f 280/380/215 281/660/215 282/661/215
f 282/661/208 283/662/208 280/380/208
f 283/662/468 284/663/468 280/380/468
f 284/663/208 285/664/208 288/638/208
f 285/664/208 286/665/208 288/638/208
f 286/665/467 287/666/467 288/638/467
f 288/638/467 258/640/467 264/378/467
f 258/640/468 260/642/468 264/378/468
f 276/654/467 278/658/467 272/379/467
f 278/658/215 280/380/215 272/379/215
f 264/378/208 268/647/208 272/379/208
f 280/380/208 284/663/208 288/638/208
f 288/638/208 264/378/208 280/380/208
f 321/415/469 290/667/469 291/668/469
f 291/668/215 292/669/215 293/670/215
f 293/670/468 294/671/468 297/672/468
f 294/671/467 295/673/467 297/672/467
f 295/673/470 296/674/470 297/672/470
f 297/672/208 298/675/208 301/676/208
f 298/675/208 299/677/208 301/676/208
f 299/677/467 300/678/467 301/676/467
f 301/676/469 302/679/469 303/680/469
f 303/680/467 304/681/467 301/676/467
f 304/681/208 305/416/208 301/676/208
f 305/416/471 306/682/471 307/683/471
f 307/683/467 308/684/467 305/416/467
f 308/684/208 309/685/208 305/416/208
f 309/685/470 310/686/470 311/687/470
f 311/687/468 312/688/468 309/685/468
f 312/688/470 313/689/470 309/685/470
f 313/689/468 314/690/468 315/691/468
f 315/691/208 316/692/208 317/414/208
f 317/414/467 318/693/467 319/694/467
f 319/694/469 320/695/469 317/414/469
f 320/695/468 321/415/468 317/414/468
f 321/415/208 291/668/208 297/672/208
f 291/668/208 293/670/208 297/672/208
f 313/689/208 315/691/208 317/414/208
f 297/672/208 301/676/208 321/415/208
f 301/676/208 305/416/208 321/415/208
f 305/416/208 309/685/208 313/689/208
f 313/689/208 317/414/208 305/416/208
f 354/450/246 323/696/246 326/697/246
f 323/696/472 324/698/472 326/697/472
f 324/698/473 325/699/473 326/697/473
f 326/697/246 327/700/246 330/451/246
f 327/700/246 328/701/246 330/451/246
f 328/701/474 329/702/474 330/451/474
f 330/451/475 331/703/475 332/704/475
f 332/704/246 333/705/246 330/451/246
f 333/705/246 334/706/246 330/451/246
f 334/706/472 335/707/472 336/708/472
f 336/708/246 337/709/246 334/706/246
f 337/709/246 338/452/246 334/706/246
f 338/452/246 339/710/246 340/711/246
f 340/711/246 341/712/246 342/713/246
f 342/713/472 343/714/472 344/715/472
f 344/715/246 345/716/246 342/713/246
f 345/716/246 346/717/246 342/713/246
f 346/717/246 347/718/246 348/719/246
f 348/719/475 349/720/475 350/721/475
f 350/721/473 351/722/473 354/450/473
f 351/722/246 352/723/246 354/450/246
f 352/723/246 353/724/246 354/450/246
f 338/452/246 340/711/246 342/713/246
f 346/717/246 348/719/246 354/450/246
f 348/719/246 350/721/246 354/450/246
f 354/450/246 326/697/246 330/451/246
f 330/451/246 334/706/246 338/452/246
f 338/452/246 342/713/246 354/450/246
f 342/713/246 346/717/246 354/450/246
f 387/488/476 356/725/476 357/726/476
f 357/726/476 358/727/476 359/728/476
f 359/728/279 360/729/279 363/730/279
f 360/729/279 361/731/279 363/730/279
f 361/731/279 362/732/279 363/730/279
f 363/730/279 364/733/279 367/734/279
f 364/733/279 365/735/279 367/734/279
f 365/735/279 366/736/279 367/734/279
f 367/734/476 368/737/476 369/738/476
f 369/738/279 370/739/279 367/734/279
f 370/739/279 371/486/279 367/734/279
f 371/486/279 372/740/279 373/741/279
f 373/741/476 374/742/476 371/486/476
f 374/742/279 375/743/279 371/486/279
f 375/743/279 376/744/279 377/745/279
f 377/745/476 378/746/476 375/743/476
f 378/746/279 379/487/279 375/743/279
f 379/487/279 380/747/279 381/748/279
f 381/748/279 382/749/279 383/750/279
f 383/750/279 384/751/279 385/752/279
f 385/752/279 386/753/279 383/750/279
f 386/753/279 387/488/279 383/750/279
f 387/488/279 357/726/279 363/730/279
f 357/726/279 359/728/279 363/730/279
f 379/487/279 381/748/279 383/750/279
f 363/730/279 367/734/279 371/486/279
f 371/486/279 375/743/279 379/487/279
f 379/487/279 383/750/279 387/488/279
f 387/488/279 363/730/279 371/486/279
f 420/523/312 389/754/312 390/755/312
f 390/755/312 391/756/312 420/523/312
f 391/756/477 392/757/477 420/523/477
f 392/757/478 393/758/478 394/759/478
f 394/759/478 395/760/478 396/761/478
f 396/761/312 397/762/312 398/763/312
f 398/763/478 399/764/478 396/761/478
f 399/764/312 400/765/312 396/761/312
f 400/765/478 401/766/478 404/524/478
f 401/766/478 402/767/478 404/524/478
f 402/767/478 403/768/478 404/524/478
f 404/524/477 405/769/477 406/770/477
f 406/770/479 407/771/479 404/524/479
f 407/771/477 408/772/477 404/524/477
f 408/772/478 409/773/478 410/774/478
f 410/774/312 411/775/312 412/776/312
f 412/776/478 413/777/478 414/778/478
f 414/778/312 415/779/312 412/776/312
f 415/779/312 416/522/312 412/776/312
f 416/522/477 417/780/477 418/781/477
f 418/781/478 419/782/478 416/522/478
f 419/782/312 420/523/312 416/522/312
f 392/757/312 394/759/312 396/761/312
f 408/772/312 410/774/312 404/524/312
f 410/774/312 412/776/312 404/524/312
f 420/523/312 392/757/312 404/524/312
f 392/757/312 396/761/312 404/524/312
f 396/761/312 400/765/312 404/524/312
f 412/776/312 416/522/312 404/524/312
f 453/560/345 422/783/345 423/784/345
f 423/784/345 424/785/345 453/560/345
f 424/785/345 425/786/345 453/560/345
f 425/786/480 426/787/480 427/788/480
f 427/788/345 428/789/345 425/786/345
f 428/789/345 429/790/345 425/786/345
f 429/790/345 430/791/345 431/792/345
f 431/792/345 432/793/345 429/790/345
f 432/793/345 433/794/345 429/790/345
f 433/794/345 434/795/345 435/796/345
f 435/796/345 436/797/345 433/794/345
f 436/797/345 437/558/345 433/794/345
f 437/558/480 438/798/480 439/799/480
f 439/799/345 440/800/345 437/558/345
f 440/800/345 441/801/345 437/558/345
f 441/801/480 442/802/480 445/559/480
f 442/802/481 443/803/481 445/559/481
f 443/803/345 444/804/345 445/559/345
f 445/559/345 446/805/345 447/806/345
f 447/806/345 448/807/345 449/808/345
f 449/808/345 450/809/345 451/810/345
f 451/810/345 452/811/345 453/560/345
f 445/559/345 447/806/345 453/560/345
f 447/806/345 449/808/345 453/560/345
f 449/808/345 451/810/345 453/560/345
f 453/560/345 425/786/345 437/558/345
f 425/786/345 429/790/345 437/558/345
f 429/790/345 433/794/345 437/558/345
f 437/558/345 441/801/345 445/559/345
