# Blender 5.1.1
# www.blender.org
mtllib Player.mtl
o Cube
v 0.250000 0.282343 -0.250000
v 0.287725 -0.272264 -0.302472
v 0.250000 0.282343 0.250000
v 0.287725 -0.272264 0.302472
v -0.250000 0.282343 -0.250000
v -0.287725 -0.272264 -0.302472
v -0.250000 0.282343 0.250000
v -0.287725 -0.272264 0.302472
v -0.339231 -0.249663 -0.148325
v -0.365103 -0.250968 -0.000000
v -0.339231 -0.249663 0.148325
v 0.148325 -0.251755 -0.333439
v -0.000000 -0.251994 -0.359343
v -0.148325 -0.251755 -0.333439
v 0.286466 0.180668 -0.286466
v 0.236708 0.032343 -0.304784
v 0.246594 -0.175444 -0.258524
v -0.246594 -0.175444 0.258524
v -0.227318 0.032343 0.283657
v -0.286466 0.180668 0.286466
v 0.286466 0.180668 0.286466
v 0.227318 0.032343 0.283657
v 0.246594 -0.175444 0.258524
v -0.286466 0.180668 -0.286466
v -0.236708 0.032343 -0.304784
v -0.246594 -0.175444 -0.258524
v 0.148325 0.318809 0.286466
v 0.000000 0.583608 0.180370
v -0.148325 0.318809 0.286466
v 0.286466 0.318809 -0.148325
v 0.304784 0.337126 0.000000
v 0.286466 0.318809 0.148325
v -0.148325 -0.251755 0.333439
v -0.000000 -0.251994 0.359343
v 0.148325 -0.251755 0.333439
v -0.286466 0.318809 0.148325
v -0.304784 0.337126 -0.000000
v -0.286466 0.318809 -0.148325
v -0.148325 0.318809 -0.286466
v 0.000000 0.337126 -0.304784
v 0.148325 0.318809 -0.286466
v 0.339231 -0.249663 0.148325
v 0.365103 -0.250968 -0.000000
v 0.339231 -0.249663 -0.148325
v 0.158079 0.396837 -0.158079
v 0.000000 0.423257 -0.166570
v -0.158079 0.396838 -0.158079
v 0.166570 0.423257 0.000000
v -0.000000 0.452096 -0.000000
v -0.166570 0.423257 -0.000000
v 0.158079 0.396838 0.158079
v -0.000000 0.423257 0.166570
v -0.158079 0.396837 0.158079
v 0.158079 -0.105474 0.299179
v 0.166570 0.032343 0.390914
v 0.158079 0.190421 0.364495
v -0.000000 -0.093026 0.323981
v 0.000000 0.032343 0.419753
v 0.000000 0.198913 0.390914
v -0.158079 -0.105474 0.299179
v -0.166570 0.032343 0.390914
v -0.158079 0.190421 0.364495
v -0.311019 -0.102096 0.158079
v -0.320365 0.163262 0.166570
v -0.441438 0.268277 0.101740
v -0.336312 -0.090679 -0.000000
v -0.335412 0.138659 -0.000000
v -0.462467 0.250169 -0.000000
v -0.311019 -0.102096 -0.158079
v -0.320365 0.163262 -0.166570
v -0.441438 0.268277 -0.098923
v -0.158079 -0.112432 -0.158079
v 0.000000 -0.138851 -0.166570
v 0.158079 -0.112432 -0.158079
v -0.166570 -0.380638 0.000000
v 0.000000 -0.167690 0.000000
v 0.166570 -0.380638 0.000000
v -0.158079 -0.112432 0.158079
v 0.000000 -0.138851 0.166570
v 0.158079 -0.112432 0.158079
v 0.311019 -0.102096 -0.158079
v 0.320365 0.163262 -0.166570
v 0.441438 0.268277 -0.098923
v 0.336312 -0.090679 -0.000000
v 0.335412 0.138659 -0.000000
v 0.462467 0.250169 -0.000000
v 0.311019 -0.102096 0.158079
v 0.320365 0.163262 0.166570
v 0.441438 0.268277 0.101740
v -0.158079 -0.105474 -0.299179
v -0.166570 0.032343 -0.294669
v -0.158079 0.181031 -0.477172
v -0.000000 -0.093026 -0.323981
v 0.000000 0.032343 -0.323508
v 0.000000 0.189523 -0.503592
v 0.158079 -0.105474 -0.299179
v 0.166570 0.032343 -0.294669
v 0.158079 0.181031 -0.477172
vn 0.1681 0.9708 -0.1713
vn -0.1713 0.9708 -0.1681
vn 0.1681 0.9708 0.1713
vn -0.1713 0.9708 0.1681
vn 0.4896 0.7501 -0.4446
vn 0.1678 0.8367 -0.5213
vn -0.1677 0.8367 -0.5214
vn -0.4446 0.7501 -0.4896
vn -0.5213 0.8367 -0.1678
vn -0.5213 0.8367 0.1678
vn -0.4446 0.7501 0.4896
vn -0.6545 0.0648 -0.7533
vn 0.1678 0.8367 0.5213
vn 0.4896 0.7501 0.4446
vn 0.5214 0.8367 0.1677
vn 0.5214 0.8367 -0.1677
vn 0.0860 -0.5557 0.8269
vn 0.1681 0.1713 0.9708
vn -0.0860 -0.5557 0.8269
vn -0.1681 0.1713 0.9708
vn 0.2571 0.4879 0.8342
vn 0.3642 -0.0785 0.9280
vn 0.8630 0.1280 0.4888
vn 0.4896 0.4446 0.7501
vn 0.1678 0.5213 0.8367
vn -0.1678 0.5213 0.8367
vn -0.4896 0.4446 0.7501
vn -0.8630 0.1280 0.4888
vn -0.3642 -0.0785 0.9280
vn -0.2571 0.4879 0.8342
vn -0.1677 0.2141 0.9623
vn 0.1677 0.2141 0.9623
vn -0.9874 0.0039 0.1583
vn -0.6954 -0.6992 0.1661
vn -0.9874 0.0039 -0.1583
vn -0.6974 -0.6972 -0.1660
vn -0.8002 0.4942 0.3398
vn -0.8378 0.0117 0.5459
vn -0.8836 -0.3581 0.3018
vn -0.4051 0.6465 0.6465
vn -0.4822 0.8743 -0.0560
vn -0.4821 0.8742 0.0575
vn -0.4149 0.6434 -0.6434
vn -0.9155 -0.2703 -0.2981
vn -0.8623 -0.0706 -0.5015
vn -0.8002 0.4942 -0.3398
vn -0.9703 0.1743 -0.1677
vn -0.9703 0.1743 0.1677
vn 0.5561 -0.4350 -0.7082
vn 0.1713 -0.9708 -0.1681
vn 0.5561 -0.4350 0.7082
vn 0.1713 -0.9708 0.1681
vn 0.5853 -0.7510 0.3057
vn -0.0976 -0.7819 0.6158
vn -0.0867 -0.8592 0.5043
vn -0.2464 -0.7521 0.6112
vn -0.3258 -0.4877 -0.8099
vn -0.3258 -0.4877 0.8099
vn -0.2464 -0.7521 -0.6112
vn -0.0867 -0.8592 -0.5043
vn -0.0976 -0.7819 -0.6158
vn 0.5853 -0.7510 -0.3057
vn -0.5440 -0.8329 0.1022
vn -0.5440 -0.8329 -0.1022
vn 0.9874 0.0039 -0.1583
vn 0.6974 -0.6972 -0.1660
vn 0.9874 0.0039 0.1583
vn 0.6954 -0.6992 0.1661
vn 0.8002 0.4942 -0.3398
vn 0.8623 -0.0706 -0.5015
vn 0.9155 -0.2703 -0.2981
vn 0.4149 0.6434 -0.6434
vn 0.4821 0.8742 0.0575
vn 0.4822 0.8743 -0.0560
vn 0.4051 0.6465 0.6465
vn 0.8836 -0.3581 0.3018
vn 0.8378 0.0117 0.5459
vn 0.8002 0.4942 0.3398
vn 0.9703 0.1743 0.1677
vn 0.9703 0.1743 -0.1677
vn -0.1567 0.0227 -0.9874
vn -0.1092 -0.7681 -0.6309
vn 0.1567 0.0227 -0.9874
vn 0.1092 -0.7681 -0.6309
vn -0.2571 0.4879 -0.8342
vn -0.2769 -0.1962 -0.9406
vn 0.1407 0.1677 -0.9757
vn -0.6388 0.6388 -0.4288
vn -0.1413 0.7948 -0.5901
vn 0.1413 0.7948 -0.5901
vn 0.6388 0.6388 -0.4288
vn -0.1407 0.1677 -0.9757
vn 0.2769 -0.1962 -0.9406
vn 0.2571 0.4879 -0.8342
vn 0.1677 0.2141 -0.9623
vn -0.1677 0.2141 -0.9623
vn 0.1713 0.9708 -0.1681
vn -0.1681 0.9708 -0.1713
vn 0.1713 0.9708 0.1681
vn -0.1681 0.9708 0.1713
vn 0.4446 0.7501 -0.4896
vn 0.1677 0.8367 -0.5214
vn -0.1678 0.8367 -0.5213
vn -0.4896 0.7501 -0.4446
vn -0.5214 0.8367 -0.1677
vn -0.5214 0.8367 0.1677
vn -0.4896 0.7501 0.4446
vn -0.1678 0.8367 0.5213
vn 0.6545 0.0648 -0.7533
vn 0.4446 0.7501 0.4896
vn 0.5213 0.8367 0.1678
vn 0.5213 0.8367 -0.1678
vn 0.1363 -0.6014 0.7872
vn 0.1713 0.1681 0.9708
vn -0.1363 -0.6014 0.7872
vn -0.1713 0.1681 0.9708
vn 0.5151 0.1627 0.8415
vn 0.8129 -0.3566 0.4604
vn 0.4955 -0.2135 0.8420
vn 0.4446 0.4896 0.7501
vn 0.2238 0.4679 0.8550
vn -0.2238 0.4679 0.8550
vn -0.4446 0.4896 0.7501
vn -0.4955 -0.2135 0.8420
vn -0.8129 -0.3566 0.4604
vn -0.5151 0.1627 0.8415
vn -0.1678 0.2142 0.9623
vn 0.1678 0.2142 0.9623
vn -0.9947 -0.0381 0.0955
vn -0.6368 -0.7256 0.2608
vn -0.9947 -0.0381 -0.0955
vn -0.6356 -0.7242 -0.2677
vn -0.7968 0.1131 0.5936
vn -0.8071 -0.0473 0.5885
vn -0.7112 -0.6386 0.2938
vn -0.7844 0.4386 0.4386
vn -0.3485 0.9240 0.1572
vn -0.3511 0.9230 -0.1574
vn -0.7844 0.4386 -0.4386
vn -0.7147 -0.6345 -0.2942
vn -0.8734 -0.0463 -0.4848
vn -0.7968 0.1131 -0.5936
vn -0.9703 0.1744 -0.1678
vn -0.9703 0.1744 0.1678
vn -0.1713 -0.9708 -0.1681
vn -0.5561 -0.4350 -0.7082
vn -0.1713 -0.9708 0.1681
vn -0.5561 -0.4350 0.7082
vn 0.2464 -0.7521 0.6112
vn 0.0867 -0.8592 0.5043
vn 0.0976 -0.7819 0.6158
vn -0.5853 -0.7510 0.3057
vn 0.5440 -0.8329 -0.1022
vn 0.5440 -0.8329 0.1022
vn -0.5853 -0.7510 -0.3057
vn 0.0976 -0.7819 -0.6158
vn 0.0867 -0.8592 -0.5043
vn 0.2464 -0.7521 -0.6112
vn 0.3258 -0.4877 0.8099
vn 0.3258 -0.4877 -0.8099
vn 0.9947 -0.0381 -0.0955
vn 0.6356 -0.7242 -0.2677
vn 0.9947 -0.0381 0.0955
vn 0.6368 -0.7256 0.2608
vn 0.7968 0.1131 -0.5936
vn 0.8734 -0.0463 -0.4848
vn 0.7147 -0.6345 -0.2942
vn 0.7844 0.4386 -0.4386
vn 0.3511 0.9230 -0.1574
vn 0.3485 0.9240 0.1572
vn 0.7844 0.4386 0.4386
vn 0.7112 -0.6386 0.2938
vn 0.8071 -0.0473 0.5885
vn 0.7968 0.1131 0.5936
vn 0.9703 0.1744 0.1678
vn 0.9703 0.1744 -0.1678
vn -0.1706 0.0037 -0.9853
vn -0.0693 -0.7516 -0.6560
vn 0.1706 0.0037 -0.9853
vn 0.0693 -0.7516 -0.6560
vn -0.5151 0.1627 -0.8415
vn 0.1426 0.0411 -0.9889
vn -0.6985 -0.5385 -0.4713
vn -0.4386 0.4386 -0.7844
vn -0.1697 0.8029 -0.5714
vn 0.1697 0.8029 -0.5714
vn 0.4386 0.4386 -0.7844
vn 0.6985 -0.5385 -0.4713
vn -0.1426 0.0411 -0.9889
vn 0.5151 0.1627 -0.8415
vn 0.1678 0.2142 -0.9623
vn -0.1678 0.2142 -0.9623
vt 0.295051 0.563408
vt 0.187390 0.574032
vt 0.245981 0.516863
vt 0.216651 0.681609
vt 0.255881 0.620913
vt 0.202760 0.455109
vt 0.073264 0.620602
vt 0.088368 0.497545
vt 0.370493 0.547813
vt 0.332869 0.517001
vt 0.352106 0.598763
vt 0.276231 0.718316
vt 0.318114 0.660674
vt 0.239705 0.758826
vt 0.187012 0.744801
vt 0.149466 0.650233
vt 0.057137 0.690657
vt 0.012018 0.671911
vt 0.005656 0.623672
vt 0.004493 0.430049
vt 0.193908 0.389708
vt 0.243577 0.387832
vt 0.262613 0.430456
vt 0.294681 0.476788
vt 0.266702 0.263431
vt 0.259340 0.170773
vt 0.324467 0.218086
vt 0.230136 0.314585
vt 0.215821 0.226583
vt 0.167134 0.186244
vt 0.197811 0.120240
vt 0.125643 0.235351
vt 0.386843 0.222233
vt 0.363245 0.154310
vt 0.425411 0.180879
vt 0.308085 0.292092
vt 0.276589 0.352414
vt 0.194870 0.369161
vt 0.176327 0.278058
vt 0.083194 0.286549
vt 0.049825 0.245849
vt 0.071255 0.197796
vt 0.128449 0.151919
vt 0.179832 0.064092
vt 0.248305 0.066176
vt 0.202883 0.015508
vt 0.307319 0.108205
vt 0.718744 0.894302
vt 0.592364 0.852934
vt 0.692613 0.821629
vt 0.542322 0.899867
vt 0.598451 0.925987
vt 0.674417 0.744932
vt 0.524815 0.843709
vt 0.555312 0.790184
vt 0.765522 0.942412
vt 0.785697 0.868455
vt 0.819335 0.938455
vt 0.672500 0.979969
vt 0.596775 0.983648
vt 0.508047 0.953967
vt 0.473475 0.889954
vt 0.536218 0.870628
vt 0.466246 0.817579
vt 0.522274 0.744970
vt 0.579337 0.694825
vt 0.688390 0.673860
vt 0.745815 0.731933
vt 0.742933 0.653995
vt 0.767720 0.799652
vt 0.716866 0.224612
vt 0.622419 0.203336
vt 0.694031 0.142002
vt 0.626671 0.300327
vt 0.674378 0.265699
vt 0.615926 0.106762
vt 0.527314 0.184152
vt 0.568830 0.142404
vt 0.819335 0.231519
vt 0.783088 0.159160
vt 0.778751 0.289067
vt 0.678375 0.372670
vt 0.735420 0.339026
vt 0.614276 0.401763
vt 0.551224 0.352209
vt 0.551013 0.264367
vt 0.464635 0.250379
vt 0.463874 0.122085
vt 0.505797 0.070916
vt 0.561759 0.035767
vt 0.624816 0.004493
vt 0.690741 0.051379
vt 0.755017 0.089754
vt 0.500835 0.405664
vt 0.373805 0.413395
vt 0.447981 0.351841
vt 0.346556 0.465998
vt 0.401175 0.473888
vt 0.404313 0.291380
vt 0.316065 0.428017
vt 0.320877 0.374590
vt 0.566706 0.434368
vt 0.487168 0.509528
vt 0.415925 0.524479
vt 0.333658 0.445437
vt 0.500656 0.307276
vt 0.574792 0.661790
vt 0.599026 0.568350
vt 0.635803 0.639531
vt 0.493049 0.669754
vt 0.546588 0.594669
vt 0.510236 0.532336
vt 0.563671 0.496741
vt 0.454933 0.590943
vt 0.699601 0.600554
vt 0.431915 0.729396
vt 0.388024 0.671351
vt 0.472401 0.630919
vt 0.370399 0.600711
vt 0.632451 0.468129
vt 0.669392 0.532662
vt 0.120610 0.720325
vt 0.061011 0.432654
vt 0.543480 0.995507
vt 0.472413 0.764373
s 0
usemtl Material
f 45/1/1 49/2/1 48/3/1
f 47/4/2 49/2/2 46/5/2
f 49/2/3 51/6/3 48/3/3
f 49/2/4 53/7/4 52/8/4
f 1/9/5 45/1/5 30/10/5
f 41/11/6 46/5/6 45/1/6
f 39/12/7 46/5/7 40/13/7
f 5/14/8 47/4/8 39/12/8
f 38/15/9 50/16/9 47/4/9
f 50/16/10 36/17/10 53/7/10
f 53/7/11 7/18/11 29/19/11
f 52/8/12 29/19/12 28/20/12
f 52/8/13 27/21/13 51/6/13
f 51/6/14 3/22/14 32/23/14
f 48/3/15 32/23/15 31/24/15
f 30/10/16 48/3/16 31/24/16
f 55/25/17 57/26/17 54/27/17
f 56/28/18 58/29/18 55/25/18
f 57/26/19 61/30/19 60/31/19
f 58/29/20 62/32/20 61/30/20
f 23/33/21 35/34/21 4/35/21
f 22/36/22 54/27/22 23/33/22
f 22/36/23 56/28/23 55/25/23
f 3/22/24 56/28/24 21/37/24
f 27/38/25 59/39/25 56/28/25
f 59/39/26 29/40/26 62/32/26
f 62/32/27 7/41/27 20/42/27
f 62/32/28 19/43/28 61/30/28
f 60/31/29 19/43/29 18/44/29
f 33/45/30 18/44/30 8/46/30
f 57/26/31 33/45/31 34/47/31
f 35/34/32 57/26/32 34/47/32
f 63/48/33 67/49/33 66/50/33
f 65/51/34 67/49/34 64/52/34
f 67/49/35 69/53/35 66/50/35
f 67/49/36 71/54/36 70/55/36
f 18/56/37 11/57/37 8/58/37
f 19/59/38 63/48/38 18/56/38
f 20/60/39 64/52/39 19/59/39
f 20/60/40 36/61/40 65/51/40
f 65/51/41 37/62/41 68/63/41
f 37/62/42 71/54/42 68/63/42
f 38/64/43 24/65/43 71/54/43
f 70/55/44 24/65/44 25/66/44
f 69/53/45 25/66/45 26/67/45
f 9/68/46 26/67/46 6/69/46
f 66/50/47 9/68/47 10/70/47
f 11/57/48 66/50/48 10/70/48
f 72/71/49 76/72/49 75/73/49
f 74/74/50 76/72/50 73/75/50
f 76/72/51 78/76/51 75/73/51
f 76/72/52 80/77/52 79/78/52
f 6/79/53 72/71/53 9/80/53
f 14/81/54 73/75/54 72/71/54
f 12/82/55 73/75/55 13/83/55
f 2/84/56 74/74/56 12/82/56
f 44/85/57 77/86/57 74/74/57
f 77/86/58 42/87/58 80/77/58
f 80/77/59 4/35/59 35/88/59
f 79/78/60 35/88/60 34/89/60
f 79/78/61 33/90/61 78/76/61
f 78/76/62 8/91/62 11/92/62
f 75/73/63 11/92/63 10/93/63
f 9/80/64 75/73/64 10/93/64
f 81/94/65 85/95/65 84/96/65
f 83/97/66 85/95/66 82/98/66
f 85/95/67 87/99/67 84/96/67
f 85/95/68 89/100/68 88/101/68
f 17/102/69 44/85/69 2/84/69
f 16/103/70 81/94/70 17/102/70
f 15/104/71 82/98/71 16/103/71
f 15/104/72 30/10/72 83/97/72
f 83/97/73 31/24/73 86/105/73
f 31/24/74 89/100/74 86/105/74
f 32/23/75 21/37/75 89/100/75
f 88/101/76 21/37/76 22/36/76
f 87/99/77 22/36/77 23/33/77
f 42/87/78 23/33/78 4/35/78
f 84/96/79 42/87/79 43/106/79
f 44/85/80 84/96/80 43/106/80
f 91/107/81 93/108/81 90/109/81
f 92/110/82 94/111/82 91/107/82
f 93/108/83 97/112/83 96/113/83
f 94/111/84 98/114/84 97/112/84
f 26/67/85 14/115/85 6/69/85
f 25/66/86 90/109/86 26/67/86
f 24/65/87 91/107/87 25/66/87
f 24/65/88 39/116/88 92/110/88
f 92/110/89 40/117/89 95/118/89
f 40/117/90 98/114/90 95/118/90
f 41/119/91 15/104/91 98/114/91
f 97/112/92 15/104/92 16/103/92
f 96/113/93 16/103/93 17/102/93
f 12/120/94 17/102/94 2/84/94
f 93/108/95 12/120/95 13/121/95
f 14/115/96 93/108/96 13/121/96
f 45/1/97 46/5/97 49/2/97
f 47/4/98 50/16/98 49/2/98
f 49/2/99 52/8/99 51/6/99
f 49/2/100 50/16/100 53/7/100
f 1/9/101 41/11/101 45/1/101
f 41/11/102 40/13/102 46/5/102
f 39/12/103 47/4/103 46/5/103
f 5/14/104 38/15/104 47/4/104
f 38/15/105 37/122/105 50/16/105
f 50/16/106 37/122/106 36/17/106
f 53/7/107 36/17/107 7/18/107
f 52/8/108 53/7/108 29/19/108
f 52/8/109 28/20/109 27/21/109
f 51/6/110 27/21/110 3/22/110
f 48/3/111 51/6/111 32/23/111
f 30/10/112 45/1/112 48/3/112
f 55/25/113 58/29/113 57/26/113
f 56/28/114 59/39/114 58/29/114
f 57/26/115 58/29/115 61/30/115
f 58/29/116 59/39/116 62/32/116
f 23/33/117 54/27/117 35/34/117
f 22/36/118 55/25/118 54/27/118
f 22/36/119 21/37/119 56/28/119
f 3/22/120 27/38/120 56/28/120
f 27/38/121 28/123/121 59/39/121
f 59/39/122 28/123/122 29/40/122
f 62/32/123 29/40/123 7/41/123
f 62/32/124 20/42/124 19/43/124
f 60/31/125 61/30/125 19/43/125
f 33/45/126 60/31/126 18/44/126
f 57/26/127 60/31/127 33/45/127
f 35/34/128 54/27/128 57/26/128
f 63/48/129 64/52/129 67/49/129
f 65/51/130 68/63/130 67/49/130
f 67/49/131 70/55/131 69/53/131
f 67/49/132 68/63/132 71/54/132
f 18/56/133 63/48/133 11/57/133
f 19/59/134 64/52/134 63/48/134
f 20/60/135 65/51/135 64/52/135
f 20/60/136 7/124/136 36/61/136
f 65/51/137 36/61/137 37/62/137
f 37/62/138 38/64/138 71/54/138
f 38/64/139 5/125/139 24/65/139
f 70/55/140 71/54/140 24/65/140
f 69/53/141 70/55/141 25/66/141
f 9/68/142 69/53/142 26/67/142
f 66/50/143 69/53/143 9/68/143
f 11/57/144 63/48/144 66/50/144
f 72/71/145 73/75/145 76/72/145
f 74/74/146 77/86/146 76/72/146
f 76/72/147 79/78/147 78/76/147
f 76/72/148 77/86/148 80/77/148
f 6/79/149 14/81/149 72/71/149
f 14/81/150 13/83/150 73/75/150
f 12/82/151 74/74/151 73/75/151
f 2/84/152 44/85/152 74/74/152
f 44/85/153 43/106/153 77/86/153
f 77/86/154 43/106/154 42/87/154
f 80/77/155 42/87/155 4/35/155
f 79/78/156 80/77/156 35/88/156
f 79/78/157 34/89/157 33/90/157
f 78/76/158 33/90/158 8/91/158
f 75/73/159 78/76/159 11/92/159
f 9/80/160 72/71/160 75/73/160
f 81/94/161 82/98/161 85/95/161
f 83/97/162 86/105/162 85/95/162
f 85/95/163 88/101/163 87/99/163
f 85/95/164 86/105/164 89/100/164
f 17/102/165 81/94/165 44/85/165
f 16/103/166 82/98/166 81/94/166
f 15/104/167 83/97/167 82/98/167
f 15/104/168 1/9/168 30/10/168
f 83/97/169 30/10/169 31/24/169
f 31/24/170 32/23/170 89/100/170
f 32/23/171 3/22/171 21/37/171
f 88/101/172 89/100/172 21/37/172
f 87/99/173 88/101/173 22/36/173
f 42/87/174 87/99/174 23/33/174
f 84/96/175 87/99/175 42/87/175
f 44/85/176 81/94/176 84/96/176
f 91/107/177 94/111/177 93/108/177
f 92/110/178 95/118/178 94/111/178
f 93/108/179 94/111/179 97/112/179
f 94/111/180 95/118/180 98/114/180
f 26/67/181 90/109/181 14/115/181
f 25/66/182 91/107/182 90/109/182
f 24/65/183 92/110/183 91/107/183
f 24/65/184 5/125/184 39/116/184
f 92/110/185 39/116/185 40/117/185
f 40/117/186 41/119/186 98/114/186
f 41/119/187 1/9/187 15/104/187
f 97/112/188 98/114/188 15/104/188
f 96/113/189 97/112/189 16/103/189
f 12/120/190 96/113/190 17/102/190
f 93/108/191 96/113/191 12/120/191
f 14/115/192 90/109/192 93/108/192
