# Blender 5.1.1
# www.blender.org
mtllib Sword.mtl
o 立方体
v -0.548516 -0.024040 0.013348
v -0.548516 -0.014476 1.279880
v -0.572993 -0.024040 0.013348
v -0.572993 -0.014476 1.279880
v -0.548516 0.024238 0.012984
v -0.548516 0.033802 1.279516
v -0.572993 0.024238 0.012984
v -0.572993 0.033802 1.279516
v -0.572993 0.000099 0.013166
v -0.560755 0.010234 1.355320
v -0.548516 0.000099 0.013166
v -0.560754 -0.043705 0.013497
v -0.560754 -0.034141 1.280039
v -0.560754 0.043904 0.012835
v -0.560755 0.053467 1.279377
v -0.560754 0.000099 0.013166
v -0.572993 0.009663 1.279698
v -0.548516 0.009663 1.279698
v -0.599810 0.158837 0.014087
v -0.599810 0.158606 -0.016484
v -0.521699 0.158837 0.014087
v -0.521699 0.158606 -0.016484
v -0.599810 -0.158606 0.016484
v -0.599810 -0.158837 -0.014087
v -0.521699 -0.158606 0.016484
v -0.521699 -0.158837 -0.014087
v -0.578754 -0.001610 -0.213210
v -0.578754 -0.000100 -0.013216
v -0.578409 0.001902 -0.213237
v -0.578409 0.003412 -0.013243
v -0.577384 0.005278 -0.213262
v -0.577384 0.006788 -0.013268
v -0.575721 0.008390 -0.213286
v -0.575721 0.009900 -0.013292
v -0.573482 0.011118 -0.213307
v -0.573482 0.012628 -0.013312
v -0.570755 0.013356 -0.213323
v -0.570755 0.014866 -0.013329
v -0.567643 0.015019 -0.213336
v -0.567643 0.016530 -0.013342
v -0.564266 0.016044 -0.213344
v -0.564266 0.017554 -0.013349
v -0.560754 0.016390 -0.213346
v -0.560754 0.017900 -0.013352
v -0.557243 0.016044 -0.213344
v -0.557243 0.017554 -0.013349
v -0.553866 0.015019 -0.213336
v -0.553866 0.016530 -0.013342
v -0.550754 0.013356 -0.213323
v -0.550754 0.014866 -0.013329
v -0.548027 0.011118 -0.213307
v -0.548027 0.012628 -0.013312
v -0.545788 0.008390 -0.213286
v -0.545788 0.009900 -0.013292
v -0.544125 0.005278 -0.213262
v -0.544125 0.006788 -0.013268
v -0.543100 0.001902 -0.213237
v -0.543100 0.003412 -0.013243
v -0.542754 -0.001610 -0.213210
v -0.542754 -0.000100 -0.013216
v -0.543100 -0.005121 -0.213184
v -0.543100 -0.003611 -0.013190
v -0.544125 -0.008498 -0.213158
v -0.544125 -0.006988 -0.013164
v -0.545788 -0.011610 -0.213135
v -0.545788 -0.010100 -0.013141
v -0.548027 -0.014337 -0.213114
v -0.548027 -0.012827 -0.013120
v -0.550754 -0.016576 -0.213097
v -0.550754 -0.015066 -0.013103
v -0.553866 -0.018239 -0.213085
v -0.553866 -0.016729 -0.013091
v -0.557243 -0.019264 -0.213077
v -0.557243 -0.017753 -0.013083
v -0.560754 -0.019609 -0.213075
v -0.560754 -0.018099 -0.013080
v -0.564266 -0.019264 -0.213077
v -0.564266 -0.017753 -0.013083
v -0.567643 -0.018239 -0.213085
v -0.567643 -0.016729 -0.013091
v -0.570755 -0.016576 -0.213097
v -0.570755 -0.015066 -0.013103
v -0.573482 -0.014337 -0.213114
v -0.573482 -0.012827 -0.013120
v -0.575721 -0.011610 -0.213135
v -0.575721 -0.010100 -0.013141
v -0.577384 -0.008498 -0.213158
v -0.577384 -0.006988 -0.013164
v -0.578409 -0.005121 -0.213184
v -0.578409 -0.003611 -0.013190
vn -0.8490 -0.5284 0.0040
vn -1.0000 -0.0000 -0.0000
vn 0.8490 0.5283 -0.0040
vn 0.8490 0.5284 -0.0040
vn 1.0000 -0.0000 -0.0000
vn -0.0000 -0.0075 -1.0000
vn -0.0000 -0.0076 -1.0000
vn 0.8119 -0.5029 0.2964
vn 0.8119 0.5073 0.2888
vn -0.8119 0.5073 0.2888
vn -0.8119 -0.5029 0.2964
vn -0.8490 0.5283 -0.0040
vn 0.8490 -0.5283 0.0040
vn -0.9872 0.0012 0.1597
vn 0.9872 0.0012 0.1598
vn -0.0000 0.0076 1.0000
vn -0.0000 -1.0000 0.0076
vn -0.0000 1.0000 -0.0076
vn -0.9952 0.0981 -0.0007
vn -0.9569 0.2905 -0.0022
vn -0.8820 0.4713 -0.0036
vn -0.7730 0.6344 -0.0048
vn -0.6344 0.7730 -0.0058
vn -0.4713 0.8819 -0.0067
vn -0.4715 0.8818 -0.0067
vn -0.2902 0.9569 -0.0072
vn -0.2905 0.9569 -0.0072
vn -0.0980 0.9952 -0.0075
vn 0.0981 0.9952 -0.0075
vn 0.2905 0.9569 -0.0072
vn 0.2902 0.9569 -0.0072
vn 0.4715 0.8818 -0.0067
vn 0.4713 0.8819 -0.0067
vn 0.6344 0.7730 -0.0058
vn 0.7730 0.6344 -0.0048
vn 0.8818 0.4715 -0.0036
vn 0.8818 0.4716 -0.0036
vn 0.9569 0.2905 -0.0022
vn 0.9952 0.0980 -0.0007
vn 0.9952 -0.0981 0.0007
vn 0.9569 -0.2904 0.0022
vn 0.8820 -0.4713 0.0036
vn 0.7729 -0.6346 0.0048
vn 0.7729 -0.6345 0.0048
vn 0.6346 -0.7728 0.0058
vn 0.4713 -0.8819 0.0067
vn 0.2902 -0.9569 0.0072
vn 0.2904 -0.9569 0.0072
vn 0.0978 -0.9952 0.0075
vn 0.0981 -0.9952 0.0075
vn -0.0980 -0.9952 0.0075
vn -0.0978 -0.9952 0.0075
vn -0.2905 -0.9569 0.0072
vn -0.2902 -0.9569 0.0072
vn -0.4713 -0.8819 0.0067
vn -0.6346 -0.7728 0.0058
vn -0.7729 -0.6345 0.0048
vn -0.8820 -0.4713 0.0036
vn -0.0001 0.0076 1.0000
vn 0.0001 0.0075 1.0000
vn -0.9569 -0.2904 0.0022
vn -0.9952 -0.0978 0.0007
vn -0.0001 -0.0076 -1.0000
vn -0.0014 0.0078 1.0000
vn -0.0001 0.0075 1.0000
vn -0.0014 0.0073 1.0000
vn -0.0011 0.0068 1.0000
vn 0.0001 0.0076 1.0000
vn 0.0006 0.0083 1.0000
vn -0.0000 0.0078 1.0000
vn -0.0000 0.0075 1.0000
vn -0.0000 0.0082 1.0000
vn 0.0001 0.0074 1.0000
vn -0.0006 0.0083 1.0000
vn 0.0011 0.0068 1.0000
vn 0.0004 0.0075 1.0000
vn -0.0004 0.0075 1.0000
vn 0.0014 0.0078 1.0000
vn 0.0013 0.0084 1.0000
vn -0.0002 0.0074 1.0000
vn -0.0003 0.0060 1.0000
vn -0.0000 0.0074 1.0000
vn 0.0003 0.0060 1.0000
vn 0.0002 0.0074 1.0000
vn -0.0013 0.0084 1.0000
vn -0.0004 -0.0075 -1.0000
vn 0.0004 -0.0077 -1.0000
vn -0.0013 -0.0070 -1.0000
vn 0.0014 -0.0088 -1.0000
vn -0.0004 -0.0071 -1.0000
vn -0.0002 -0.0074 -1.0000
vn -0.0000 -0.0058 -1.0000
vn -0.0000 -0.0077 -1.0000
vn -0.0000 -0.0078 -1.0000
vn -0.0014 -0.0088 -1.0000
vn -0.0006 -0.0080 -1.0000
vn 0.0002 -0.0074 -1.0000
vn 0.0001 -0.0075 -1.0000
vn 0.0014 -0.0075 -1.0000
vn -0.0005 -0.0075 -1.0000
vn 0.0004 -0.0076 -1.0000
vn 0.0001 -0.0076 -1.0000
vn 0.0002 -0.0078 -1.0000
vn 0.0001 -0.0077 -1.0000
vn -0.0004 -0.0065 -1.0000
vn 0.0001 -0.0070 -1.0000
vn -0.0002 -0.0079 -1.0000
vn 0.0005 -0.0065 -1.0000
vn 0.0003 -0.0074 -1.0000
vn -0.0012 -0.0081 -1.0000
vt 0.524606 0.089012
vt 0.516808 0.919255
vt 0.509425 0.089147
vt 0.500986 0.919396
vt 0.477783 0.089428
vt 0.493604 0.089288
vt 0.463007 0.101667
vt 0.440848 0.919537
vt 0.448230 0.089428
vt 0.432409 0.089288
vt 0.409206 0.919255
vt 0.416588 0.089147
vt 0.463007 0.059273
vt 0.447837 0.059388
vt 0.091284 0.468555
vt 0.091284 0.409206
vt 0.105522 0.415895
vt 0.463007 0.919645
vt 0.427089 0.995135
vt 0.447776 0.029345
vt 0.463006 0.004865
vt 0.425027 0.919396
vt 0.478237 0.029345
vt 0.485165 0.919537
vt 0.498924 0.995135
vt 0.129491 0.468555
vt 0.115253 0.415895
vt 0.129491 0.409206
vt 0.478176 0.059388
vt 0.547170 0.918985
vt 0.539787 0.088877
vt 0.501433 0.969605
vt 0.424580 0.969605
vt 0.000000 0.000000
vt 0.081553 0.409206
vt 0.079156 0.545037
vt 0.079156 0.409206
vt 0.076760 0.409206
vt 0.074363 0.545037
vt 0.074363 0.409206
vt 0.071967 0.409206
vt 0.071967 0.545037
vt 0.069571 0.409206
vt 0.067174 0.545037
vt 0.067174 0.409206
vt 0.064778 0.409206
vt 0.064778 0.545037
vt 0.062381 0.409206
vt 0.059985 0.545037
vt 0.059985 0.409206
vt 0.057588 0.545037
vt 0.057588 0.409206
vt 0.055192 0.409206
vt 0.052795 0.545037
vt 0.052795 0.409206
vt 0.050399 0.545037
vt 0.050399 0.409206
vt 0.048002 0.409206
vt 0.045606 0.545037
vt 0.045606 0.409206
vt 0.043209 0.409206
vt 0.040813 0.545037
vt 0.040813 0.409206
vt 0.038416 0.409206
vt 0.036020 0.545037
vt 0.036020 0.409206
vt 0.033623 0.409206
vt 0.033623 0.545037
vt 0.031227 0.409206
vt 0.028830 0.545037
vt 0.028830 0.409206
vt 0.026434 0.409206
vt 0.024037 0.545037
vt 0.024037 0.409206
vt 0.021641 0.409206
vt 0.019244 0.545037
vt 0.019244 0.409206
vt 0.016848 0.409206
vt 0.014451 0.545037
vt 0.014451 0.409206
vt 0.012055 0.545037
vt 0.012055 0.409206
vt 0.009658 0.409206
vt 0.184253 0.433538
vt 0.173285 0.420173
vt 0.186649 0.409206
vt 0.007262 0.545037
vt 0.007262 0.409206
vt 0.004865 0.409206
vt 0.139222 0.420173
vt 0.143633 0.411922
vt 0.152587 0.409206
vt 0.531989 0.919127
vt 0.081553 0.545037
vt 0.076760 0.545037
vt 0.069571 0.545037
vt 0.062381 0.545037
vt 0.055192 0.545037
vt 0.048002 0.545037
vt 0.043209 0.545037
vt 0.038416 0.545037
vt 0.031227 0.545037
vt 0.026434 0.545037
vt 0.021641 0.545037
vt 0.016848 0.545037
vt 0.009658 0.545037
vt 0.181903 0.433070
vt 0.179689 0.432153
vt 0.177696 0.430822
vt 0.176001 0.429127
vt 0.174670 0.427134
vt 0.173753 0.424920
vt 0.173285 0.422570
vt 0.173753 0.417823
vt 0.177696 0.411922
vt 0.174670 0.415609
vt 0.176001 0.413616
vt 0.179689 0.410590
vt 0.181903 0.409673
vt 0.184253 0.409206
vt 0.189000 0.409673
vt 0.194901 0.413616
vt 0.191214 0.410590
vt 0.193207 0.411922
vt 0.196233 0.415609
vt 0.197150 0.417823
vt 0.197617 0.420173
vt 0.197617 0.422570
vt 0.197150 0.424920
vt 0.196233 0.427134
vt 0.194901 0.429127
vt 0.193207 0.430822
vt 0.191214 0.432153
vt 0.189000 0.433070
vt 0.186649 0.433538
vt 0.004866 0.545037
vt 0.154937 0.409673
vt 0.160838 0.413616
vt 0.157151 0.410590
vt 0.159144 0.411922
vt 0.162170 0.415609
vt 0.163087 0.417823
vt 0.163554 0.420174
vt 0.163554 0.422570
vt 0.163087 0.424920
vt 0.162170 0.427134
vt 0.160838 0.429127
vt 0.159144 0.430822
vt 0.157151 0.432153
vt 0.154937 0.433070
vt 0.152587 0.433538
vt 0.150190 0.433538
vt 0.147840 0.433070
vt 0.145626 0.432153
vt 0.143633 0.430822
vt 0.141938 0.429127
vt 0.140607 0.427134
vt 0.139690 0.424920
vt 0.139222 0.422570
vt 0.139690 0.417823
vt 0.140607 0.415609
vt 0.141939 0.413616
vt 0.145626 0.410590
vt 0.147840 0.409673
vt 0.150190 0.409206
s 1
usemtl マテリアル.002
f 12/1/1 4/2/1 3/3/1
f 17/4/2 7/5/2 9/6/2
f 14/7/3 6/8/4 5/9/3
f 11/10/5 2/11/5 1/12/5
f 16/13/6 5/9/7 11/14/6
f 10/15/8 13/16/8 2/17/8
f 15/18/9 10/19/9 6/8/9
f 16/13/6 1/20/7 12/21/7
f 5/9/5 18/22/5 11/10/5
f 4/2/2 9/6/2 3/3/2
f 3/23/7 16/13/6 12/21/7
f 8/24/10 10/25/10 15/18/10
f 10/26/11 4/27/11 13/28/11
f 7/5/7 16/13/6 9/29/6
f 8/24/12 14/7/12 7/5/12
f 2/30/13 12/1/13 1/31/13
f 17/4/14 4/2/14 10/32/14
f 2/11/15 18/22/15 10/33/15
f 8/24/14 17/4/14 10/32/14
f 18/22/15 6/8/15 10/33/15
f 23/34/16 21/34/16 19/34/16
f 22/34/5 25/34/5 26/34/5
f 25/34/17 24/34/17 26/34/17
f 20/34/7 26/34/7 24/34/7
f 19/34/18 22/34/18 20/34/18
f 23/34/2 20/34/2 24/34/2
f 27/35/19 30/36/19 29/37/19
f 30/36/20 31/38/20 29/37/20
f 31/38/21 34/39/21 33/40/21
f 34/39/22 35/41/22 33/40/22
f 36/42/23 37/43/23 35/41/23
f 37/43/24 40/44/25 39/45/24
f 40/44/26 41/46/27 39/45/27
f 42/47/28 43/48/28 41/46/28
f 43/48/29 46/49/29 45/50/29
f 45/50/30 48/51/31 47/52/30
f 48/51/32 49/53/33 47/52/33
f 49/53/34 52/54/34 51/55/34
f 51/55/35 54/56/35 53/57/35
f 54/56/36 55/58/37 53/57/37
f 55/58/38 58/59/38 57/60/38
f 58/59/39 59/61/39 57/60/39
f 59/61/40 62/62/40 61/63/40
f 62/62/41 63/64/41 61/63/41
f 63/64/42 66/65/42 65/66/42
f 66/65/43 67/67/44 65/66/44
f 68/68/45 69/69/45 67/67/45
f 69/69/46 72/70/46 71/71/46
f 72/70/47 73/72/48 71/71/48
f 73/72/49 76/73/50 75/74/49
f 76/73/51 77/75/52 75/74/52
f 77/75/53 80/76/54 79/77/53
f 80/76/55 81/78/55 79/77/55
f 81/78/56 84/79/56 83/80/56
f 83/80/57 86/81/57 85/82/57
f 86/81/58 87/83/58 85/82/58
f 32/84/59 80/85/16 64/86/60
f 87/83/61 90/87/61 89/88/61
f 90/87/62 27/89/62 89/88/62
f 73/90/6 81/91/7 89/92/63
f 12/1/1 13/93/1 4/2/1
f 17/4/2 8/24/2 7/5/2
f 14/7/3 15/18/4 6/8/4
f 11/10/5 18/22/5 2/11/5
f 16/13/6 14/7/7 5/9/7
f 16/13/6 11/14/6 1/20/7
f 5/9/5 6/8/5 18/22/5
f 4/2/2 17/4/2 9/6/2
f 3/23/7 9/29/6 16/13/6
f 7/5/7 14/7/7 16/13/6
f 8/24/12 15/18/12 14/7/12
f 2/30/13 13/93/13 12/1/13
f 23/34/16 25/34/16 21/34/16
f 22/34/5 21/34/5 25/34/5
f 25/34/17 23/34/17 24/34/17
f 20/34/7 22/34/7 26/34/7
f 19/34/18 21/34/18 22/34/18
f 23/34/2 19/34/2 20/34/2
f 27/35/19 28/94/19 30/36/19
f 30/36/20 32/95/20 31/38/20
f 31/38/21 32/95/21 34/39/21
f 34/39/22 36/42/22 35/41/22
f 36/42/23 38/96/23 37/43/23
f 37/43/24 38/96/25 40/44/25
f 40/44/26 42/47/26 41/46/27
f 42/47/28 44/97/28 43/48/28
f 43/48/29 44/97/29 46/49/29
f 45/50/30 46/49/31 48/51/31
f 48/51/32 50/98/32 49/53/33
f 49/53/34 50/98/34 52/54/34
f 51/55/35 52/54/35 54/56/35
f 54/56/36 56/99/36 55/58/37
f 55/58/38 56/99/38 58/59/38
f 58/59/39 60/100/39 59/61/39
f 59/61/40 60/100/40 62/62/40
f 62/62/41 64/101/41 63/64/41
f 63/64/42 64/101/42 66/65/42
f 66/65/43 68/68/43 67/67/44
f 68/68/45 70/102/45 69/69/45
f 69/69/46 70/102/46 72/70/46
f 72/70/47 74/103/47 73/72/48
f 73/72/49 74/103/50 76/73/50
f 76/73/51 78/104/51 77/75/52
f 77/75/53 78/104/54 80/76/54
f 80/76/55 82/105/55 81/78/55
f 81/78/56 82/105/56 84/79/56
f 83/80/57 84/79/57 86/81/57
f 86/81/58 88/106/58 87/83/58
f 32/84/59 30/107/64 28/108/65
f 28/108/65 90/109/66 88/110/65
f 88/110/65 86/111/67 84/112/68
f 84/112/68 82/113/69 80/85/16
f 80/85/16 78/114/70 72/115/71
f 78/114/70 76/116/72 72/115/71
f 76/116/72 74/117/73 72/115/71
f 72/115/71 70/118/74 68/119/71
f 68/119/71 66/120/75 64/86/60
f 64/86/60 62/121/76 56/122/68
f 62/121/76 60/123/77 56/122/68
f 60/123/77 58/124/78 56/122/68
f 56/122/68 54/125/79 52/126/65
f 52/126/65 50/127/80 56/122/68
f 50/127/80 48/128/71 56/122/68
f 48/128/71 46/129/81 44/130/82
f 44/130/82 42/131/83 40/132/16
f 40/132/16 38/133/84 32/84/59
f 38/133/84 36/134/60 32/84/59
f 36/134/60 34/135/85 32/84/59
f 32/84/59 28/108/65 88/110/65
f 88/110/65 84/112/68 32/84/59
f 84/112/68 80/85/16 32/84/59
f 72/115/71 68/119/71 80/85/16
f 68/119/71 64/86/60 80/85/16
f 48/128/71 44/130/82 32/84/59
f 44/130/82 40/132/16 32/84/59
f 64/86/60 56/122/68 32/84/59
f 56/122/68 48/128/71 32/84/59
f 87/83/61 88/106/61 90/87/61
f 90/87/62 28/136/62 27/89/62
f 89/92/63 27/137/86 33/138/7
f 27/137/86 29/139/87 33/138/7
f 29/139/87 31/140/88 33/138/7
f 33/138/7 35/141/89 37/142/90
f 37/142/90 39/143/91 33/138/7
f 39/143/91 41/144/6 33/138/7
f 41/144/6 43/145/92 45/146/93
f 45/146/93 47/147/94 41/144/6
f 47/147/94 49/148/7 41/144/6
f 49/148/7 51/149/95 53/150/96
f 53/150/96 55/151/97 49/148/7
f 55/151/97 57/152/98 49/148/7
f 57/152/98 59/153/99 61/154/100
f 61/154/100 63/155/101 57/152/98
f 63/155/101 65/156/102 57/152/98
f 65/156/102 67/157/103 73/90/6
f 67/157/103 69/158/104 73/90/6
f 69/158/104 71/159/105 73/90/6
f 73/90/6 75/160/106 81/91/7
f 75/160/106 77/161/107 81/91/7
f 77/161/107 79/162/108 81/91/7
f 81/91/7 83/163/7 89/92/63
f 83/163/7 85/164/109 89/92/63
f 85/164/109 87/165/110 89/92/63
f 89/92/63 33/138/7 41/144/6
f 41/144/6 49/148/7 89/92/63
f 49/148/7 57/152/98 89/92/63
f 57/152/98 65/156/102 89/92/63
f 65/156/102 73/90/6 89/92/63
