# Blender 5.1.1
# www.blender.org
mtllib VerticalRail.mtl
o 円柱
v 0.000000 0.398536 -0.050000
v -0.000000 -0.398536 -0.050000
v -0.009754 0.398536 -0.049039
v -0.009755 -0.398536 -0.049039
v -0.019134 0.398536 -0.046194
v -0.019134 -0.398536 -0.046194
v -0.027778 0.398536 -0.041573
v -0.027779 -0.398536 -0.041573
v -0.035355 0.398536 -0.035355
v -0.035355 -0.398536 -0.035355
v -0.041573 0.398536 -0.027779
v -0.041574 -0.398536 -0.027779
v -0.046194 0.398536 -0.019134
v -0.046194 -0.398536 -0.019134
v -0.049039 0.398536 -0.009755
v -0.049039 -0.398536 -0.009755
v -0.050000 0.398536 0.000000
v -0.050000 -0.398536 0.000000
v -0.049039 0.398536 0.009755
v -0.049039 -0.398536 0.009755
v -0.046194 0.398536 0.019134
v -0.046194 -0.398536 0.019134
v -0.041573 0.398536 0.027779
v -0.041574 -0.398536 0.027779
v -0.035355 0.398536 0.035355
v -0.035355 -0.398536 0.035355
v -0.027778 0.398536 0.041573
v -0.027779 -0.398536 0.041573
v -0.019134 0.398536 0.046194
v -0.019134 -0.398536 0.046194
v -0.009754 0.398536 0.049039
v -0.009755 -0.398536 0.049039
v 0.000000 0.398536 0.050000
v -0.000000 -0.398536 0.050000
v 0.009755 0.398536 0.049039
v 0.009754 -0.398536 0.049039
v 0.019134 0.398536 0.046194
v 0.019134 -0.398536 0.046194
v 0.027779 0.398536 0.041573
v 0.027778 -0.398536 0.041573
v 0.035355 0.398536 0.035355
v 0.035355 -0.398536 0.035355
v 0.041574 0.398536 0.027779
v 0.041573 -0.398536 0.027779
v 0.046194 0.398536 0.019134
v 0.046194 -0.398536 0.019134
v 0.049039 0.398536 0.009755
v 0.049039 -0.398536 0.009755
v 0.050000 0.398536 0.000000
v 0.050000 -0.398536 0.000000
v 0.049039 0.398536 -0.009755
v 0.049039 -0.398536 -0.009755
v 0.046194 0.398536 -0.019134
v 0.046194 -0.398536 -0.019134
v 0.041574 0.398536 -0.027779
v 0.041573 -0.398536 -0.027779
v 0.035355 0.398536 -0.035355
v 0.035355 -0.398536 -0.035355
v 0.027779 0.398536 -0.041573
v 0.027778 -0.398536 -0.041573
v 0.019134 0.398536 -0.046194
v 0.019134 -0.398536 -0.046194
v 0.009755 0.398536 -0.049039
v 0.009754 -0.398536 -0.049039
v -0.060000 -0.398420 0.060000
v 0.060000 -0.398420 0.060000
v -0.060000 -0.398420 -0.060000
v 0.060000 -0.398420 -0.060000
v -0.060000 -0.518420 0.060000
v 0.060000 -0.518420 0.060000
v -0.060000 -0.518420 -0.060000
v 0.060000 -0.518420 -0.060000
v -0.060000 0.518892 0.060000
v 0.060000 0.518892 0.060000
v -0.060000 0.518892 -0.060000
v 0.060000 0.518892 -0.060000
v -0.060000 0.398892 0.060000
v 0.060000 0.398892 0.060000
v -0.060000 0.398892 -0.060000
v 0.060000 0.398892 -0.060000
vn -0.0980 -0.0000 -0.9952
vn -0.2903 -0.0000 -0.9569
vn -0.4714 -0.0000 -0.8819
vn -0.6344 -0.0000 -0.7730
vn -0.7730 -0.0000 -0.6344
vn -0.8819 -0.0000 -0.4714
vn -0.9569 -0.0000 -0.2903
vn -0.9952 -0.0000 -0.0980
vn -0.9952 -0.0000 0.0980
vn -0.9569 -0.0000 0.2903
vn -0.8819 -0.0000 0.4714
vn -0.7730 -0.0000 0.6344
vn -0.6344 -0.0000 0.7730
vn -0.4714 -0.0000 0.8819
vn -0.2903 -0.0000 0.9569
vn -0.0980 -0.0000 0.9952
vn 0.0980 -0.0000 0.9952
vn 0.2903 -0.0000 0.9569
vn 0.4714 -0.0000 0.8819
vn 0.6344 -0.0000 0.7730
vn 0.7730 -0.0000 0.6344
vn 0.8819 -0.0000 0.4714
vn 0.9569 -0.0000 0.2903
vn 0.9952 -0.0000 0.0980
vn 0.9952 -0.0000 -0.0980
vn 0.9569 -0.0000 -0.2903
vn 0.8819 -0.0000 -0.4714
vn 0.7730 -0.0000 -0.6344
vn 0.6344 -0.0000 -0.7730
vn 0.4714 -0.0000 -0.8819
vn -0.0000 -1.0000 -0.0000
vn 0.2903 -0.0000 -0.9569
vn 0.0980 -0.0000 -0.9952
vn -0.0000 1.0000 -0.0000
vn -0.0000 -0.0000 -1.0000
vn -0.0000 -0.0000 1.0000
vn -1.0000 -0.0000 -0.0000
vn 1.0000 -0.0000 -0.0000
vt 0.408411 0.009397
vt 0.009062 0.034357
vt 0.009062 0.009397
vt 0.408411 0.034357
vt 0.009062 0.059316
vt 0.408411 0.059316
vt 0.009062 0.084275
vt 0.408411 0.084275
vt 0.009062 0.109235
vt 0.408411 0.109235
vt 0.009062 0.134194
vt 0.408411 0.134194
vt 0.009062 0.159153
vt 0.408411 0.159153
vt 0.009062 0.184113
vt 0.408411 0.184113
vt 0.009062 0.209072
vt 0.408411 0.209072
vt 0.009062 0.234031
vt 0.408411 0.234031
vt 0.009062 0.258991
vt 0.408411 0.258991
vt 0.009062 0.283950
vt 0.408411 0.283950
vt 0.009062 0.308909
vt 0.408411 0.308909
vt 0.009062 0.333868
vt 0.408411 0.333868
vt 0.009062 0.358828
vt 0.408411 0.358828
vt 0.009062 0.383787
vt 0.408411 0.383787
vt 0.009062 0.408746
vt 0.408411 0.408746
vt 0.009062 0.433706
vt 0.408411 0.433706
vt 0.009062 0.458665
vt 0.408411 0.458665
vt 0.009062 0.483624
vt 0.408411 0.483624
vt 0.009062 0.508584
vt 0.408411 0.508584
vt 0.009062 0.533543
vt 0.408411 0.533543
vt 0.009062 0.558502
vt 0.408411 0.558502
vt 0.009062 0.583462
vt 0.408411 0.583462
vt 0.009062 0.608421
vt 0.408411 0.608421
vt 0.009062 0.633380
vt 0.408411 0.633380
vt 0.009062 0.658340
vt 0.408411 0.658340
vt 0.009062 0.683299
vt 0.408411 0.683299
vt 0.009062 0.708258
vt 0.408411 0.708258
vt 0.009062 0.733218
vt 0.408411 0.733218
vt 0.009062 0.758177
vt 0.534661 0.092593
vt 0.501248 0.120014
vt 0.468460 0.011926
vt 0.408411 0.758177
vt 0.009062 0.783136
vt 0.408411 0.783136
vt 0.009062 0.808095
vt 0.520681 0.154960
vt 0.479318 0.142413
vt 0.428650 0.204152
vt 0.698734 0.009362
vt 0.563192 0.144904
vt 0.563192 0.009362
vt 0.698734 0.144904
vt 0.563192 0.280446
vt 0.698734 0.280446
vt 0.563192 0.415988
vt 0.698734 0.415988
vt 0.563192 0.551530
vt 0.427650 0.415988
vt 0.427650 0.280446
vt 0.834276 0.280446
vt 0.855815 0.436972
vt 0.720273 0.572514
vt 0.720273 0.436972
vt 0.855815 0.572514
vt 0.720273 0.708055
vt 0.855815 0.708055
vt 0.720273 0.843597
vt 0.855815 0.843597
vt 0.720273 0.979139
vt 0.584731 0.843597
vt 0.584731 0.708055
vt 0.991357 0.708055
vt 0.490389 0.122174
vt 0.458231 0.115778
vt 0.479318 0.122174
vt 0.468459 0.120014
vt 0.449026 0.109627
vt 0.441197 0.101798
vt 0.435046 0.092593
vt 0.430810 0.082364
vt 0.428650 0.071506
vt 0.435046 0.039348
vt 0.428650 0.060435
vt 0.430810 0.049576
vt 0.441197 0.030142
vt 0.449026 0.022314
vt 0.458231 0.016163
vt 0.479318 0.009767
vt 0.490389 0.009767
vt 0.501248 0.011926
vt 0.511476 0.016163
vt 0.520681 0.022314
vt 0.528510 0.030143
vt 0.534661 0.039348
vt 0.538898 0.049576
vt 0.541057 0.060435
vt 0.541057 0.071506
vt 0.538898 0.082364
vt 0.528510 0.101798
vt 0.520681 0.109627
vt 0.511476 0.115778
vt 0.408411 0.808095
vt 0.430810 0.215011
vt 0.435046 0.225239
vt 0.441197 0.234445
vt 0.449026 0.242273
vt 0.458231 0.248424
vt 0.468460 0.252661
vt 0.479318 0.254821
vt 0.490389 0.254821
vt 0.501248 0.252661
vt 0.511476 0.248424
vt 0.520681 0.242273
vt 0.528510 0.234445
vt 0.534661 0.225239
vt 0.538898 0.215011
vt 0.541057 0.204152
vt 0.541057 0.193081
vt 0.538898 0.182223
vt 0.534661 0.171994
vt 0.528510 0.162789
vt 0.511476 0.148809
vt 0.501248 0.144573
vt 0.490389 0.142413
vt 0.468459 0.144573
vt 0.458231 0.148809
vt 0.449026 0.154960
vt 0.441197 0.162789
vt 0.435046 0.171994
vt 0.430810 0.182223
vt 0.428650 0.193081
vt 0.698734 0.551530
vt 0.834276 0.415988
vt 0.855815 0.979139
vt 0.991357 0.843597
s 0
usemtl マテリアル
f 2/1/1 3/2/1 1/3/1
f 4/4/2 5/5/2 3/2/2
f 6/6/3 7/7/3 5/5/3
f 8/8/4 9/9/4 7/7/4
f 10/10/5 11/11/5 9/9/5
f 12/12/6 13/13/6 11/11/6
f 14/14/7 15/15/7 13/13/7
f 16/16/8 17/17/8 15/15/8
f 18/18/9 19/19/9 17/17/9
f 20/20/10 21/21/10 19/19/10
f 22/22/11 23/23/11 21/21/11
f 24/24/12 25/25/12 23/23/12
f 26/26/13 27/27/13 25/25/13
f 28/28/14 29/29/14 27/27/14
f 30/30/15 31/31/15 29/29/15
f 32/32/16 33/33/16 31/31/16
f 34/34/17 35/35/17 33/33/17
f 36/36/18 37/37/18 35/35/18
f 38/38/19 39/39/19 37/37/19
f 40/40/20 41/41/20 39/39/20
f 42/42/21 43/43/21 41/41/21
f 44/44/22 45/45/22 43/43/22
f 46/46/23 47/47/23 45/45/23
f 48/48/24 49/49/24 47/47/24
f 50/50/25 51/51/25 49/49/25
f 52/52/26 53/53/26 51/51/26
f 54/54/27 55/55/27 53/53/27
f 56/56/28 57/57/28 55/55/28
f 58/58/29 59/59/29 57/57/29
f 60/60/30 61/61/30 59/59/30
f 14/62/31 6/63/31 38/64/31
f 62/65/32 63/66/32 61/61/32
f 64/67/33 1/68/33 63/66/33
f 39/69/34 47/70/34 63/71/34
f 66/72/34 67/73/34 65/74/34
f 68/75/35 71/76/35 67/73/35
f 72/77/31 69/78/31 71/76/31
f 70/79/36 65/80/36 69/78/36
f 71/76/37 65/81/37 67/82/37
f 68/83/38 70/79/38 72/77/38
f 74/84/34 75/85/34 73/86/34
f 76/87/35 79/88/35 75/85/35
f 80/89/31 77/90/31 79/88/31
f 78/91/36 73/92/36 77/90/36
f 79/88/37 73/93/37 75/94/37
f 76/95/38 78/91/38 80/89/38
f 2/1/1 4/4/1 3/2/1
f 4/4/2 6/6/2 5/5/2
f 6/6/3 8/8/3 7/7/3
f 8/8/4 10/10/4 9/9/4
f 10/10/5 12/12/5 11/11/5
f 12/12/6 14/14/6 13/13/6
f 14/14/7 16/16/7 15/15/7
f 16/16/8 18/18/8 17/17/8
f 18/18/9 20/20/9 19/19/9
f 20/20/10 22/22/10 21/21/10
f 22/22/11 24/24/11 23/23/11
f 24/24/12 26/26/12 25/25/12
f 26/26/13 28/28/13 27/27/13
f 28/28/14 30/30/14 29/29/14
f 30/30/15 32/32/15 31/31/15
f 32/32/16 34/34/16 33/33/16
f 34/34/17 36/36/17 35/35/17
f 36/36/18 38/38/18 37/37/18
f 38/38/19 40/40/19 39/39/19
f 40/40/20 42/42/20 41/41/20
f 42/42/21 44/44/21 43/43/21
f 44/44/22 46/46/22 45/45/22
f 46/46/23 48/48/23 47/47/23
f 48/48/24 50/50/24 49/49/24
f 50/50/25 52/52/25 51/51/25
f 52/52/26 54/54/26 53/53/26
f 54/54/27 56/56/27 55/55/27
f 56/56/28 58/58/28 57/57/28
f 58/58/29 60/60/29 59/59/29
f 60/60/30 62/65/30 61/61/30
f 6/63/31 4/96/31 62/97/31
f 4/96/31 2/98/31 62/97/31
f 2/98/31 64/99/31 62/97/31
f 62/97/31 60/100/31 58/101/31
f 58/101/31 56/102/31 62/97/31
f 56/102/31 54/103/31 62/97/31
f 54/103/31 52/104/31 46/105/31
f 52/104/31 50/106/31 46/105/31
f 50/106/31 48/107/31 46/105/31
f 46/105/31 44/108/31 38/64/31
f 44/108/31 42/109/31 38/64/31
f 42/109/31 40/110/31 38/64/31
f 38/64/31 36/111/31 34/112/31
f 34/112/31 32/113/31 38/64/31
f 32/113/31 30/114/31 38/64/31
f 30/114/31 28/115/31 26/116/31
f 26/116/31 24/117/31 30/114/31
f 24/117/31 22/118/31 30/114/31
f 22/118/31 20/119/31 18/120/31
f 18/120/31 16/121/31 22/118/31
f 16/121/31 14/62/31 22/118/31
f 14/62/31 12/122/31 10/123/31
f 10/123/31 8/124/31 6/63/31
f 14/62/31 10/123/31 6/63/31
f 6/63/31 62/97/31 38/64/31
f 62/97/31 54/103/31 38/64/31
f 54/103/31 46/105/31 38/64/31
f 38/64/31 30/114/31 22/118/31
f 22/118/31 14/62/31 38/64/31
f 62/65/32 64/67/32 63/66/32
f 64/67/33 2/125/33 1/68/33
f 63/71/34 1/126/34 3/127/34
f 3/127/34 5/128/34 7/129/34
f 7/129/34 9/130/34 11/131/34
f 11/131/34 13/132/34 15/133/34
f 15/133/34 17/134/34 19/135/34
f 19/135/34 21/136/34 23/137/34
f 23/137/34 25/138/34 27/139/34
f 27/139/34 29/140/34 23/137/34
f 29/140/34 31/141/34 23/137/34
f 31/141/34 33/142/34 35/143/34
f 35/143/34 37/144/34 39/69/34
f 39/69/34 41/145/34 43/146/34
f 43/146/34 45/147/34 47/70/34
f 47/70/34 49/148/34 51/149/34
f 51/149/34 53/150/34 55/151/34
f 55/151/34 57/152/34 59/153/34
f 59/153/34 61/154/34 63/71/34
f 63/71/34 3/127/34 15/133/34
f 3/127/34 7/129/34 15/133/34
f 7/129/34 11/131/34 15/133/34
f 15/133/34 19/135/34 23/137/34
f 31/141/34 35/143/34 39/69/34
f 39/69/34 43/146/34 47/70/34
f 47/70/34 51/149/34 55/151/34
f 55/151/34 59/153/34 47/70/34
f 59/153/34 63/71/34 47/70/34
f 15/133/34 23/137/34 63/71/34
f 23/137/34 31/141/34 63/71/34
f 31/141/34 39/69/34 63/71/34
f 66/72/34 68/75/34 67/73/34
f 68/75/35 72/77/35 71/76/35
f 72/77/31 70/79/31 69/78/31
f 70/79/36 66/155/36 65/80/36
f 71/76/37 69/78/37 65/81/37
f 68/83/38 66/156/38 70/79/38
f 74/84/34 76/87/34 75/85/34
f 76/87/35 80/89/35 79/88/35
f 80/89/31 78/91/31 77/90/31
f 78/91/36 74/157/36 73/92/36
f 79/88/37 77/90/37 73/93/37
f 76/95/38 74/158/38 78/91/38
