# Blender 5.1.1
# www.blender.org
mtllib BossSword.mtl
o 立方体.001
v -1.270304 0.344616 0.042110
v -1.153137 0.344616 0.042110
v -1.270304 -0.026699 0.049276
v -1.270304 0.344346 -0.049276
v -1.153137 0.344346 -0.049276
v -1.153137 -0.026969 -0.042110
v -1.153137 -0.026699 0.049276
v -1.270304 -0.026969 -0.042110
v -1.270304 0.158689 -0.045693
v -1.270304 0.065860 -0.043902
v -1.211721 0.158689 -0.045693
v -1.270304 0.158824 0.000000
v -1.193363 0.057691 0.020022
v -1.193363 0.097925 1.919820
v -1.230078 0.057691 0.020022
v -1.230078 0.097925 1.919820
v -1.193363 0.260790 0.019476
v -1.193363 0.301024 1.919274
v -1.230078 0.260790 0.019476
v -1.230078 0.301024 1.919274
v -1.230078 0.159240 0.019749
v -1.211721 0.201877 2.224775
v -1.193363 0.159240 0.019749
v -1.211720 -0.025037 0.020246
v -1.211720 0.015197 1.920058
v -1.211720 0.343522 0.019252
v -1.211721 0.383752 1.919065
v -1.211720 0.159240 0.019749
v -1.230078 0.199475 1.919547
v -1.193363 0.199475 1.919547
v -1.238720 0.156409 -0.319815
v -1.238202 0.161677 -0.319856
v -1.238720 0.158674 -0.019824
v -1.238202 0.151142 -0.319776
v -1.238202 0.163942 -0.019864
v -1.238202 0.153407 -0.019785
v -1.234170 0.171409 -0.319929
v -1.236665 0.166741 -0.319893
v -1.234170 0.173674 -0.019938
v -1.230812 0.175501 -0.319960
v -1.226721 0.178858 -0.319984
v -1.222053 0.181352 -0.320004
v -1.216988 0.182890 -0.320016
v -1.216988 0.185155 -0.020024
v -1.211720 0.183409 -0.320019
v -1.222053 0.183619 -0.020013
v -1.206453 0.182890 -0.320016
v -1.201388 0.181352 -0.320004
v -1.196720 0.178858 -0.319984
v -1.196720 0.181123 -0.019994
v -1.192629 0.175501 -0.319960
v -1.201388 0.183619 -0.020013
v -1.192629 0.177766 -0.019968
v -1.189271 0.171409 -0.319929
v -1.186776 0.166741 -0.319893
v -1.185239 0.161677 -0.319856
v -1.185239 0.163942 -0.019864
v -1.184720 0.156409 -0.319815
v -1.185239 0.151142 -0.319776
v -1.186776 0.146077 -0.319737
v -1.189271 0.141409 -0.319703
v -1.189271 0.143674 -0.019711
v -1.192629 0.137318 -0.319671
v -1.206453 0.129928 -0.319615
v -1.201388 0.131465 -0.319627
v -1.206453 0.132194 -0.019624
v -1.211720 0.129410 -0.319613
v -1.201388 0.133730 -0.019636
v -1.211720 0.131675 -0.019620
v -1.196720 0.133960 -0.319646
v -1.226721 0.133960 -0.319646
v -1.222053 0.131465 -0.319627
v -1.226721 0.136225 -0.019654
v -1.230812 0.137318 -0.319671
v -1.222053 0.133730 -0.019636
v -1.230812 0.139583 -0.019680
v -1.216988 0.129928 -0.319615
v -1.216988 0.132194 -0.019624
v -1.234170 0.143674 -0.019711
v -1.236665 0.148342 -0.019746
v -1.236665 0.169006 -0.019902
v -1.226721 0.181123 -0.019994
v -1.230812 0.177766 -0.019968
v -1.211720 0.185674 -0.020028
v -1.186776 0.148342 -0.019746
v -1.186776 0.169006 -0.019902
v -1.189271 0.173674 -0.019938
v -1.185239 0.153407 -0.019785
v -1.184720 0.158674 -0.019824
v -1.192629 0.139583 -0.019680
v -1.196720 0.136225 -0.019654
v -1.206453 0.185155 -0.020024
v -1.236665 0.146077 -0.319737
v -1.234170 0.141409 -0.319703
vn -0.0000 1.0000 -0.0030
vn -0.0000 0.0193 0.9998
vn -1.0000 -0.0000 -0.0000
vn -0.0000 -0.0193 -0.9998
vn 1.0000 -0.0000 -0.0000
vn -0.0000 -1.0000 0.0030
vn -0.9762 -0.2166 0.0046
vn 0.9762 0.2166 -0.0046
vn -0.0000 -0.0027 -1.0000
vn 0.9679 -0.2144 0.1313
vn 0.9682 0.2152 0.1280
vn -0.9682 0.2152 0.1280
vn -0.9679 -0.2144 0.1313
vn -0.9762 0.2166 -0.0046
vn 0.9762 -0.2166 0.0046
vn -0.9982 0.0002 0.0600
vn 0.9982 0.0002 0.0600
vn -0.0004 -0.0075 -1.0000
vn 0.0004 -0.0077 -1.0000
vn -0.0000 -0.0076 -1.0000
vn -0.9952 0.0978 -0.0007
vn -0.9952 -0.0978 0.0007
vn -0.0001 -0.0076 -1.0000
vn -0.0013 -0.0070 -1.0000
vn -0.8820 0.4713 -0.0036
vn -0.7730 0.6344 -0.0048
vn 0.0013 -0.0088 -1.0000
vn -0.0004 -0.0071 -1.0000
vn -0.0000 -0.0075 -1.0000
vn -0.0001 -0.0073 -1.0000
vn -0.2902 0.9569 -0.0072
vn -0.2904 0.9569 -0.0072
vn -0.0980 0.9952 -0.0075
vn -0.0000 -0.0058 -1.0000
vn -0.0000 -0.0078 -1.0000
vn -0.0000 -0.0079 -1.0000
vn 0.4715 0.8818 -0.0067
vn 0.4713 0.8819 -0.0067
vn 0.6344 0.7730 -0.0058
vn -0.0013 -0.0088 -1.0000
vn -0.0006 -0.0080 -1.0000
vn 0.0002 -0.0074 -1.0000
vn 0.0001 -0.0075 -1.0000
vn 0.9569 0.2905 -0.0022
vn 0.9952 0.0980 -0.0007
vn 0.0014 -0.0075 -1.0000
vn -0.0004 -0.0076 -1.0000
vn 0.0004 -0.0076 -1.0000
vn 0.0001 -0.0076 -1.0000
vn 0.8820 -0.4713 0.0036
vn 0.7729 -0.6345 0.0048
vn 0.0002 -0.0078 -1.0000
vn 0.0001 -0.0077 -1.0000
vn -0.0004 -0.0064 -1.0000
vn 0.2902 -0.9569 0.0072
vn 0.2904 -0.9569 0.0072
vn 0.2905 -0.9569 0.0072
vn 0.0978 -0.9952 0.0075
vn 0.0981 -0.9952 0.0075
vn 0.0001 -0.0070 -1.0000
vn -0.0002 -0.0079 -1.0000
vn 0.0004 -0.0064 -1.0000
vn -0.4713 -0.8819 0.0067
vn -0.6346 -0.7728 0.0058
vn -0.0980 -0.9952 0.0075
vn -0.0978 -0.9952 0.0075
vn -0.2904 -0.9569 0.0072
vn -0.2902 -0.9569 0.0072
vn -0.2905 -0.9569 0.0072
vn -0.0000 0.0078 1.0000
vn -0.0000 0.0082 1.0000
vn -0.0000 0.0075 1.0000
vn -0.0000 0.0076 1.0000
vn 0.0001 0.0076 1.0000
vn 0.0006 0.0083 1.0000
vn -0.7729 -0.6345 0.0048
vn -0.0001 0.0075 1.0000
vn -0.0011 0.0068 1.0000
vn -0.0001 0.0076 1.0000
vn -0.0014 0.0078 1.0000
vn -0.9569 0.2905 -0.0022
vn 0.0001 0.0075 1.0000
vn -0.0013 0.0084 1.0000
vn -0.0000 0.0074 1.0000
vn 0.0002 0.0074 1.0000
vn 0.0013 0.0084 1.0000
vn 0.8820 0.4713 -0.0036
vn 0.8817 0.4718 -0.0037
vn -0.0004 0.0075 1.0000
vn 0.0014 0.0078 1.0000
vn 0.0004 0.0075 1.0000
vn -0.0002 0.0074 1.0000
vn 0.9952 -0.0981 0.0007
vn 0.9569 -0.2904 0.0022
vn 0.7730 0.6344 -0.0048
vn 0.0011 0.0068 1.0000
vn 0.6346 -0.7728 0.0058
vn -0.0006 0.0083 1.0000
vn 0.4713 -0.8819 0.0067
vn 0.0003 0.0060 1.0000
vn 0.0981 0.9952 -0.0075
vn -0.0003 0.0060 1.0000
vn 0.2904 0.9569 -0.0072
vn 0.2902 0.9569 -0.0072
vn -0.6344 0.7730 -0.0058
vn -0.4713 0.8819 -0.0067
vn -0.4715 0.8818 -0.0067
vn -0.8820 -0.4713 0.0036
vn -0.9569 -0.2904 0.0022
vn -0.0014 0.0073 1.0000
vn 0.0003 -0.0074 -1.0000
vn -0.0014 -0.0081 -1.0000
vn 0.0001 0.0074 1.0000
vt 0.251758 0.381452
vt 0.201913 0.311743
vt 0.196606 0.854057
vt 0.177804 0.313017
vt 0.167716 0.855597
vt 0.120024 0.316095
vt 0.148914 0.314556
vt 0.100029 0.363371
vt 0.061232 0.857136
vt 0.080035 0.316095
vt 0.051145 0.314556
vt 0.003452 0.854057
vt 0.022255 0.313017
vt 0.100027 0.205010
vt 0.079950 0.205018
vt 0.251758 0.327842
vt 0.251758 0.218463
vt 0.274105 0.231629
vt 0.100029 0.858502
vt 0.013431 0.996548
vt 0.079947 0.093941
vt 0.100024 0.003452
vt 0.032342 0.855596
vt 0.120106 0.093941
vt 0.138826 0.857136
vt 0.186627 0.996548
vt 0.251758 0.102181
vt 0.274105 0.198394
vt 0.251758 0.211559
vt 0.120106 0.205018
vt 0.244854 0.852381
vt 0.226052 0.311340
vt 0.171900 0.942614
vt 0.028157 0.942614
vt 0.220715 0.852788
vt 0.252694 0.370218
vt 0.252073 0.368722
vt 0.251758 0.365513
vt 0.251758 0.095276
vt 0.253378 0.003452
vt 0.253378 0.095276
vt 0.301980 0.003452
vt 0.303600 0.003452
vt 0.303600 0.095276
vt 0.251758 0.003452
vt 0.253593 0.371566
vt 0.301980 0.095276
vt 0.251758 0.367133
vt 0.254998 0.095276
vt 0.256618 0.003452
vt 0.256618 0.095276
vt 0.258238 0.095277
vt 0.252074 0.363924
vt 0.252694 0.362427
vt 0.254740 0.359935
vt 0.253594 0.361080
vt 0.261478 0.003452
vt 0.263098 0.095276
vt 0.261478 0.095276
vt 0.263098 0.003452
vt 0.264719 0.095276
vt 0.256087 0.359035
vt 0.257584 0.358415
vt 0.259173 0.358099
vt 0.260793 0.358099
vt 0.267959 0.003452
vt 0.269579 0.095276
vt 0.267959 0.095276
vt 0.269579 0.003452
vt 0.271199 0.003452
vt 0.262382 0.358415
vt 0.263879 0.359036
vt 0.271198 0.095277
vt 0.265225 0.359936
vt 0.266371 0.361081
vt 0.274439 0.095276
vt 0.276059 0.003452
vt 0.276059 0.095276
vt 0.277679 0.095276
vt 0.267271 0.362428
vt 0.267891 0.363925
vt 0.268206 0.365514
vt 0.268206 0.367134
vt 0.280919 0.095276
vt 0.282539 0.003452
vt 0.282539 0.095276
vt 0.284159 0.095276
vt 0.267890 0.368723
vt 0.265224 0.372712
vt 0.267270 0.370220
vt 0.266370 0.371567
vt 0.287399 0.003452
vt 0.289019 0.095276
vt 0.287399 0.095276
vt 0.289019 0.003452
vt 0.290639 0.003452
vt 0.263877 0.373612
vt 0.259171 0.374548
vt 0.290639 0.095277
vt 0.262380 0.374232
vt 0.260791 0.374548
vt 0.293880 0.003452
vt 0.295500 0.095276
vt 0.293880 0.095276
vt 0.295500 0.003452
vt 0.297120 0.003452
vt 0.257582 0.374231
vt 0.297120 0.095276
vt 0.292259 0.095276
vt 0.292259 0.003452
vt 0.263879 0.335683
vt 0.265226 0.336584
vt 0.267271 0.339077
vt 0.262383 0.335063
vt 0.259174 0.334746
vt 0.260794 0.334746
vt 0.298740 0.003452
vt 0.256088 0.335681
vt 0.257585 0.335062
vt 0.252075 0.340570
vt 0.252695 0.339073
vt 0.253595 0.337727
vt 0.254998 0.003452
vt 0.251758 0.343779
vt 0.251758 0.342159
vt 0.254738 0.349358
vt 0.252693 0.346865
vt 0.252073 0.345368
vt 0.267890 0.345371
vt 0.263876 0.350260
vt 0.257582 0.350879
vt 0.262380 0.350879
vt 0.260790 0.351195
vt 0.272819 0.003452
vt 0.274439 0.003452
vt 0.266370 0.348215
vt 0.265224 0.349360
vt 0.267270 0.346868
vt 0.259171 0.351195
vt 0.277679 0.003452
vt 0.279299 0.003452
vt 0.279299 0.095276
vt 0.280919 0.003452
vt 0.272819 0.095276
vt 0.268207 0.342162
vt 0.268207 0.343782
vt 0.284159 0.003452
vt 0.285779 0.095276
vt 0.267891 0.340573
vt 0.285779 0.003452
vt 0.253593 0.348212
vt 0.264719 0.003452
vt 0.266338 0.003452
vt 0.256085 0.350258
vt 0.266338 0.095276
vt 0.258238 0.003452
vt 0.259858 0.095276
vt 0.259858 0.003452
vt 0.300360 0.003452
vt 0.300360 0.095276
vt 0.254741 0.336581
vt 0.256086 0.373612
vt 0.254739 0.372711
vt 0.298740 0.095276
vt 0.266372 0.337729
s 1
usemtl マテリアル.002
f 1/1/1 2/1/1 5/1/1
f 3/1/2 2/1/2 1/1/2
f 1/1/3 12/1/3 3/1/3
f 1/1/1 5/1/1 4/1/1
f 5/1/4 11/1/4 4/1/4
f 5/1/5 7/1/5 6/1/5
f 5/1/5 2/1/5 7/1/5
f 7/1/6 3/1/6 8/1/6
f 3/1/2 7/1/2 2/1/2
f 7/1/6 8/1/6 6/1/6
f 6/1/4 10/1/4 11/1/4
f 12/1/3 9/1/3 10/1/3
f 3/1/3 10/1/3 8/1/3
f 11/1/4 9/1/4 4/1/4
f 24/2/7 16/3/7 15/4/7
f 29/5/3 19/6/3 21/7/3
f 26/8/8 18/9/8 17/10/8
f 23/11/5 14/12/5 13/13/5
f 28/14/9 17/10/9 23/15/9
f 22/16/10 25/17/10 14/18/10
f 27/19/11 22/20/11 18/9/11
f 28/14/9 13/21/9 24/22/9
f 17/10/5 30/23/5 23/11/5
f 16/3/3 21/7/3 15/4/3
f 15/24/9 28/14/9 24/22/9
f 20/25/12 22/26/12 27/19/12
f 22/27/13 16/28/13 25/29/13
f 19/6/9 28/14/9 21/30/9
f 20/25/14 26/8/14 19/6/14
f 14/31/15 24/2/15 13/32/15
f 29/5/16 16/3/16 22/33/16
f 14/12/17 30/23/17 22/34/17
f 20/25/16 29/5/16 22/33/16
f 30/23/17 18/9/17 22/34/17
f 24/2/7 25/35/7 16/3/7
f 29/5/3 20/25/3 19/6/3
f 26/8/8 27/19/8 18/9/8
f 23/11/5 30/23/5 14/12/5
f 28/14/9 26/8/9 17/10/9
f 28/14/9 23/15/9 13/21/9
f 17/10/5 18/9/5 30/23/5
f 16/3/3 29/5/3 21/7/3
f 15/24/9 21/30/9 28/14/9
f 19/6/9 26/8/9 28/14/9
f 20/25/14 27/19/14 26/8/14
f 14/31/15 25/35/15 24/2/15
f 31/36/18 32/37/19 37/38/20
f 31/39/21 35/40/21 32/41/21
f 36/42/22 33/43/22 31/44/22
f 31/39/21 33/45/21 35/40/21
f 34/46/23 31/36/18 37/38/20
f 36/42/22 31/44/22 34/47/22
f 32/37/19 38/48/24 37/38/20
f 38/49/25 39/50/25 37/51/25
f 39/50/26 40/52/26 37/51/26
f 37/38/20 40/53/27 41/54/28
f 34/46/23 37/38/20 43/55/29
f 41/54/28 42/56/30 37/38/20
f 42/56/30 43/55/29 37/38/20
f 46/57/31 43/58/32 42/59/32
f 46/57/31 44/60/31 43/58/32
f 44/60/33 45/61/33 43/58/33
f 43/55/29 45/62/34 47/63/35
f 47/63/35 48/64/36 43/55/29
f 48/64/36 49/65/20 43/55/29
f 43/55/29 49/65/20 34/46/23
f 52/66/37 49/67/38 48/68/38
f 49/67/39 50/69/39 53/70/39
f 52/66/37 50/69/37 49/67/38
f 49/65/20 51/71/40 54/72/41
f 49/67/39 53/70/39 51/73/39
f 54/72/41 55/74/42 49/65/20
f 55/74/42 56/75/43 49/65/20
f 49/65/20 56/75/43 34/46/23
f 55/76/44 57/77/44 56/78/44
f 57/77/45 58/79/45 56/78/45
f 56/75/43 58/80/46 59/81/47
f 59/81/47 60/82/48 56/75/43
f 60/82/48 61/83/49 56/75/43
f 56/75/43 61/83/49 34/46/23
f 60/84/50 62/85/50 61/86/50
f 62/85/51 63/87/51 61/86/51
f 61/83/49 63/88/52 64/89/29
f 61/83/49 64/89/29 34/46/23
f 70/90/53 65/91/54 64/89/29
f 68/92/55 64/93/56 65/94/57
f 64/93/58 66/95/59 69/96/59
f 68/92/55 66/95/55 64/93/56
f 64/89/29 67/97/60 71/98/20
f 64/93/58 69/96/59 67/99/58
f 63/88/52 70/90/53 64/89/29
f 64/89/29 71/98/20 34/46/23
f 77/100/61 72/101/62 71/98/20
f 75/102/63 71/103/63 72/104/63
f 71/103/64 73/105/64 76/106/64
f 75/102/63 73/105/63 71/103/63
f 71/98/20 74/107/20 34/46/23
f 71/103/64 76/106/64 74/108/64
f 67/97/60 77/100/61 71/98/20
f 69/96/65 77/109/66 67/99/66
f 77/109/67 78/110/68 75/102/68
f 69/96/65 78/110/65 77/109/66
f 77/109/67 75/102/68 72/104/69
f 78/111/70 69/112/71 68/113/72
f 75/114/73 78/111/70 68/113/72
f 76/115/74 73/116/75 75/114/73
f 74/108/76 76/106/76 79/117/76
f 80/118/77 79/119/78 76/115/74
f 80/118/77 76/115/74 81/120/79
f 76/115/74 75/114/73 81/120/79
f 81/120/79 35/121/80 33/122/77
f 35/40/81 81/123/81 38/49/81
f 38/49/25 81/123/25 39/50/25
f 83/124/82 39/125/83 81/120/79
f 81/120/79 33/122/77 80/118/77
f 84/126/84 46/127/73 81/120/79
f 46/127/73 82/128/85 81/120/79
f 82/128/85 83/124/82 81/120/79
f 81/120/79 75/114/73 85/129/82
f 86/130/74 52/131/72 81/120/79
f 52/131/72 84/126/84 81/120/79
f 85/129/82 86/130/74 81/120/79
f 86/130/74 87/132/86 53/133/77
f 87/134/87 86/135/87 55/76/88
f 55/76/44 86/135/44 57/77/44
f 89/136/89 57/137/90 86/130/74
f 85/129/82 88/138/91 86/130/74
f 88/138/91 89/136/89 86/130/74
f 53/133/77 50/139/92 86/130/74
f 50/139/92 52/131/72 86/130/74
f 57/77/45 89/140/45 58/79/45
f 58/79/93 89/140/93 88/141/93
f 88/141/94 60/84/94 59/142/94
f 58/79/93 88/141/93 59/142/93
f 88/141/94 85/143/94 60/84/94
f 51/73/95 53/70/95 87/134/95
f 87/134/87 55/76/88 54/144/87
f 51/73/95 87/134/95 54/144/95
f 60/84/50 85/143/50 62/85/50
f 90/145/72 62/146/96 85/129/82
f 90/145/72 85/129/82 75/114/73
f 62/85/51 90/147/51 63/87/51
f 90/147/97 70/148/97 63/87/97
f 68/113/72 91/149/98 90/145/72
f 90/147/97 91/150/97 70/148/97
f 68/113/72 90/145/72 75/114/73
f 70/148/99 91/150/99 68/92/99
f 84/126/84 44/151/100 46/127/73
f 44/60/33 84/152/33 45/61/33
f 45/61/101 84/152/101 92/153/101
f 52/131/72 92/154/102 84/126/84
f 47/155/103 92/153/104 52/66/104
f 45/61/101 92/153/101 47/155/101
f 39/50/26 83/156/26 40/52/26
f 83/156/105 41/157/105 40/52/105
f 83/156/105 82/158/105 41/157/105
f 41/157/106 82/158/107 46/57/107
f 79/117/108 80/159/108 93/160/108
f 93/160/109 80/159/109 36/42/109
f 33/122/77 36/161/110 80/118/77
f 94/162/111 93/163/112 34/46/23
f 79/117/108 93/160/108 94/164/108
f 93/160/109 36/42/109 34/47/109
f 74/107/20 94/162/111 34/46/23
f 74/108/76 79/117/76 94/164/76
f 70/148/99 68/92/99 65/94/99
f 69/112/71 66/165/113 68/113/72
f 47/155/103 52/66/104 48/68/103
f 41/157/106 46/57/107 42/59/106
f 35/40/81 38/49/81 32/41/81
f 1/1/3 4/1/3 12/1/3
f 5/1/4 6/1/4 11/1/4
f 6/1/4 8/1/4 10/1/4
f 12/1/3 4/1/3 9/1/3
f 3/1/3 12/1/3 10/1/3
f 11/1/4 10/1/4 9/1/4
