# Blender 5.1.1
# www.blender.org
mtllib CrossBow.mtl
o 立方体.002
v 0.390529 0.322759 1.295107
v 0.390529 0.321882 1.295193
v 1.663348 0.322759 1.295107
v 0.390529 0.323637 1.295193
v 1.663348 0.323637 1.295193
v 0.390529 0.320259 1.295866
v 0.390529 0.321037 1.295449
v 1.663348 0.320259 1.295866
v 0.390529 0.319577 1.296425
v 1.663348 0.321037 1.295449
v 0.390529 0.319018 1.297107
v 1.663348 0.319018 1.297107
v 0.390529 0.318602 1.297885
v 1.663348 0.319577 1.296425
v 0.390529 0.318346 1.298729
v 1.663348 0.318346 1.298729
v 0.390529 0.318260 1.299607
v 1.663348 0.318602 1.297885
v 0.390529 0.319018 1.302107
v 0.390529 0.318602 1.301329
v 1.663348 0.319018 1.302107
v 0.390529 0.319577 1.302789
v 1.663348 0.318602 1.301329
v 0.390529 0.318346 1.300485
v 0.390529 0.320259 1.303349
v 0.390529 0.321037 1.303765
v 0.390529 0.321882 1.304021
v 1.663348 0.321882 1.304021
v 0.390529 0.322759 1.304107
v 1.663348 0.321037 1.303765
v 0.390529 0.323637 1.304021
v 0.390529 0.324482 1.303765
v 0.390529 0.325260 1.303349
v 0.390529 0.326501 1.302107
v 0.390529 0.327173 1.300485
v 0.390529 0.326501 1.297107
v 0.390529 0.326917 1.297885
v 1.663348 0.326501 1.297107
v 0.390529 0.325941 1.296425
v 1.663348 0.326917 1.297885
v 0.390529 0.327259 1.299607
v 0.390529 0.327173 1.298729
v 1.663348 0.327173 1.298729
v 1.663348 0.327259 1.299607
v 1.663348 0.327173 1.300485
v 1.663348 0.326917 1.301329
v 1.663348 0.324481 1.303765
v 1.663348 0.323637 1.304021
v 1.663348 0.325259 1.303349
v 1.663348 0.326501 1.302107
v 1.663348 0.325941 1.302789
v 1.663348 0.322759 1.304107
v 0.390529 0.325941 1.302789
v 0.390529 0.326917 1.301329
v 1.663348 0.324481 1.295449
v 1.663348 0.325259 1.295866
v 0.390529 0.324482 1.295449
v 1.663348 0.325941 1.296425
v 0.390529 0.325260 1.295866
v 1.663348 0.320259 1.303349
v 1.663348 0.319577 1.302789
v 1.663348 0.318346 1.300485
v 1.663348 0.318259 1.299607
v 1.663348 0.321882 1.295193
v 0.964552 0.228672 1.474316
v 0.964552 0.307926 1.474316
v 0.964552 0.228672 0.594279
v 0.964552 0.307926 0.594279
v 1.043806 0.228672 1.474316
v 1.043806 0.307926 1.474316
v 1.043806 0.228672 0.594279
v 1.043806 0.307926 0.594279
v 1.707907 0.303161 1.259006
v 1.711527 0.303161 1.282066
v 1.707907 0.342358 1.259006
v 1.675040 0.303161 1.278124
v 1.642014 0.303161 1.296344
v 1.675040 0.342358 1.278124
v 1.678373 0.303161 1.301019
v 1.645067 0.303161 1.319075
v 1.678373 0.342358 1.301019
v 1.645067 0.342358 1.319075
v 1.611629 0.342358 1.336233
v 1.642014 0.342358 1.296344
v 1.608850 0.342358 1.313671
v 1.575567 0.342358 1.330104
v 1.608850 0.303161 1.313671
v 1.575567 0.303161 1.330104
v 1.578079 0.303161 1.352494
v 1.542188 0.303161 1.345643
v 1.611629 0.303161 1.336233
v 1.578079 0.342358 1.352494
v 1.544438 0.342358 1.367858
v 1.542188 0.342358 1.345643
v 1.508731 0.342358 1.360289
v 1.508731 0.303161 1.360289
v 1.475219 0.303161 1.374047
v 1.510728 0.303161 1.382329
v 1.544438 0.303161 1.367858
v 1.510728 0.342358 1.382329
v 1.476967 0.342358 1.395908
v 1.475219 0.342358 1.374047
v 1.441670 0.342358 1.386916
v 1.441670 0.303161 1.386916
v 1.408106 0.303161 1.398900
v 1.443176 0.303161 1.408596
v 1.476967 0.303161 1.395908
v 1.443176 0.342358 1.408596
v 1.409377 0.342358 1.420398
v 1.408106 0.342358 1.398900
v 1.374545 0.342358 1.410003
v 1.374545 0.303161 1.410003
v 1.341009 0.303161 1.420228
v 1.375587 0.303161 1.431316
v 1.409377 0.303161 1.420398
v 1.375587 0.342358 1.431316
v 1.341830 0.342358 1.441354
v 1.341009 0.342358 1.420228
v 1.307518 0.342358 1.429577
v 1.307518 0.303161 1.429577
v 1.308123 0.303161 1.450517
v 1.274090 0.303161 1.438058
v 1.341830 0.303161 1.441354
v 1.308123 0.342358 1.450517
v 1.274487 0.342358 1.458807
v 1.274090 0.342358 1.438058
v 1.240747 0.342358 1.445673
v 1.240747 0.303161 1.445673
v 1.207506 0.303161 1.452429
v 1.240940 0.303161 1.466233
v 1.274487 0.303161 1.458807
v 1.240940 0.342358 1.466233
v 1.207504 0.342358 1.472797
v 1.207506 0.342358 1.452429
v 1.174388 0.342358 1.458330
v 1.174388 0.303161 1.458330
v 1.141412 0.303161 1.463383
v 1.174196 0.303161 1.478507
v 1.207503 0.303161 1.472797
v 1.174196 0.342358 1.478507
v 1.141036 0.342358 1.483369
v 1.141412 0.342358 1.463383
v 1.108597 0.342358 1.467595
v 1.108597 0.303161 1.467595
v 1.075961 0.303161 1.470972
v 1.108044 0.303161 1.487387
v 1.141036 0.303161 1.483369
v 1.108044 0.342358 1.487387
v 1.075237 0.342358 1.490572
v 1.075961 0.342358 1.470972
v 1.043524 0.342358 1.473521
v 1.043524 0.303161 1.473521
v 1.042635 0.303161 1.492928
v 1.010736 0.303161 1.474657
v 1.075237 0.303161 1.490572
v 1.042635 0.342358 1.492928
v 1.010743 0.342358 1.492986
v 1.010736 0.342358 1.474657
v 0.978403 0.342358 1.473331
v 0.977950 0.342358 1.491663
v 0.978403 0.303161 1.473331
v 0.945922 0.303161 1.471081
v 0.977950 0.303161 1.491663
v 0.945008 0.303161 1.489406
v 0.911943 0.303161 1.486198
v 0.945008 0.342358 1.489406
v 0.911943 0.342358 1.486198
v 0.913319 0.342358 1.467896
v 0.878782 0.342358 1.482037
v 0.945922 0.342358 1.471081
v 0.913319 0.303161 1.467896
v 0.880621 0.303161 1.463766
v 0.878782 0.303161 1.482037
v 0.845555 0.303161 1.476912
v 0.845555 0.342358 1.476912
v 0.812290 0.342358 1.470820
v 0.847857 0.342358 1.458687
v 0.880621 0.342358 1.463766
v 0.847857 0.303161 1.458687
v 0.815054 0.303161 1.452652
v 0.812290 0.303161 1.470820
v 0.779015 0.303161 1.463754
v 0.779015 0.342358 1.463754
v 0.745761 0.342358 1.455712
v 0.782243 0.342358 1.445657
v 0.815054 0.342358 1.452652
v 0.782243 0.303161 1.445657
v 0.749450 0.303161 1.437695
v 0.745761 0.303161 1.455712
v 0.712558 0.303161 1.446687
v 0.712558 0.342358 1.446687
v 0.679435 0.342358 1.436680
v 0.716706 0.342358 1.428764
v 0.749450 0.342358 1.437695
v 0.716706 0.303161 1.428764
v 0.684040 0.303161 1.418864
v 0.679435 0.303161 1.436680
v 0.646421 0.303161 1.425689
v 0.646421 0.342358 1.425689
v 0.651483 0.342358 1.407989
v 0.613548 0.342358 1.413713
v 0.684040 0.342358 1.418864
v 0.651483 0.303161 1.407989
v 0.619066 0.303161 1.396142
v 0.613548 0.303161 1.413713
v 0.580850 0.303161 1.400752
v 0.580850 0.342358 1.400752
v 0.548353 0.342358 1.386806
v 0.586819 0.342358 1.383320
v 0.619066 0.342358 1.396142
v 0.586819 0.303161 1.383320
v 0.554770 0.303161 1.369528
v 0.548353 0.303161 1.386806
v 0.516091 0.303161 1.371881
v 0.516091 0.342358 1.371881
v 0.484096 0.342358 1.355977
v 0.522954 0.342358 1.354767
v 0.554770 0.342358 1.369528
v 0.522954 0.303161 1.354767
v 0.491398 0.303161 1.339039
v 0.484096 0.303161 1.355977
v 0.452398 0.303161 1.339099
v 0.452398 0.342358 1.339099
v 0.421027 0.342358 1.321252
v 0.460137 0.342358 1.322346
v 0.491398 0.342358 1.339039
v 0.460137 0.303161 1.322346
v 0.429198 0.303161 1.304698
v 0.421027 0.303161 1.321252
v 0.390018 0.303161 1.302442
v 0.390018 0.342358 1.302442
v 0.398616 0.342358 1.286098
v 0.359433 0.342358 1.282695
v 0.429198 0.342358 1.304698
v 0.398616 0.303161 1.286098
v 0.368442 0.303161 1.266566
v 0.359433 0.303161 1.282695
v 0.368442 0.342358 1.266566
v 1.010743 0.303161 1.492986
v 1.711527 0.342358 1.282066
vn -0.0000 -0.0979 -0.9952
vn -1.0000 -0.0000 -0.0000
vn -0.0000 0.0979 -0.9952
vn -1.0000 -0.0000 0.0001
vn -0.0000 -0.4715 -0.8818
vn -1.0000 -0.0000 -0.0004
vn -0.0000 -0.6343 -0.7731
vn -0.0000 -0.7730 -0.6344
vn -0.0000 -0.8819 -0.4714
vn -1.0000 -0.0000 0.0002
vn -0.0000 -0.9570 -0.2903
vn -0.0000 -0.9952 -0.0980
vn -0.0000 -0.8819 0.4714
vn -1.0000 -0.0000 -0.0002
vn -0.0000 -0.7731 0.6343
vn -0.0000 -0.2903 0.9569
vn -0.0000 -0.0979 0.9952
vn -0.0000 0.8819 -0.4715
vn -0.0000 0.7730 -0.6344
vn -0.0000 0.8819 -0.4714
vn -0.0000 0.9952 -0.0980
vn -0.0000 0.9570 -0.2903
vn -0.0000 0.9952 0.0980
vn 1.0000 -0.0000 -0.0004
vn 1.0000 -0.0000 0.0002
vn 1.0000 -0.0000 -0.0000
vn -0.0000 0.2903 0.9569
vn 1.0000 -0.0000 -0.0015
vn -0.0000 0.4714 0.8819
vn -0.0000 0.4715 0.8818
vn 1.0000 -0.0000 -0.0005
vn 1.0000 -0.0000 -0.0010
vn -0.0000 -0.0981 0.9952
vn -0.0000 0.0981 0.9952
vn -0.0000 0.0979 0.9952
vn -0.0000 0.6344 0.7730
vn -0.0000 0.7731 0.6343
vn -0.0000 0.6343 0.7731
vn -0.0000 0.8819 0.4715
vn -0.0000 0.9570 0.2903
vn -0.0000 0.4715 -0.8818
vn -0.0000 0.2903 -0.9569
vn 1.0000 -0.0000 0.0015
vn 1.0000 -0.0000 0.0010
vn -0.0000 0.6344 -0.7730
vn -0.0000 0.6343 -0.7731
vn -1.0000 -0.0000 0.0003
vn -0.0000 -0.4714 0.8819
vn -0.0000 -0.6344 0.7730
vn -0.0000 -0.6343 0.7731
vn -0.0000 -0.4715 0.8818
vn -0.0000 -0.9952 0.0980
vn -0.0000 -0.9570 0.2903
vn 1.0000 -0.0000 0.0004
vn 1.0000 -0.0000 -0.0002
vn -0.0000 -0.6344 -0.7730
vn -0.0000 -0.2903 -0.9569
vn -0.0000 -0.0000 -1.0000
vn -0.0000 -0.0000 1.0000
vn -0.0000 -1.0000 -0.0000
vn -0.0000 1.0000 -0.0000
vn 0.9879 -0.0000 -0.1551
vn -0.5028 -0.0000 -0.8644
vn -0.4831 -0.0000 -0.8756
vn 0.4963 -0.0000 0.8682
vn 0.4766 -0.0000 0.8791
vn 0.4565 -0.0000 0.8897
vn -0.4631 -0.0000 -0.8863
vn -0.4427 -0.0000 -0.8967
vn -0.4220 -0.0000 -0.9066
vn 0.4361 -0.0000 0.8999
vn 0.4362 -0.0000 0.8999
vn 0.4154 -0.0000 0.9096
vn -0.4010 -0.0000 -0.9161
vn -0.3798 -0.0000 -0.9251
vn 0.3944 -0.0000 0.9189
vn 0.3732 -0.0000 0.9278
vn -0.3581 -0.0000 -0.9337
vn -0.3363 -0.0000 -0.9418
vn 0.3515 -0.0000 0.9362
vn 0.3297 -0.0000 0.9441
vn -0.3141 -0.0000 -0.9494
vn -0.2916 -0.0000 -0.9565
vn 0.3075 -0.0000 0.9516
vn 0.2850 -0.0000 0.9585
vn -0.2689 -0.0000 -0.9632
vn -0.2459 -0.0000 -0.9693
vn 0.2623 -0.0000 0.9650
vn 0.2393 -0.0000 0.9709
vn -0.2226 -0.0000 -0.9749
vn -0.1992 -0.0000 -0.9800
vn 0.2161 -0.0000 0.9764
vn 0.1926 -0.0000 0.9813
vn -0.1754 -0.0000 -0.9845
vn -0.1515 -0.0000 -0.9885
vn 0.1690 -0.0000 0.9856
vn 0.1451 -0.0000 0.9894
vn -0.1273 -0.0000 -0.9919
vn -0.1029 -0.0000 -0.9947
vn 0.1209 -0.0000 0.9927
vn 0.0966 -0.0000 0.9953
vn -0.0783 -0.0000 -0.9969
vn -0.0346 -0.0000 -0.9994
vn 0.0721 -0.0000 0.9974
vn 0.0018 -0.0000 1.0000
vn 0.0409 -0.0000 -0.9992
vn 0.0691 -0.0000 -0.9976
vn -0.0684 -0.0000 0.9977
vn -0.0966 -0.0000 0.9953
vn -0.1245 -0.0000 0.9922
vn 0.0972 -0.0000 -0.9953
vn 0.1253 -0.0000 -0.9921
vn -0.1524 -0.0000 0.9883
vn -0.1801 -0.0000 0.9836
vn 0.1532 -0.0000 -0.9882
vn 0.1809 -0.0000 -0.9835
vn -0.2077 -0.0000 0.9782
vn -0.2351 -0.0000 0.9720
vn 0.2085 -0.0000 -0.9780
vn 0.2359 -0.0000 -0.9718
vn -0.2623 -0.0000 0.9650
vn -0.2892 -0.0000 0.9573
vn 0.2631 -0.0000 -0.9648
vn 0.2900 -0.0000 -0.9570
vn -0.3159 -0.0000 0.9488
vn -0.3423 -0.0000 0.9396
vn 0.3168 -0.0000 -0.9485
vn 0.3433 -0.0000 -0.9392
vn -0.3685 -0.0000 0.9296
vn -0.3944 -0.0000 0.9190
vn 0.3695 -0.0000 -0.9292
vn 0.3953 -0.0000 -0.9186
vn -0.4199 -0.0000 0.9076
vn -0.4451 -0.0000 0.8955
vn 0.4209 -0.0000 -0.9071
vn 0.4461 -0.0000 -0.8950
vn -0.4700 -0.0000 0.8827
vn -0.4945 -0.0000 0.8692
vn 0.4710 -0.0000 -0.8821
vn 0.4955 -0.0000 -0.8686
vn -0.5186 -0.0000 0.8550
vn -0.5424 -0.0000 0.8401
vn 0.5196 -0.0000 -0.8544
vn 0.5434 -0.0000 -0.8395
vn -0.8730 -0.0000 -0.4876
vn -0.0403 -0.0000 0.9992
vn 0.9879 -0.0000 -0.1550
vt 0.132293 0.177592
vt 0.132842 0.726533
vt 0.132293 0.726533
vt 0.136933 0.734705
vt 0.136933 0.735162
vt 0.136669 0.736033
vt 0.149310 0.177587
vt 0.149859 0.177587
vt 0.149859 0.726529
vt 0.149310 0.726529
vt 0.136844 0.734257
vt 0.133391 0.177591
vt 0.133940 0.726533
vt 0.133391 0.726533
vt 0.136844 0.735611
vt 0.133940 0.177591
vt 0.134489 0.726533
vt 0.136415 0.736413
vt 0.136092 0.736736
vt 0.134489 0.177591
vt 0.135038 0.726533
vt 0.135038 0.177591
vt 0.135587 0.726532
vt 0.135712 0.736990
vt 0.135290 0.737165
vt 0.135587 0.177591
vt 0.136136 0.726532
vt 0.136136 0.177591
vt 0.136685 0.726532
vt 0.134842 0.737254
vt 0.133514 0.736990
vt 0.137782 0.177590
vt 0.138331 0.726532
vt 0.137782 0.726532
vt 0.134385 0.737254
vt 0.133936 0.737165
vt 0.138331 0.177590
vt 0.138880 0.726532
vt 0.133134 0.736736
vt 0.132811 0.736413
vt 0.132557 0.736033
vt 0.132382 0.735611
vt 0.139978 0.177590
vt 0.140527 0.726531
vt 0.139978 0.726531
vt 0.140527 0.177589
vt 0.141076 0.726531
vt 0.132293 0.735162
vt 0.132293 0.734705
vt 0.132382 0.734257
vt 0.132557 0.733835
vt 0.133134 0.733132
vt 0.133936 0.732703
vt 0.135712 0.732878
vt 0.146566 0.177588
vt 0.147115 0.726529
vt 0.146566 0.726530
vt 0.134842 0.732614
vt 0.135290 0.732703
vt 0.147114 0.177588
vt 0.147663 0.726529
vt 0.136092 0.733132
vt 0.134385 0.732614
vt 0.145468 0.177588
vt 0.146017 0.726530
vt 0.145468 0.726530
vt 0.146017 0.177588
vt 0.144919 0.177588
vt 0.134385 0.747974
vt 0.133936 0.747885
vt 0.133514 0.747710
vt 0.135290 0.747885
vt 0.134842 0.747974
vt 0.132382 0.746331
vt 0.141625 0.177589
vt 0.142174 0.177589
vt 0.142174 0.726531
vt 0.132293 0.745883
vt 0.132293 0.745426
vt 0.142723 0.726531
vt 0.142723 0.177589
vt 0.132811 0.747133
vt 0.132557 0.746753
vt 0.133134 0.747456
vt 0.133936 0.743424
vt 0.136844 0.744978
vt 0.141076 0.177589
vt 0.132382 0.744978
vt 0.132557 0.744555
vt 0.141625 0.726531
vt 0.143272 0.177589
vt 0.143272 0.726531
vt 0.143821 0.726530
vt 0.143821 0.177589
vt 0.132811 0.733455
vt 0.144370 0.726530
vt 0.144370 0.177588
vt 0.133514 0.732878
vt 0.144919 0.726530
vt 0.135712 0.747710
vt 0.136669 0.746753
vt 0.136933 0.745883
vt 0.148212 0.177587
vt 0.148761 0.177587
vt 0.148761 0.726529
vt 0.136415 0.747133
vt 0.136092 0.747456
vt 0.136844 0.746331
vt 0.147663 0.177588
vt 0.148212 0.726529
vt 0.136415 0.733455
vt 0.136669 0.733835
vt 0.139429 0.177590
vt 0.132811 0.744175
vt 0.133134 0.743852
vt 0.133514 0.743598
vt 0.138880 0.177590
vt 0.139429 0.726532
vt 0.136685 0.177590
vt 0.137234 0.726532
vt 0.137234 0.177590
vt 0.134842 0.743334
vt 0.135290 0.743424
vt 0.135712 0.743598
vt 0.134385 0.743334
vt 0.136092 0.743852
vt 0.136415 0.744175
vt 0.136669 0.744555
vt 0.132842 0.177591
vt 0.136933 0.745426
vt 0.085155 0.003040
vt 0.044098 0.458943
vt 0.044098 0.003040
vt 0.085155 0.458943
vt 0.044098 0.500000
vt 0.085155 0.500000
vt 0.044098 0.955902
vt 0.085155 0.955902
vt 0.044098 0.996960
vt 0.003040 0.955902
vt 0.003040 0.500000
vt 0.126213 0.500000
vt 0.267066 0.003040
vt 0.267066 0.171507
vt 0.132293 0.003040
vt 0.085155 0.996960
vt 0.126213 0.955902
s 0
usemtl マテリアル.002
f 3/1/1 2/2/1 1/3/1
f 1/4/2 2/5/2 6/6/2
f 5/7/3 3/8/3 1/9/3
f 5/7/3 1/9/3 4/10/3
f 4/11/4 1/4/4 6/6/4
f 10/12/5 6/13/5 7/14/5
f 2/5/6 7/15/6 6/6/6
f 8/16/7 9/17/7 6/13/7
f 10/12/5 8/16/5 6/13/5
f 6/6/2 9/18/2 11/19/2
f 6/6/2 11/19/2 4/11/2
f 14/20/8 11/21/8 9/17/8
f 12/22/9 13/23/9 11/21/9
f 14/20/8 12/22/8 11/21/8
f 11/19/10 13/24/10 15/25/10
f 11/19/2 15/25/2 4/11/2
f 18/26/11 15/27/11 13/23/11
f 16/28/12 17/29/12 15/27/12
f 18/26/11 16/28/11 15/27/11
f 15/25/2 17/30/2 19/31/2
f 15/25/2 19/31/2 4/11/2
f 23/32/13 19/33/13 20/34/13
f 24/35/14 20/36/14 19/31/14
f 21/37/15 22/38/15 19/33/15
f 23/32/13 21/37/13 19/33/13
f 19/31/2 22/39/2 25/40/2
f 17/30/2 24/35/2 19/31/2
f 25/40/2 26/41/2 19/31/2
f 26/41/2 27/42/2 19/31/2
f 19/31/2 27/42/2 4/11/2
f 30/43/16 27/44/16 26/45/16
f 28/46/17 29/47/17 27/44/17
f 30/43/16 28/46/16 27/44/16
f 27/42/2 29/48/2 31/49/2
f 31/49/2 32/50/2 27/42/2
f 32/50/2 33/51/2 27/42/2
f 33/51/2 34/52/2 27/42/2
f 34/52/2 35/53/2 27/42/2
f 35/53/2 36/54/2 27/42/2
f 36/54/2 4/11/2 27/42/2
f 40/55/18 36/56/18 37/57/18
f 42/58/10 37/59/10 36/54/10
f 38/60/19 39/61/19 36/56/19
f 40/55/20 38/60/20 36/56/20
f 36/54/2 39/62/2 4/11/2
f 35/53/2 41/63/2 36/54/2
f 41/63/2 42/58/2 36/54/2
f 44/64/21 42/65/21 41/66/21
f 43/67/22 37/57/22 42/65/22
f 44/64/21 43/67/21 42/65/21
f 45/68/23 44/64/23 41/66/23
f 44/69/24 45/70/24 46/71/24
f 40/72/25 43/73/25 44/69/25
f 40/72/26 44/69/26 47/74/26
f 44/69/26 46/71/26 47/74/26
f 48/75/27 47/76/27 32/77/27
f 47/74/28 48/78/28 52/79/28
f 47/76/29 33/80/29 32/77/29
f 47/76/30 49/81/30 33/80/30
f 51/82/26 49/83/26 47/74/26
f 46/71/31 50/84/31 47/74/31
f 50/84/32 51/82/32 47/74/32
f 47/74/26 52/79/26 23/85/26
f 10/86/26 40/72/26 47/74/26
f 47/74/26 23/85/26 10/86/26
f 28/46/33 52/87/33 29/47/33
f 52/79/28 28/88/28 30/89/28
f 52/87/34 31/90/34 29/47/34
f 52/87/35 48/75/35 31/90/35
f 52/79/26 30/89/26 23/85/26
f 49/81/36 51/91/36 53/92/36
f 51/91/37 34/93/37 53/92/37
f 51/91/37 50/94/37 34/93/37
f 49/81/38 53/92/38 33/80/38
f 33/51/2 53/95/2 34/52/2
f 50/94/39 54/96/39 34/93/39
f 50/94/39 46/97/39 54/96/39
f 34/52/14 54/98/14 35/53/14
f 46/97/40 35/99/40 54/96/40
f 48/75/27 32/77/27 31/90/27
f 46/97/40 45/68/40 35/99/40
f 45/68/23 41/66/23 35/99/23
f 43/67/22 40/55/22 37/57/22
f 38/100/26 40/72/26 55/101/26
f 3/102/26 55/101/26 40/72/26
f 10/86/26 3/102/26 40/72/26
f 56/103/41 55/104/41 57/105/41
f 55/101/26 56/106/26 58/107/26
f 55/104/42 4/10/42 57/105/42
f 3/102/43 5/108/43 55/101/43
f 55/104/42 5/7/42 4/10/42
f 58/107/44 38/100/44 55/101/44
f 38/60/19 58/109/19 39/61/19
f 58/109/45 59/110/45 39/61/45
f 58/109/46 56/103/46 59/110/46
f 39/62/47 59/111/47 4/11/47
f 56/103/41 57/105/41 59/110/41
f 59/111/6 57/112/6 4/11/6
f 60/113/48 30/43/48 26/45/48
f 30/89/26 60/114/26 61/115/26
f 61/115/32 21/116/32 30/89/32
f 21/116/26 23/85/26 30/89/26
f 21/37/15 61/117/15 22/38/15
f 61/117/49 25/118/49 22/38/49
f 61/117/50 60/113/50 25/118/50
f 60/113/51 26/45/51 25/118/51
f 63/119/52 24/120/52 17/29/52
f 62/121/53 20/34/53 24/120/53
f 63/119/52 62/121/52 24/120/52
f 16/28/12 63/119/12 17/29/12
f 63/122/54 16/123/54 18/124/54
f 23/85/55 62/125/55 63/122/55
f 23/85/26 63/122/26 10/86/26
f 63/122/26 18/124/26 10/86/26
f 62/121/53 23/32/53 20/34/53
f 12/22/9 18/26/9 13/23/9
f 18/124/26 12/126/26 10/86/26
f 8/16/56 14/20/56 9/17/56
f 14/127/26 8/128/26 10/86/26
f 12/126/44 14/127/44 10/86/44
f 64/129/57 10/12/57 7/14/57
f 10/86/43 64/130/43 3/102/43
f 3/1/1 64/129/1 2/2/1
f 64/129/57 7/14/57 2/2/57
f 66/131/2 67/132/2 65/133/2
f 68/134/58 71/135/58 67/132/58
f 72/136/26 69/137/26 71/135/26
f 70/138/59 65/139/59 69/137/59
f 71/135/60 65/140/60 67/141/60
f 68/142/61 70/138/61 72/136/61
f 76/143/60 73/143/60 74/143/60
f 75/144/62 74/143/62 73/143/62
f 75/144/63 73/143/63 76/143/63
f 78/143/64 76/143/64 77/143/64
f 77/143/60 76/143/60 79/143/60
f 75/144/63 76/143/63 78/143/63
f 76/143/60 74/143/60 79/143/60
f 74/143/65 81/143/65 79/143/65
f 79/143/66 82/143/66 80/143/66
f 77/143/60 79/143/60 80/143/60
f 79/143/66 81/143/66 82/143/66
f 81/143/61 84/143/61 82/143/61
f 80/143/67 82/143/67 83/143/67
f 82/143/61 85/143/61 83/143/61
f 82/143/61 84/143/61 85/143/61
f 84/143/68 87/143/68 85/143/68
f 83/143/61 85/143/61 86/143/61
f 85/143/69 88/143/69 86/143/69
f 85/143/69 87/143/69 88/143/69
f 88/143/60 87/143/60 91/143/60
f 90/143/60 88/143/60 89/143/60
f 88/143/60 91/143/60 89/143/60
f 86/143/70 88/143/70 90/143/70
f 87/143/60 80/143/60 91/143/60
f 80/143/67 83/143/67 91/143/67
f 91/143/71 92/143/71 89/143/71
f 91/143/72 83/143/72 92/143/72
f 89/143/73 92/143/73 93/143/73
f 92/143/61 94/143/61 93/143/61
f 83/143/61 86/143/61 92/143/61
f 92/143/61 86/143/61 94/143/61
f 93/143/61 94/143/61 95/143/61
f 86/143/70 90/143/70 94/143/70
f 94/143/74 96/143/74 95/143/74
f 94/143/74 90/143/74 96/143/74
f 96/143/60 90/143/60 99/143/60
f 95/143/75 96/143/75 97/143/75
f 97/143/60 96/143/60 98/143/60
f 96/143/60 99/143/60 98/143/60
f 90/143/60 89/143/60 99/143/60
f 89/143/73 93/143/73 99/143/73
f 99/143/76 93/143/76 100/143/76
f 99/143/76 100/143/76 98/143/76
f 93/143/61 95/143/61 100/143/61
f 98/143/77 100/143/77 101/143/77
f 100/143/61 102/143/61 101/143/61
f 100/143/61 95/143/61 102/143/61
f 101/143/61 102/143/61 103/143/61
f 95/143/75 97/143/75 102/143/75
f 102/143/78 104/143/78 103/143/78
f 102/143/78 97/143/78 104/143/78
f 103/143/79 104/143/79 105/143/79
f 104/143/60 97/143/60 107/143/60
f 105/143/60 104/143/60 106/143/60
f 104/143/60 107/143/60 106/143/60
f 98/143/77 101/143/77 107/143/77
f 97/143/60 98/143/60 107/143/60
f 107/143/80 108/143/80 106/143/80
f 107/143/80 101/143/80 108/143/80
f 101/143/61 103/143/61 108/143/61
f 108/143/61 103/143/61 110/143/61
f 106/143/81 108/143/81 109/143/81
f 108/143/61 110/143/61 109/143/61
f 103/143/79 105/143/79 110/143/79
f 110/143/82 105/143/82 112/143/82
f 109/143/61 110/143/61 111/143/61
f 110/143/82 112/143/82 111/143/82
f 112/143/60 105/143/60 115/143/60
f 111/143/83 112/143/83 113/143/83
f 113/143/60 112/143/60 114/143/60
f 112/143/60 115/143/60 114/143/60
f 105/143/60 106/143/60 115/143/60
f 106/143/81 109/143/81 115/143/81
f 115/143/84 116/143/84 114/143/84
f 115/143/84 109/143/84 116/143/84
f 109/143/61 111/143/61 116/143/61
f 114/143/85 116/143/85 117/143/85
f 116/143/61 118/143/61 117/143/61
f 116/143/61 111/143/61 118/143/61
f 111/143/83 113/143/83 118/143/83
f 117/143/61 118/143/61 119/143/61
f 118/143/86 120/143/86 119/143/86
f 118/143/86 113/143/86 120/143/86
f 120/143/60 113/143/60 123/143/60
f 122/143/60 120/143/60 121/143/60
f 120/143/60 123/143/60 121/143/60
f 119/143/87 120/143/87 122/143/87
f 113/143/60 114/143/60 123/143/60
f 114/143/85 117/143/85 123/143/85
f 123/143/88 124/143/88 121/143/88
f 123/143/88 117/143/88 124/143/88
f 121/143/89 124/143/89 125/143/89
f 124/143/61 126/143/61 125/143/61
f 117/143/61 119/143/61 124/143/61
f 124/143/61 119/143/61 126/143/61
f 125/143/61 126/143/61 127/143/61
f 119/143/87 122/143/87 126/143/87
f 126/143/90 128/143/90 127/143/90
f 126/143/90 122/143/90 128/143/90
f 128/143/60 122/143/60 131/143/60
f 127/143/91 128/143/91 129/143/91
f 129/143/60 128/143/60 130/143/60
f 128/143/60 131/143/60 130/143/60
f 122/143/60 121/143/60 131/143/60
f 121/143/89 125/143/89 131/143/89
f 131/143/92 125/143/92 132/143/92
f 131/143/92 132/143/92 130/143/92
f 125/143/61 127/143/61 132/143/61
f 130/143/93 132/143/93 133/143/93
f 132/143/61 134/143/61 133/143/61
f 132/143/61 127/143/61 134/143/61
f 133/143/61 134/143/61 135/143/61
f 127/143/91 129/143/91 134/143/91
f 134/143/94 136/143/94 135/143/94
f 134/143/94 129/143/94 136/143/94
f 135/143/95 136/143/95 137/143/95
f 136/143/60 129/143/60 139/143/60
f 137/143/60 136/143/60 138/143/60
f 136/143/60 139/143/60 138/143/60
f 130/143/93 133/143/93 139/143/93
f 129/143/60 130/143/60 139/143/60
f 139/143/96 140/143/96 138/143/96
f 139/143/96 133/143/96 140/143/96
f 133/143/61 135/143/61 140/143/61
f 140/143/61 135/143/61 142/143/61
f 138/143/97 140/143/97 141/143/97
f 140/143/61 142/143/61 141/143/61
f 135/143/95 137/143/95 142/143/95
f 142/143/98 137/143/98 144/143/98
f 141/143/61 142/143/61 143/143/61
f 142/143/98 144/143/98 143/143/98
f 144/143/60 137/143/60 147/143/60
f 143/143/99 144/143/99 145/143/99
f 145/143/60 144/143/60 146/143/60
f 144/143/60 147/143/60 146/143/60
f 137/143/60 138/143/60 147/143/60
f 138/143/97 141/143/97 147/143/97
f 147/143/100 148/143/100 146/143/100
f 147/143/100 141/143/100 148/143/100
f 141/143/61 143/143/61 148/143/61
f 146/143/101 148/143/101 149/143/101
f 148/143/61 150/143/61 149/143/61
f 148/143/61 143/143/61 150/143/61
f 143/143/99 145/143/99 150/143/99
f 149/143/61 150/143/61 151/143/61
f 150/143/102 152/143/102 151/143/102
f 150/143/102 145/143/102 152/143/102
f 152/143/60 145/143/60 155/143/60
f 154/145/60 152/143/60 153/143/60
f 152/143/60 155/143/60 153/143/60
f 151/143/103 152/143/103 154/145/103
f 145/143/60 146/143/60 155/143/60
f 146/143/101 149/143/101 155/143/101
f 155/143/104 156/143/104 153/143/104
f 155/143/104 149/143/104 156/143/104
f 153/143/105 156/143/105 157/144/105
f 156/143/61 158/145/61 157/144/61
f 149/143/61 151/143/61 156/143/61
f 156/143/61 151/143/61 158/145/61
f 160/143/61 157/144/61 158/145/61
f 151/143/103 154/145/103 158/145/103
f 158/145/106 161/143/106 159/143/106
f 160/143/61 158/145/61 159/143/61
f 158/145/106 154/145/106 161/143/106
f 154/145/60 163/143/60 161/143/60
f 159/143/107 161/143/107 162/143/107
f 161/143/60 164/143/60 162/143/60
f 161/143/60 163/143/60 164/143/60
f 163/143/108 166/143/108 164/143/108
f 162/143/60 164/143/60 165/143/60
f 164/143/109 167/143/109 165/143/109
f 164/143/109 166/143/109 167/143/109
f 167/143/61 166/143/61 170/143/61
f 169/143/61 167/143/61 168/143/61
f 167/143/61 170/143/61 168/143/61
f 165/143/110 167/143/110 169/143/110
f 166/143/61 159/143/61 170/143/61
f 159/143/107 162/143/107 170/143/107
f 170/143/111 171/143/111 168/143/111
f 170/143/111 162/143/111 171/143/111
f 168/143/112 171/143/112 172/143/112
f 162/143/60 165/143/60 171/143/60
f 171/143/60 173/143/60 172/143/60
f 171/143/60 165/143/60 173/143/60
f 172/143/60 173/143/60 174/143/60
f 165/143/110 169/143/110 173/143/110
f 173/143/113 175/143/113 174/143/113
f 173/143/113 169/143/113 175/143/113
f 175/143/61 169/143/61 178/143/61
f 176/143/61 175/143/61 177/143/61
f 174/143/114 175/143/114 176/143/114
f 175/143/61 178/143/61 177/143/61
f 168/143/112 172/143/112 178/143/112
f 169/143/61 168/143/61 178/143/61
f 178/143/115 172/143/115 179/143/115
f 178/143/115 179/143/115 177/143/115
f 172/143/60 174/143/60 179/143/60
f 177/143/116 179/143/116 180/143/116
f 179/143/60 181/143/60 180/143/60
f 179/143/60 174/143/60 181/143/60
f 180/143/60 181/143/60 182/143/60
f 174/143/114 176/143/114 181/143/114
f 181/143/117 183/143/117 182/143/117
f 181/143/117 176/143/117 183/143/117
f 182/143/118 183/143/118 184/143/118
f 184/143/61 183/143/61 185/143/61
f 183/143/61 176/143/61 186/143/61
f 183/143/61 186/143/61 185/143/61
f 177/143/116 180/143/116 186/143/116
f 176/143/61 177/143/61 186/143/61
f 186/143/119 187/143/119 185/143/119
f 186/143/119 180/143/119 187/143/119
f 180/143/60 182/143/60 187/143/60
f 187/143/60 182/143/60 189/143/60
f 185/143/120 187/143/120 188/143/120
f 187/143/60 189/143/60 188/143/60
f 182/143/118 184/143/118 189/143/118
f 189/143/121 184/143/121 191/143/121
f 188/143/60 189/143/60 190/143/60
f 189/143/121 191/143/121 190/143/121
f 191/143/61 184/143/61 194/143/61
f 190/143/122 191/143/122 192/143/122
f 192/143/61 191/143/61 193/143/61
f 191/143/61 194/143/61 193/143/61
f 184/143/61 185/143/61 194/143/61
f 185/143/120 188/143/120 194/143/120
f 194/143/123 195/143/123 193/143/123
f 194/143/123 188/143/123 195/143/123
f 188/143/60 190/143/60 195/143/60
f 193/143/124 195/143/124 196/143/124
f 195/143/60 197/143/60 196/143/60
f 195/143/60 190/143/60 197/143/60
f 190/143/122 192/143/122 197/143/122
f 196/143/60 197/143/60 198/143/60
f 197/143/125 199/143/125 198/143/125
f 197/143/125 192/143/125 199/143/125
f 199/143/61 192/143/61 202/143/61
f 201/143/61 199/143/61 200/143/61
f 199/143/61 202/143/61 200/143/61
f 198/143/126 199/143/126 201/143/126
f 192/143/61 193/143/61 202/143/61
f 193/143/124 196/143/124 202/143/124
f 202/143/127 203/143/127 200/143/127
f 202/143/127 196/143/127 203/143/127
f 200/143/128 203/143/128 204/143/128
f 196/143/60 198/143/60 203/143/60
f 203/143/60 205/143/60 204/143/60
f 203/143/60 198/143/60 205/143/60
f 204/143/60 205/143/60 206/143/60
f 198/143/126 201/143/126 205/143/126
f 205/143/129 207/143/129 206/143/129
f 205/143/129 201/143/129 207/143/129
f 207/143/61 201/143/61 210/143/61
f 208/143/61 207/143/61 209/143/61
f 206/143/130 207/143/130 208/143/130
f 207/143/61 210/143/61 209/143/61
f 200/143/128 204/143/128 210/143/128
f 201/143/61 200/143/61 210/143/61
f 210/143/131 204/143/131 211/143/131
f 210/143/131 211/143/131 209/143/131
f 204/143/60 206/143/60 211/143/60
f 209/143/132 211/143/132 212/143/132
f 211/143/60 213/143/60 212/143/60
f 211/143/60 206/143/60 213/143/60
f 212/143/60 213/143/60 214/143/60
f 206/143/130 208/143/130 213/143/130
f 213/143/133 215/143/133 214/143/133
f 213/143/133 208/143/133 215/143/133
f 214/143/134 215/143/134 216/143/134
f 216/143/61 215/143/61 217/143/61
f 215/143/61 208/143/61 218/143/61
f 215/143/61 218/143/61 217/143/61
f 209/143/132 212/143/132 218/143/132
f 208/143/61 209/143/61 218/143/61
f 218/143/135 219/143/135 217/143/135
f 218/143/135 212/143/135 219/143/135
f 212/143/60 214/143/60 219/143/60
f 219/143/60 214/143/60 221/143/60
f 217/143/136 219/143/136 220/143/136
f 219/143/60 221/143/60 220/143/60
f 214/143/134 216/143/134 221/143/134
f 221/143/137 216/143/137 223/143/137
f 220/143/60 221/143/60 222/143/60
f 221/143/137 223/143/137 222/143/137
f 223/143/61 216/143/61 226/143/61
f 222/143/138 223/143/138 224/143/138
f 224/143/61 223/143/61 225/143/61
f 223/143/61 226/143/61 225/143/61
f 216/143/61 217/143/61 226/143/61
f 217/143/136 220/143/136 226/143/136
f 226/143/139 227/143/139 225/143/139
f 226/143/139 220/143/139 227/143/139
f 220/143/60 222/143/60 227/143/60
f 225/143/140 227/143/140 228/143/140
f 227/143/60 229/143/60 228/143/60
f 227/143/60 222/143/60 229/143/60
f 222/143/138 224/143/138 229/143/138
f 228/143/60 229/143/60 230/143/60
f 229/143/141 231/143/141 230/143/141
f 229/143/141 224/143/141 231/143/141
f 231/143/61 224/143/61 234/143/61
f 233/143/61 231/143/61 232/143/61
f 231/143/61 234/143/61 232/143/61
f 230/143/142 231/143/142 233/143/142
f 224/143/61 225/143/61 234/143/61
f 225/143/140 228/143/140 234/143/140
f 234/143/143 235/143/143 232/143/143
f 234/143/143 228/143/143 235/143/143
f 232/143/144 235/143/144 236/144/144
f 235/143/60 237/143/60 236/144/60
f 228/143/60 230/143/60 235/143/60
f 235/143/60 230/143/60 237/143/60
f 236/144/145 237/143/145 233/143/145
f 230/143/142 233/143/142 237/143/142
f 236/144/145 233/143/145 238/143/145
f 232/143/144 236/144/144 238/143/144
f 233/143/61 232/143/61 238/143/61
f 166/143/61 160/143/61 159/143/61
f 163/143/108 160/143/108 166/143/108
f 154/145/60 239/144/60 163/143/60
f 239/144/146 160/143/146 163/143/146
f 154/145/60 153/143/60 239/144/60
f 153/143/105 157/144/105 239/144/105
f 239/144/146 157/144/146 160/143/146
f 87/143/60 77/143/60 80/143/60
f 84/143/68 77/143/68 87/143/68
f 81/143/61 78/143/61 84/143/61
f 78/143/64 77/143/64 84/143/64
f 74/143/65 240/143/65 81/143/65
f 240/143/61 78/143/61 81/143/61
f 75/144/147 240/143/147 74/143/147
f 240/143/61 75/144/61 78/143/61
f 66/131/2 68/134/2 67/132/2
f 68/134/58 72/136/58 71/135/58
f 72/136/26 70/138/26 69/137/26
f 70/138/59 66/146/59 65/139/59
f 71/135/60 69/137/60 65/140/60
f 68/142/61 66/147/61 70/138/61
