# Blender 5.1.1
# www.blender.org
mtllib SpikeBlock.mtl
o 円錐
v 0.000000 0.499254 -0.200000
v 0.039018 0.499254 -0.196157
v 0.076537 0.499254 -0.184776
v 0.111114 0.499254 -0.166294
v 0.141421 0.499254 -0.141421
v 0.166294 0.499254 -0.111114
v 0.184776 0.499254 -0.076537
v 0.196157 0.499254 -0.039018
v 0.200000 0.499254 0.000000
v 0.196157 0.499254 0.039018
v 0.184776 0.499254 0.076537
v 0.166294 0.499254 0.111114
v 0.141421 0.499254 0.141421
v 0.111114 0.499254 0.166294
v 0.076537 0.499254 0.184776
v 0.039018 0.499254 0.196157
v 0.000000 0.499254 0.200000
v -0.039018 0.499254 0.196157
v -0.076537 0.499254 0.184776
v -0.111114 0.499254 0.166294
v -0.141421 0.499254 0.141421
v -0.166294 0.499254 0.111114
v -0.184776 0.499254 0.076537
v -0.196157 0.499254 0.039018
v -0.200000 0.499254 0.000000
v -0.196157 0.499254 -0.039018
v -0.184776 0.499254 -0.076537
v -0.166294 0.499254 -0.111114
v -0.141421 0.499254 -0.141421
v -0.111114 0.499254 -0.166294
v -0.076537 0.499254 -0.184776
v -0.039018 0.499254 -0.196157
v 0.000000 0.699254 0.000000
v -0.500000 -0.500000 0.500000
v -0.500000 -0.500000 -0.500000
v -0.500000 0.500000 0.500000
v 0.500000 -0.500000 0.500000
v 0.500000 0.500000 0.500000
v 0.500000 -0.500000 -0.500000
v 0.500000 0.500000 -0.500000
v -0.500000 0.500000 -0.500000
v 0.501648 0.000000 -0.200000
v 0.501648 -0.039018 -0.196157
v 0.701648 -0.000000 0.000000
v 0.501648 0.039018 -0.196157
v 0.501648 0.076537 -0.184776
v 0.501648 0.111114 -0.166294
v 0.501648 -0.111114 -0.166294
v 0.501648 0.166294 -0.111114
v 0.501648 -0.039018 0.196157
v 0.501648 -0.076537 0.184776
v 0.501648 0.000000 0.200000
v 0.501648 -0.166294 0.111114
v 0.501648 0.039018 0.196157
v 0.501648 0.076537 0.184776
v 0.501648 0.111114 0.166294
v 0.501648 -0.196157 -0.039018
v 0.501648 0.196157 0.039018
v 0.501648 0.184776 0.076537
v 0.501648 0.200000 0.000000
v 0.501648 0.196157 -0.039018
v 0.501648 0.184776 -0.076537
v 0.501648 0.166294 0.111114
v 0.501648 0.141421 0.141421
v 0.501648 -0.184776 -0.076537
v 0.501648 -0.200000 0.000000
v 0.501648 -0.166294 -0.111114
v 0.501648 -0.196157 0.039018
v 0.501648 -0.184776 0.076537
v 0.501648 -0.141421 -0.141421
v 0.501648 -0.141421 0.141421
v 0.501648 -0.111114 0.166294
v 0.501648 0.141421 -0.141421
v 0.501648 -0.076537 -0.184776
v 0.000000 -0.499254 -0.200000
v -0.039018 -0.499254 -0.196157
v -0.000000 -0.699254 0.000000
v 0.039018 -0.499254 -0.196157
v 0.076537 -0.499254 -0.184776
v 0.166294 -0.499254 -0.111114
v -0.111114 -0.499254 -0.166294
v -0.196157 -0.499254 -0.039018
v -0.166294 -0.499254 0.111114
v -0.039018 -0.499254 0.196157
v -0.076537 -0.499254 0.184776
v 0.000000 -0.499254 0.200000
v -0.111114 -0.499254 0.166294
v 0.039018 -0.499254 0.196157
v 0.111114 -0.499254 0.166294
v 0.196157 -0.499254 0.039018
v 0.184776 -0.499254 0.076537
v 0.200000 -0.499254 0.000000
v 0.196157 -0.499254 -0.039018
v 0.184776 -0.499254 -0.076537
v 0.166294 -0.499254 0.111114
v 0.141421 -0.499254 0.141421
v 0.076537 -0.499254 0.184776
v -0.141421 -0.499254 0.141421
v -0.184776 -0.499254 0.076537
v -0.196157 -0.499254 0.039018
v -0.200000 -0.499254 0.000000
v -0.184776 -0.499254 -0.076537
v -0.166294 -0.499254 -0.111114
v -0.141421 -0.499254 -0.141421
v -0.076537 -0.499254 -0.184776
v 0.141421 -0.499254 -0.141421
v 0.111114 -0.499254 -0.166294
v -0.501648 0.000000 -0.200000
v -0.501648 0.039018 -0.196157
v -0.701648 -0.000000 0.000000
v -0.501648 -0.039018 -0.196157
v -0.501648 -0.076537 -0.184776
v -0.501648 -0.111114 -0.166294
v -0.501648 0.196157 -0.039018
v -0.501648 -0.166294 -0.111114
v -0.501648 -0.196157 0.039018
v -0.501648 -0.184776 0.076537
v -0.501648 -0.200000 0.000000
v -0.501648 -0.166294 0.111114
v -0.501648 -0.196157 -0.039018
v -0.501648 -0.111114 0.166294
v -0.501648 0.039018 0.196157
v -0.501648 0.076537 0.184776
v -0.501648 0.000000 0.200000
v -0.501648 0.166294 0.111114
v -0.501648 -0.039018 0.196157
v -0.501648 0.196157 0.039018
v -0.501648 0.200000 0.000000
v -0.501648 0.184776 0.076537
v -0.501648 -0.076537 0.184776
v -0.501648 0.141421 0.141421
v -0.501648 0.111114 0.166294
v -0.501648 -0.141421 0.141421
v -0.501648 -0.184776 -0.076537
v -0.501648 -0.141421 -0.141421
v -0.501648 0.184776 -0.076537
v -0.501648 0.166294 -0.111114
v -0.501648 0.111114 -0.166294
v -0.501648 0.076537 -0.184776
v -0.501648 0.141421 -0.141421
v -0.200000 0.000000 0.500475
v -0.196157 0.039018 0.500475
v 0.000000 -0.000000 0.700475
v -0.196157 -0.039018 0.500475
v -0.184776 -0.076537 0.500475
v -0.111114 -0.166294 0.500475
v -0.166294 0.111114 0.500475
v -0.039018 0.196157 0.500475
v 0.111114 0.166294 0.500475
v 0.196157 0.039018 0.500475
v 0.039018 -0.196157 0.500475
v 0.076537 -0.184776 0.500475
v -0.000000 -0.200000 0.500475
v 0.111114 -0.166294 0.500475
v -0.039018 -0.196157 0.500475
v -0.076537 -0.184776 0.500475
v 0.141421 -0.141421 0.500475
v 0.166294 -0.111114 0.500475
v 0.184776 -0.076537 0.500475
v 0.196157 -0.039018 0.500475
v 0.200000 0.000000 0.500475
v 0.184776 0.076537 0.500475
v 0.166294 0.111114 0.500475
v 0.141421 0.141421 0.500475
v 0.076537 0.184776 0.500475
v 0.039018 0.196157 0.500475
v -0.000000 0.200000 0.500475
v -0.076537 0.184776 0.500475
v -0.111114 0.166294 0.500475
v -0.141421 0.141421 0.500475
v -0.184776 0.076537 0.500475
v -0.141421 -0.141421 0.500475
v -0.166294 -0.111114 0.500475
v 0.200000 0.000000 -0.500475
v 0.196157 0.039018 -0.500475
v 0.000000 -0.000000 -0.700475
v 0.196157 -0.039018 -0.500475
v 0.184776 -0.076537 -0.500475
v 0.111114 -0.166294 -0.500475
v 0.166294 0.111114 -0.500475
v 0.039018 0.196157 -0.500475
v -0.196157 0.039018 -0.500475
v -0.184776 0.076537 -0.500475
v -0.200000 0.000000 -0.500475
v -0.166294 0.111114 -0.500475
v -0.196157 -0.039018 -0.500475
v -0.166294 -0.111114 -0.500475
v -0.039018 -0.196157 -0.500475
v -0.076537 -0.184776 -0.500475
v -0.000000 -0.200000 -0.500475
v 0.039018 -0.196157 -0.500475
v 0.076537 -0.184776 -0.500475
v -0.111114 -0.166294 -0.500475
v -0.141421 -0.141421 -0.500475
v -0.184776 -0.076537 -0.500475
v -0.141421 0.141421 -0.500475
v -0.111114 0.166294 -0.500475
v -0.076537 0.184776 -0.500475
v -0.039018 0.196157 -0.500475
v -0.000000 0.200000 -0.500475
v 0.076537 0.184776 -0.500475
v 0.111114 0.166294 -0.500475
v 0.141421 0.141421 -0.500475
v 0.184776 0.076537 -0.500475
v 0.141421 -0.141421 -0.500475
v 0.166294 -0.111114 -0.500475
vn 0.0695 0.7054 -0.7054
vn 0.2058 0.7054 -0.6783
vn 0.3341 0.7054 -0.6251
vn 0.4497 0.7054 -0.5479
vn 0.5479 0.7054 -0.4497
vn 0.6251 0.7054 -0.3341
vn 0.6783 0.7054 -0.2058
vn 0.7054 0.7054 -0.0695
vn 0.7054 0.7054 0.0695
vn 0.6783 0.7054 0.2058
vn 0.6251 0.7054 0.3341
vn 0.5479 0.7054 0.4497
vn 0.4497 0.7054 0.5479
vn 0.3341 0.7054 0.6251
vn 0.2058 0.7054 0.6783
vn 0.0695 0.7054 0.7054
vn -0.0695 0.7054 0.7054
vn -0.2058 0.7054 0.6783
vn -0.3341 0.7054 0.6251
vn -0.4497 0.7054 0.5479
vn -0.5479 0.7054 0.4497
vn -0.6251 0.7054 0.3341
vn -0.6783 0.7054 0.2058
vn -0.7054 0.7054 0.0695
vn -0.7054 0.7054 -0.0695
vn -0.6783 0.7054 -0.2058
vn -0.6251 0.7054 -0.3341
vn -0.5479 0.7054 -0.4497
vn -0.4497 0.7054 -0.5479
vn -0.3341 0.7054 -0.6251
vn -0.0000 -1.0000 -0.0000
vn -0.2058 0.7054 -0.6783
vn -0.0695 0.7054 -0.7054
vn -1.0000 -0.0000 -0.0000
vn -0.0000 -0.0000 1.0000
vn -0.0000 -0.0000 -1.0000
vn 1.0000 -0.0000 -0.0000
vn -0.0000 1.0000 -0.0000
vn 0.7054 -0.0695 -0.7054
vn 0.7054 0.0695 -0.7054
vn 0.7054 0.2058 -0.6783
vn 0.7054 -0.2058 0.6783
vn 0.7054 -0.0695 0.7054
vn 0.7054 0.6783 0.2058
vn 0.7054 0.6783 -0.2058
vn 0.7054 0.6251 -0.3341
vn 0.7054 0.6251 0.3341
vn 0.7054 0.5479 0.4497
vn 0.7054 0.4497 0.5479
vn 0.7054 -0.6783 -0.2058
vn 0.7054 -0.7054 -0.0695
vn 0.7054 -0.7054 0.0695
vn 0.7054 -0.6783 0.2058
vn 0.7054 -0.6251 0.3341
vn 0.7054 -0.5479 -0.4497
vn 0.7054 -0.6251 -0.3341
vn 0.7054 -0.4497 -0.5479
vn 0.7054 0.3341 0.6251
vn 0.7054 0.2058 0.6783
vn 0.7054 0.0695 0.7054
vn 0.7054 -0.5479 0.4497
vn 0.7054 -0.4497 0.5479
vn 0.7054 -0.3341 0.6251
vn 0.7054 0.5479 -0.4497
vn 0.7054 0.4497 -0.5479
vn 0.7054 -0.3341 -0.6251
vn 0.7054 -0.2058 -0.6783
vn 0.7054 0.3341 -0.6251
vn -0.0695 -0.7054 -0.7054
vn 0.0695 -0.7054 -0.7054
vn 0.2058 -0.7054 -0.6783
vn -0.2058 -0.7054 0.6783
vn -0.0695 -0.7054 0.7054
vn 0.6783 -0.7054 0.2058
vn 0.6783 -0.7054 -0.2058
vn 0.6251 -0.7054 -0.3341
vn 0.6251 -0.7054 0.3341
vn 0.5479 -0.7054 0.4497
vn 0.4497 -0.7054 0.5479
vn 0.3341 -0.7054 0.6251
vn 0.2058 -0.7054 0.6783
vn 0.0695 -0.7054 0.7054
vn -0.4497 -0.7054 0.5479
vn -0.3341 -0.7054 0.6251
vn -0.5479 -0.7054 0.4497
vn -0.6251 -0.7054 0.3341
vn -0.7054 -0.7054 0.0695
vn -0.6783 -0.7054 0.2058
vn -0.7054 -0.7054 -0.0695
vn -0.6783 -0.7054 -0.2058
vn -0.5479 -0.7054 -0.4497
vn -0.6251 -0.7054 -0.3341
vn -0.4497 -0.7054 -0.5479
vn -0.3341 -0.7054 -0.6251
vn -0.2058 -0.7054 -0.6783
vn 0.5479 -0.7054 -0.4497
vn 0.4497 -0.7054 -0.5479
vn 0.3341 -0.7054 -0.6251
vn -0.7054 0.0695 -0.7054
vn -0.7054 -0.0695 -0.7054
vn -0.7054 -0.2058 -0.6783
vn -0.7054 -0.6783 0.2058
vn -0.7054 0.2058 0.6783
vn -0.7054 0.0695 0.7054
vn -0.7054 0.6783 0.2058
vn -0.7054 0.6251 0.3341
vn -0.7054 -0.0695 0.7054
vn -0.7054 -0.2058 0.6783
vn -0.7054 -0.3341 0.6251
vn -0.7054 0.5479 0.4497
vn -0.7054 0.4497 0.5479
vn -0.7054 0.3341 0.6251
vn -0.7054 -0.4497 0.5479
vn -0.7054 -0.5479 0.4497
vn -0.7054 -0.6783 -0.2058
vn -0.7054 -0.6251 -0.3341
vn -0.7054 -0.6251 0.3341
vn -0.7054 -0.5479 -0.4497
vn -0.7054 -0.4497 -0.5479
vn -0.7054 0.6783 -0.2058
vn -0.7054 0.3341 -0.6251
vn -0.7054 0.4497 -0.5479
vn -0.7054 0.5479 -0.4497
vn -0.7054 0.2058 -0.6783
vn -0.7054 0.6251 -0.3341
vn -0.7054 -0.3341 -0.6251
vn -0.6783 -0.2058 0.7054
vn 0.2058 -0.6783 0.7054
vn -0.2058 -0.6783 0.7054
vn -0.3341 -0.6251 0.7054
vn 0.4497 -0.5479 0.7054
vn 0.3341 -0.6251 0.7054
vn 0.6251 -0.3341 0.7054
vn 0.5479 -0.4497 0.7054
vn 0.6783 -0.2058 0.7054
vn 0.6783 0.2058 0.7054
vn 0.5479 0.4497 0.7054
vn 0.6251 0.3341 0.7054
vn 0.4497 0.5479 0.7054
vn 0.3341 0.6251 0.7054
vn 0.2058 0.6783 0.7054
vn -0.2058 0.6783 0.7054
vn -0.3341 0.6251 0.7054
vn -0.4497 0.5479 0.7054
vn -0.5479 0.4497 0.7054
vn -0.6251 0.3341 0.7054
vn -0.6783 0.2058 0.7054
vn -0.4497 -0.5479 0.7054
vn -0.5479 -0.4497 0.7054
vn -0.6251 -0.3341 0.7054
vn 0.6783 -0.2058 -0.7054
vn -0.6783 0.2058 -0.7054
vn -0.2058 -0.6783 -0.7054
vn 0.2058 -0.6783 -0.7054
vn 0.3341 -0.6251 -0.7054
vn -0.3341 -0.6251 -0.7054
vn -0.4497 -0.5479 -0.7054
vn -0.5479 -0.4497 -0.7054
vn -0.6251 -0.3341 -0.7054
vn -0.6783 -0.2058 -0.7054
vn -0.5479 0.4497 -0.7054
vn -0.6251 0.3341 -0.7054
vn -0.3341 0.6251 -0.7054
vn -0.4497 0.5479 -0.7054
vn -0.2058 0.6783 -0.7054
vn 0.2058 0.6783 -0.7054
vn 0.4497 0.5479 -0.7054
vn 0.3341 0.6251 -0.7054
vn 0.5479 0.4497 -0.7054
vn 0.6251 0.3341 -0.7054
vn 0.6783 0.2058 -0.7054
vn 0.4497 -0.5479 -0.7054
vn 0.5479 -0.4497 -0.7054
vn 0.6251 -0.3341 -0.7054
vt 0.724061 0.122319
vt 0.625487 0.112611
vt 0.724061 0.102902
vt 0.720273 0.083858
vt 0.712842 0.065918
vt 0.702055 0.049773
vt 0.688324 0.036043
vt 0.672180 0.025256
vt 0.654240 0.017825
vt 0.635196 0.014037
vt 0.615779 0.014037
vt 0.596734 0.017825
vt 0.578795 0.025255
vt 0.562650 0.036043
vt 0.548920 0.049773
vt 0.538132 0.065918
vt 0.530702 0.083858
vt 0.526913 0.102902
vt 0.526913 0.122319
vt 0.530701 0.141364
vt 0.538132 0.159303
vt 0.548920 0.175448
vt 0.562650 0.189178
vt 0.578795 0.199966
vt 0.596734 0.207396
vt 0.615779 0.211185
vt 0.635196 0.211185
vt 0.654240 0.207396
vt 0.672180 0.199966
vt 0.688324 0.189178
vt 0.702055 0.175448
vt 0.712842 0.159303
vt 0.032746 0.857629
vt 0.068392 0.868443
vt 0.058851 0.771572
vt 0.720273 0.141364
vt 0.077750 0.866581
vt 0.086564 0.862930
vt 0.094497 0.857629
vt 0.101244 0.850883
vt 0.106545 0.842950
vt 0.110196 0.834135
vt 0.112057 0.824778
vt 0.112057 0.815237
vt 0.110196 0.805879
vt 0.106545 0.797064
vt 0.101244 0.789131
vt 0.094497 0.782385
vt 0.086564 0.777084
vt 0.077750 0.773433
vt 0.068392 0.771572
vt 0.049494 0.773433
vt 0.040679 0.777084
vt 0.032746 0.782385
vt 0.025999 0.789131
vt 0.020699 0.797064
vt 0.017048 0.805879
vt 0.015186 0.815237
vt 0.015186 0.824778
vt 0.017048 0.834135
vt 0.020699 0.842950
vt 0.025999 0.850883
vt 0.040679 0.862930
vt 0.049494 0.866581
vt 0.058851 0.868443
vt 0.500107 0.013569
vt 0.256758 0.256918
vt 0.256758 0.013569
vt 0.256758 0.500267
vt 0.013409 0.743616
vt 0.013409 0.500267
vt 0.500107 0.743616
vt 0.500107 0.986964
vt 0.256758 0.986964
vt 0.256758 0.743616
vt 0.500107 0.256918
vt 0.500107 0.500267
vt 0.743456 0.500267
vt 0.743456 0.743616
vt 0.724061 0.350743
vt 0.625487 0.341035
vt 0.724061 0.331326
vt 0.184759 0.935246
vt 0.194117 0.933384
vt 0.202932 0.929733
vt 0.720273 0.369788
vt 0.712842 0.387727
vt 0.165861 0.933384
vt 0.175218 0.935246
vt 0.217611 0.917686
vt 0.149113 0.924433
vt 0.175218 0.838375
vt 0.538132 0.294342
vt 0.530702 0.312282
vt 0.184759 0.838375
vt 0.210864 0.849188
vt 0.526913 0.331326
vt 0.165861 0.840236
vt 0.157046 0.843888
vt 0.228424 0.882040
vt 0.149113 0.849188
vt 0.142366 0.855935
vt 0.131553 0.891581
vt 0.578795 0.428390
vt 0.596734 0.435820
vt 0.131553 0.882040
vt 0.615779 0.439609
vt 0.133415 0.900939
vt 0.137066 0.909753
vt 0.635196 0.439609
vt 0.654240 0.435820
vt 0.142366 0.917686
vt 0.672180 0.428390
vt 0.562650 0.417602
vt 0.133415 0.872682
vt 0.548920 0.403872
vt 0.137066 0.863868
vt 0.538132 0.387727
vt 0.672180 0.253680
vt 0.654240 0.246249
vt 0.226563 0.900938
vt 0.228424 0.891581
vt 0.635196 0.242461
vt 0.226563 0.872682
vt 0.222912 0.863868
vt 0.615779 0.242461
vt 0.596734 0.246249
vt 0.217611 0.855935
vt 0.578795 0.253680
vt 0.702055 0.278198
vt 0.688325 0.264467
vt 0.222912 0.909753
vt 0.712843 0.294342
vt 0.530702 0.369788
vt 0.526913 0.350743
vt 0.562650 0.264467
vt 0.202932 0.843888
vt 0.194117 0.840236
vt 0.548920 0.278197
vt 0.688324 0.417602
vt 0.157046 0.929733
vt 0.702055 0.403872
vt 0.720273 0.312282
vt 0.210864 0.924433
vt 0.922316 0.234376
vt 0.823742 0.224668
vt 0.922316 0.214959
vt 0.826932 0.609849
vt 0.836290 0.607988
vt 0.845105 0.604337
vt 0.918528 0.253421
vt 0.911097 0.271360
vt 0.817392 0.609849
vt 0.791286 0.599036
vt 0.859784 0.592290
vt 0.817392 0.512978
vt 0.870597 0.556643
vt 0.853038 0.523792
vt 0.736387 0.177976
vt 0.728956 0.195915
vt 0.836290 0.514840
vt 0.826932 0.512978
vt 0.725168 0.214959
vt 0.808034 0.514840
vt 0.799219 0.518491
vt 0.784540 0.530538
vt 0.773727 0.566184
vt 0.777050 0.312023
vt 0.794989 0.319454
vt 0.773727 0.556643
vt 0.814034 0.323242
vt 0.775588 0.575542
vt 0.779239 0.584357
vt 0.833451 0.323242
vt 0.852495 0.319454
vt 0.784540 0.592290
vt 0.870434 0.312023
vt 0.760905 0.301235
vt 0.775588 0.547286
vt 0.747175 0.287505
vt 0.779239 0.538471
vt 0.736387 0.271360
vt 0.728956 0.253421
vt 0.791286 0.523792
vt 0.725168 0.234376
vt 0.760905 0.148100
vt 0.747175 0.161831
vt 0.845105 0.518491
vt 0.777050 0.137313
vt 0.794989 0.129882
vt 0.865085 0.538471
vt 0.859784 0.530538
vt 0.833451 0.126094
vt 0.814034 0.126094
vt 0.868736 0.547286
vt 0.852495 0.129882
vt 0.870435 0.137313
vt 0.868736 0.575542
vt 0.870597 0.566184
vt 0.900310 0.161831
vt 0.886579 0.148100
vt 0.865085 0.584357
vt 0.911097 0.177976
vt 0.918528 0.195915
vt 0.853038 0.599036
vt 0.886579 0.301235
vt 0.799219 0.604337
vt 0.808034 0.607988
vt 0.900310 0.287505
vt 0.211185 0.122319
vt 0.112610 0.112610
vt 0.211185 0.102902
vt 0.581269 0.868442
vt 0.590626 0.866581
vt 0.599441 0.862930
vt 0.207396 0.141364
vt 0.199966 0.159303
vt 0.562370 0.866581
vt 0.571728 0.868442
vt 0.624934 0.815237
vt 0.545623 0.857629
vt 0.528063 0.824778
vt 0.065918 0.199966
vt 0.083858 0.207396
vt 0.529924 0.805879
vt 0.528063 0.815237
vt 0.102902 0.211184
vt 0.529924 0.834135
vt 0.533576 0.842950
vt 0.538876 0.789131
vt 0.571728 0.771572
vt 0.025255 0.065918
vt 0.017825 0.083858
vt 0.581269 0.771572
vt 0.607374 0.782385
vt 0.014037 0.102902
vt 0.562370 0.773433
vt 0.553556 0.777084
vt 0.619421 0.797064
vt 0.122319 0.014037
vt 0.102902 0.014037
vt 0.623072 0.805879
vt 0.083858 0.017825
vt 0.614121 0.789131
vt 0.065918 0.025255
vt 0.141364 0.017825
vt 0.014037 0.122319
vt 0.017825 0.141363
vt 0.545623 0.782385
vt 0.025255 0.159303
vt 0.049773 0.036043
vt 0.599441 0.777084
vt 0.590626 0.773433
vt 0.036043 0.049773
vt 0.036043 0.175448
vt 0.533576 0.797064
vt 0.049773 0.189178
vt 0.122319 0.211185
vt 0.141363 0.207396
vt 0.538876 0.850883
vt 0.159303 0.199966
vt 0.175448 0.189178
vt 0.553556 0.862930
vt 0.189178 0.175448
vt 0.159303 0.025255
vt 0.623072 0.834135
vt 0.624934 0.824778
vt 0.614121 0.850883
vt 0.207396 0.083858
vt 0.199966 0.065918
vt 0.607374 0.857629
vt 0.189178 0.049773
vt 0.619421 0.842950
vt 0.175448 0.036043
vt 0.211185 0.350743
vt 0.112611 0.341035
vt 0.211185 0.331326
vt 0.785989 0.474088
vt 0.795346 0.472226
vt 0.804161 0.468575
vt 0.207396 0.369788
vt 0.199966 0.387727
vt 0.776448 0.474088
vt 0.750342 0.463275
vt 0.818840 0.456528
vt 0.732783 0.430423
vt 0.829653 0.420882
vt 0.812094 0.388030
vt 0.776448 0.377217
vt 0.065918 0.428390
vt 0.083858 0.435820
vt 0.734644 0.411524
vt 0.732783 0.420882
vt 0.102902 0.439609
vt 0.734644 0.439780
vt 0.738295 0.448595
vt 0.122319 0.439609
vt 0.141363 0.435820
vt 0.743596 0.456528
vt 0.159303 0.428390
vt 0.036043 0.403872
vt 0.049773 0.417602
vt 0.743596 0.394777
vt 0.738295 0.402710
vt 0.017825 0.369788
vt 0.025255 0.387727
vt 0.758275 0.382729
vt 0.750342 0.388030
vt 0.014037 0.331326
vt 0.014037 0.350743
vt 0.767090 0.379078
vt 0.017825 0.312282
vt 0.025255 0.294342
vt 0.795346 0.379078
vt 0.785989 0.377217
vt 0.049773 0.264467
vt 0.036043 0.278197
vt 0.804161 0.382729
vt 0.065918 0.253680
vt 0.083858 0.246249
vt 0.824141 0.402710
vt 0.818840 0.394777
vt 0.122319 0.242461
vt 0.102902 0.242461
vt 0.827792 0.411524
vt 0.141364 0.246249
vt 0.159303 0.253680
vt 0.829654 0.430423
vt 0.175448 0.264467
vt 0.827792 0.439780
vt 0.189178 0.278197
vt 0.824141 0.448595
vt 0.199966 0.294342
vt 0.207396 0.312282
vt 0.812094 0.463275
vt 0.175448 0.417602
vt 0.758275 0.468575
vt 0.767090 0.472226
vt 0.189178 0.403872
vt 0.939556 0.852845
vt 0.840982 0.843136
vt 0.939556 0.833428
vt 0.904510 0.112057
vt 0.913868 0.110196
vt 0.922683 0.106545
vt 0.935768 0.871890
vt 0.928337 0.889829
vt 0.894970 0.112057
vt 0.868864 0.101244
vt 0.937362 0.094498
vt 0.894970 0.015186
vt 0.948175 0.058851
vt 0.753627 0.796444
vt 0.746196 0.814384
vt 0.913868 0.017048
vt 0.904510 0.015186
vt 0.742408 0.833428
vt 0.885612 0.017048
vt 0.876797 0.020699
vt 0.862118 0.032746
vt 0.851305 0.068392
vt 0.794289 0.930492
vt 0.812229 0.937922
vt 0.851305 0.058851
vt 0.831273 0.941711
vt 0.853166 0.077750
vt 0.856817 0.086565
vt 0.850690 0.941711
vt 0.869735 0.937922
vt 0.862118 0.094498
vt 0.887674 0.930492
vt 0.778145 0.919704
vt 0.853166 0.049494
vt 0.764414 0.905974
vt 0.856817 0.040679
vt 0.753627 0.889829
vt 0.746196 0.871890
vt 0.868864 0.025999
vt 0.742408 0.852845
vt 0.778145 0.766569
vt 0.764414 0.780299
vt 0.930616 0.025999
vt 0.922683 0.020699
vt 0.812229 0.748351
vt 0.794290 0.755781
vt 0.942663 0.040679
vt 0.937362 0.032746
vt 0.850691 0.744563
vt 0.831273 0.744563
vt 0.946314 0.049494
vt 0.869735 0.748351
vt 0.887674 0.755782
vt 0.946314 0.077750
vt 0.948175 0.068392
vt 0.917549 0.780299
vt 0.903819 0.766569
vt 0.942663 0.086565
vt 0.928337 0.796444
vt 0.935768 0.814384
vt 0.930616 0.101244
vt 0.903819 0.919704
vt 0.876797 0.106545
vt 0.885612 0.110196
vt 0.917549 0.905974
s 0
usemtl マテリアル
f 1/1/1 33/2/1 2/3/1
f 2/3/2 33/2/2 3/4/2
f 3/4/3 33/2/3 4/5/3
f 4/5/4 33/2/4 5/6/4
f 5/6/5 33/2/5 6/7/5
f 6/7/6 33/2/6 7/8/6
f 7/8/7 33/2/7 8/9/7
f 8/9/8 33/2/8 9/10/8
f 9/10/9 33/2/9 10/11/9
f 10/11/10 33/2/10 11/12/10
f 11/12/11 33/2/11 12/13/11
f 12/13/12 33/2/12 13/14/12
f 13/14/13 33/2/13 14/15/13
f 14/15/14 33/2/14 15/16/14
f 15/16/15 33/2/15 16/17/15
f 16/17/16 33/2/16 17/18/16
f 17/18/17 33/2/17 18/19/17
f 18/19/18 33/2/18 19/20/18
f 19/20/19 33/2/19 20/21/19
f 20/21/20 33/2/20 21/22/20
f 21/22/21 33/2/21 22/23/21
f 22/23/22 33/2/22 23/24/22
f 23/24/23 33/2/23 24/25/23
f 24/25/24 33/2/24 25/26/24
f 25/26/25 33/2/25 26/27/25
f 26/27/26 33/2/26 27/28/26
f 27/28/27 33/2/27 28/29/27
f 28/29/28 33/2/28 29/30/28
f 29/30/29 33/2/29 30/31/29
f 30/31/30 33/2/30 31/32/30
f 28/33/31 32/34/31 16/35/31
f 31/32/32 33/2/32 32/36/32
f 32/36/33 33/2/33 1/1/33
f 32/34/31 1/37/31 2/38/31
f 2/38/31 3/39/31 4/40/31
f 4/40/31 5/41/31 6/42/31
f 6/42/31 7/43/31 8/44/31
f 8/44/31 9/45/31 10/46/31
f 10/46/31 11/47/31 12/48/31
f 12/48/31 13/49/31 14/50/31
f 14/50/31 15/51/31 16/35/31
f 16/35/31 17/52/31 18/53/31
f 18/53/31 19/54/31 20/55/31
f 20/55/31 21/56/31 22/57/31
f 22/57/31 23/58/31 24/59/31
f 24/59/31 25/60/31 26/61/31
f 26/61/31 27/62/31 28/33/31
f 28/33/31 29/63/31 30/64/31
f 30/64/31 31/65/31 32/34/31
f 32/34/31 2/38/31 4/40/31
f 4/40/31 6/42/31 8/44/31
f 8/44/31 10/46/31 12/48/31
f 12/48/31 14/50/31 16/35/31
f 16/35/31 18/53/31 20/55/31
f 20/55/31 22/57/31 24/59/31
f 24/59/31 26/61/31 28/33/31
f 28/33/31 30/64/31 32/34/31
f 32/34/31 4/40/31 8/44/31
f 8/44/31 12/48/31 32/34/31
f 12/48/31 16/35/31 32/34/31
f 16/35/31 20/55/31 24/59/31
f 24/59/31 28/33/31 16/35/31
f 36/66/34 35/67/34 34/68/34
f 39/69/31 34/70/31 35/71/31
f 38/72/35 36/73/35 34/74/35
f 38/72/35 34/74/35 37/75/35
f 39/69/31 37/75/31 34/70/31
f 41/76/36 39/69/36 35/67/36
f 40/77/37 37/75/37 39/69/37
f 41/76/36 40/77/36 39/69/36
f 36/66/34 41/76/34 35/67/34
f 41/78/38 36/79/38 38/72/38
f 41/78/38 38/72/38 40/77/38
f 40/77/37 38/72/37 37/75/37
f 42/80/39 44/81/39 43/82/39
f 45/83/34 42/84/34 43/85/34
f 45/86/40 44/81/40 42/80/40
f 46/87/41 44/81/41 45/86/41
f 47/88/34 46/89/34 45/83/34
f 45/83/34 43/85/34 48/90/34
f 49/91/34 47/88/34 45/83/34
f 45/83/34 48/90/34 50/92/34
f 49/91/34 45/83/34 50/92/34
f 51/93/42 44/81/42 50/94/42
f 51/95/34 50/92/34 53/96/34
f 50/94/43 44/81/43 52/97/43
f 50/92/34 52/98/34 54/99/34
f 57/100/34 53/96/34 50/92/34
f 54/99/34 55/101/34 50/92/34
f 55/101/34 56/102/34 50/92/34
f 50/92/34 56/102/34 58/103/34
f 48/90/34 57/100/34 50/92/34
f 58/103/34 49/91/34 50/92/34
f 59/104/44 44/81/44 58/105/44
f 59/106/34 58/103/34 56/102/34
f 58/105/9 44/81/9 60/107/9
f 58/103/34 60/108/34 61/109/34
f 58/103/34 61/109/34 49/91/34
f 60/107/8 44/81/8 61/110/8
f 61/110/45 44/81/45 62/111/45
f 61/109/34 62/112/34 49/91/34
f 62/111/46 44/81/46 49/113/46
f 63/114/47 44/81/47 59/104/47
f 63/115/34 59/106/34 56/102/34
f 64/116/48 44/81/48 63/114/48
f 56/102/34 64/117/34 63/115/34
f 56/118/49 44/81/49 64/116/49
f 65/119/50 44/81/50 57/120/50
f 67/121/34 65/122/34 57/100/34
f 57/120/51 44/81/51 66/123/51
f 57/100/34 66/124/34 68/125/34
f 48/90/34 67/121/34 57/100/34
f 57/100/34 68/125/34 53/96/34
f 66/123/52 44/81/52 68/126/52
f 68/126/53 44/81/53 69/127/53
f 68/125/34 69/128/34 53/96/34
f 69/127/54 44/81/54 53/129/54
f 70/130/55 44/81/55 67/131/55
f 48/90/34 70/132/34 67/121/34
f 67/131/56 44/81/56 65/119/56
f 48/133/57 44/81/57 70/130/57
f 55/134/58 44/81/58 56/118/58
f 54/135/59 44/81/59 55/134/59
f 52/97/60 44/81/60 54/135/60
f 53/129/61 44/81/61 71/136/61
f 53/96/34 71/137/34 72/138/34
f 72/138/34 51/95/34 53/96/34
f 71/136/62 44/81/62 72/139/62
f 72/139/63 44/81/63 51/93/63
f 49/113/64 44/81/64 73/140/64
f 49/91/34 73/141/34 47/88/34
f 73/140/65 44/81/65 47/142/65
f 74/143/66 44/81/66 48/133/66
f 43/85/34 74/144/34 48/90/34
f 43/82/67 44/81/67 74/143/67
f 47/142/68 44/81/68 46/87/68
f 75/145/69 77/146/69 76/147/69
f 78/148/38 75/149/38 76/150/38
f 78/151/70 77/146/70 75/145/70
f 79/152/71 77/146/71 78/151/71
f 79/153/38 78/148/38 80/154/38
f 78/148/38 76/150/38 81/155/38
f 80/154/38 78/148/38 84/156/38
f 78/148/38 81/155/38 82/157/38
f 82/157/38 83/158/38 78/148/38
f 83/158/38 84/156/38 78/148/38
f 85/159/72 77/146/72 84/160/72
f 87/161/38 85/162/38 84/156/38
f 84/160/73 77/146/73 86/163/73
f 84/156/38 86/164/38 88/165/38
f 83/158/38 87/161/38 84/156/38
f 84/156/38 88/165/38 89/166/38
f 84/156/38 89/166/38 90/167/38
f 90/167/38 80/154/38 84/156/38
f 91/168/74 77/146/74 90/169/74
f 91/170/38 90/167/38 89/166/38
f 90/169/52 77/146/52 92/171/52
f 90/167/38 92/172/38 93/173/38
f 90/167/38 93/173/38 80/154/38
f 92/171/51 77/146/51 93/174/51
f 93/174/75 77/146/75 94/175/75
f 93/173/38 94/176/38 80/154/38
f 94/175/76 77/146/76 80/177/76
f 95/178/77 77/146/77 91/168/77
f 95/179/38 91/170/38 89/166/38
f 96/180/78 77/146/78 95/178/78
f 89/166/38 96/181/38 95/179/38
f 89/182/79 77/146/79 96/180/79
f 97/183/80 77/146/80 89/182/80
f 88/165/38 97/184/38 89/166/38
f 88/185/81 77/146/81 97/183/81
f 86/163/82 77/146/82 88/185/82
f 98/186/83 77/146/83 87/187/83
f 83/158/38 98/188/38 87/161/38
f 87/187/84 77/146/84 85/159/84
f 83/189/85 77/146/85 98/186/85
f 99/190/86 77/146/86 83/189/86
f 100/191/38 99/192/38 83/158/38
f 82/157/38 100/191/38 83/158/38
f 101/193/87 77/146/87 100/194/87
f 82/157/38 101/195/38 100/191/38
f 100/194/88 77/146/88 99/190/88
f 82/196/89 77/146/89 101/193/89
f 102/197/90 77/146/90 82/196/90
f 103/198/38 102/199/38 82/157/38
f 81/155/38 103/198/38 82/157/38
f 104/200/91 77/146/91 103/201/91
f 81/155/38 104/202/38 103/198/38
f 103/201/92 77/146/92 102/197/92
f 81/203/93 77/146/93 104/200/93
f 105/204/94 77/146/94 81/203/94
f 76/150/38 105/205/38 81/155/38
f 76/147/95 77/146/95 105/204/95
f 80/177/96 77/146/96 106/206/96
f 80/154/38 106/207/38 107/208/38
f 107/208/38 79/153/38 80/154/38
f 106/206/97 77/146/97 107/209/97
f 107/209/98 77/146/98 79/152/98
f 108/210/99 110/211/99 109/212/99
f 111/213/37 108/214/37 109/215/37
f 111/216/100 110/211/100 108/210/100
f 112/217/101 110/211/101 111/216/101
f 113/218/37 112/219/37 111/213/37
f 111/213/37 109/215/37 114/220/37
f 115/221/37 113/218/37 111/213/37
f 111/213/37 114/220/37 116/222/37
f 116/222/37 115/221/37 111/213/37
f 117/223/102 110/211/102 116/224/102
f 119/225/37 117/226/37 116/222/37
f 116/224/87 110/211/87 118/227/87
f 116/222/37 118/228/37 120/229/37
f 121/230/37 119/225/37 116/222/37
f 116/222/37 120/229/37 115/221/37
f 122/231/37 121/230/37 116/222/37
f 114/220/37 122/231/37 116/222/37
f 123/232/103 110/211/103 122/233/103
f 123/234/37 122/231/37 125/235/37
f 122/233/104 110/211/104 124/236/104
f 122/231/37 124/237/37 126/238/37
f 127/239/37 125/235/37 122/231/37
f 122/231/37 126/238/37 121/230/37
f 114/220/37 127/239/37 122/231/37
f 128/240/24 110/211/24 127/241/24
f 114/220/37 128/242/37 127/239/37
f 127/241/105 110/211/105 129/243/105
f 127/239/37 129/244/37 125/235/37
f 129/243/106 110/211/106 125/245/106
f 114/246/25 110/211/25 128/240/25
f 124/236/107 110/211/107 126/247/107
f 126/247/108 110/211/108 130/248/108
f 126/238/37 130/249/37 121/230/37
f 130/248/109 110/211/109 121/250/109
f 125/245/110 110/211/110 131/251/110
f 125/235/37 131/252/37 132/253/37
f 132/253/37 123/234/37 125/235/37
f 131/251/111 110/211/111 132/254/111
f 132/254/112 110/211/112 123/232/112
f 121/250/113 110/211/113 133/255/113
f 121/230/37 133/256/37 119/225/37
f 133/255/114 110/211/114 119/257/114
f 118/227/89 110/211/89 120/258/89
f 120/258/115 110/211/115 134/259/115
f 120/229/37 134/260/37 115/221/37
f 134/259/116 110/211/116 115/261/116
f 119/257/117 110/211/117 117/223/117
f 115/261/118 110/211/118 135/262/118
f 115/221/37 135/263/37 113/218/37
f 135/262/119 110/211/119 113/264/119
f 136/265/120 110/211/120 114/246/120
f 137/266/37 136/267/37 114/220/37
f 138/268/37 137/266/37 114/220/37
f 109/215/37 138/268/37 114/220/37
f 139/269/121 110/211/121 138/270/121
f 109/215/37 139/271/37 138/268/37
f 138/270/122 110/211/122 140/272/122
f 138/268/37 140/273/37 137/266/37
f 140/272/123 110/211/123 137/274/123
f 109/212/124 110/211/124 139/269/124
f 137/274/125 110/211/125 136/265/125
f 113/264/126 110/211/126 112/217/126
f 141/275/104 143/276/104 142/277/104
f 144/278/36 141/279/36 142/280/36
f 144/281/107 143/276/107 141/275/107
f 145/282/127 143/276/127 144/281/127
f 145/283/36 144/278/36 146/284/36
f 144/278/36 142/280/36 147/285/36
f 151/286/36 146/284/36 144/278/36
f 144/278/36 147/285/36 148/287/36
f 148/287/36 149/288/36 144/278/36
f 149/288/36 150/289/36 144/278/36
f 150/289/36 151/286/36 144/278/36
f 152/290/128 143/276/128 151/291/128
f 154/292/36 152/293/36 151/286/36
f 151/291/82 143/276/82 153/294/82
f 151/286/36 153/295/36 155/296/36
f 154/292/36 151/286/36 150/289/36
f 151/286/36 155/296/36 146/284/36
f 153/294/73 143/276/73 155/297/73
f 155/297/129 143/276/129 156/298/129
f 155/296/36 156/299/36 146/284/36
f 156/298/130 143/276/130 146/300/130
f 157/301/131 143/276/131 154/302/131
f 158/303/36 157/304/36 154/292/36
f 154/302/132 143/276/132 152/290/132
f 158/303/36 154/292/36 150/289/36
f 159/305/133 143/276/133 158/306/133
f 160/307/36 159/308/36 158/303/36
f 158/306/134 143/276/134 157/301/134
f 150/289/36 160/307/36 158/303/36
f 161/309/43 143/276/43 160/310/43
f 150/289/36 161/311/36 160/307/36
f 160/310/135 143/276/135 159/305/135
f 150/312/60 143/276/60 161/309/60
f 162/313/136 143/276/136 150/312/136
f 163/314/36 162/315/36 150/289/36
f 149/288/36 163/314/36 150/289/36
f 164/316/137 143/276/137 163/317/137
f 149/288/36 164/318/36 163/314/36
f 163/317/138 143/276/138 162/313/138
f 149/319/139 143/276/139 164/316/139
f 165/320/140 143/276/140 149/319/140
f 166/321/36 165/322/36 149/288/36
f 148/287/36 166/321/36 149/288/36
f 167/323/16 143/276/16 166/324/16
f 148/287/36 167/325/36 166/321/36
f 166/324/141 143/276/141 165/320/141
f 148/326/17 143/276/17 167/323/17
f 168/327/142 143/276/142 148/326/142
f 168/328/36 148/287/36 147/285/36
f 169/329/143 143/276/143 168/327/143
f 169/330/36 168/328/36 147/285/36
f 170/331/144 143/276/144 169/329/144
f 147/285/36 170/332/36 169/330/36
f 147/333/145 143/276/145 170/331/145
f 171/334/146 143/276/146 147/333/146
f 142/280/36 171/335/36 147/285/36
f 142/277/147 143/276/147 171/334/147
f 146/300/148 143/276/148 172/336/148
f 146/284/36 172/337/36 173/338/36
f 173/338/36 145/283/36 146/284/36
f 172/336/149 143/276/149 173/339/149
f 173/339/150 143/276/150 145/282/150
f 174/340/40 176/341/40 175/342/40
f 177/343/35 174/344/35 175/345/35
f 177/346/39 176/341/39 174/340/39
f 178/347/151 176/341/151 177/346/151
f 178/348/35 177/343/35 179/349/35
f 177/343/35 175/345/35 180/350/35
f 179/349/35 177/343/35 182/351/35
f 177/343/35 180/350/35 181/352/35
f 177/343/35 181/352/35 182/351/35
f 183/353/152 176/341/152 182/354/152
f 185/355/35 183/356/35 182/351/35
f 182/354/99 176/341/99 184/357/99
f 182/351/35 184/358/35 186/359/35
f 185/355/35 182/351/35 181/352/35
f 182/351/35 186/359/35 187/360/35
f 182/351/35 187/360/35 188/361/35
f 188/361/35 179/349/35 182/351/35
f 189/362/153 176/341/153 188/363/153
f 189/364/35 188/361/35 187/360/35
f 188/363/69 176/341/69 190/365/69
f 188/361/35 190/366/35 191/367/35
f 188/361/35 191/367/35 179/349/35
f 190/365/70 176/341/70 191/368/70
f 191/368/154 176/341/154 192/369/154
f 191/367/35 192/370/35 179/349/35
f 192/369/155 176/341/155 179/371/155
f 193/372/156 176/341/156 189/362/156
f 193/373/35 189/364/35 187/360/35
f 194/374/157 176/341/157 193/372/157
f 187/360/35 194/375/35 193/373/35
f 187/376/158 176/341/158 194/374/158
f 195/377/159 176/341/159 187/376/159
f 186/359/35 195/378/35 187/360/35
f 186/379/160 176/341/160 195/377/160
f 184/357/100 176/341/100 186/379/100
f 196/380/161 176/341/161 185/381/161
f 197/382/35 196/383/35 185/355/35
f 185/381/162 176/341/162 183/353/162
f 197/382/35 185/355/35 181/352/35
f 198/384/163 176/341/163 197/385/163
f 199/386/35 198/387/35 197/382/35
f 197/385/164 176/341/164 196/380/164
f 181/352/35 199/386/35 197/382/35
f 200/388/33 176/341/33 199/389/33
f 181/352/35 200/390/35 199/386/35
f 199/389/165 176/341/165 198/384/165
f 181/391/1 176/341/1 200/388/1
f 201/392/166 176/341/166 181/391/166
f 202/393/35 201/394/35 181/352/35
f 180/350/35 202/393/35 181/352/35
f 203/395/167 176/341/167 202/396/167
f 180/350/35 203/397/35 202/393/35
f 202/396/168 176/341/168 201/392/168
f 180/398/169 176/341/169 203/395/169
f 204/399/170 176/341/170 180/398/170
f 175/345/35 204/400/35 180/350/35
f 175/342/171 176/341/171 204/399/171
f 179/371/172 176/341/172 205/401/172
f 179/349/35 205/402/35 206/403/35
f 206/403/35 178/348/35 179/349/35
f 205/401/173 176/341/173 206/404/173
f 206/404/174 176/341/174 178/347/174
