# Blender 5.1.1
# www.blender.org
mtllib ArrowEnemy.mtl
o Cube
v 0.260589 0.320877 0.260589
v 0.190667 -0.404273 0.176828
v -0.260589 0.320877 0.260589
v -0.190667 -0.387246 0.176828
v 0.308933 0.565548 -0.483903
v 0.190667 -0.391839 -0.176828
v -0.308933 0.565548 -0.483903
v -0.190667 -0.368506 -0.176828
v 0.113123 -0.221564 -0.202621
v 0.000000 -0.239882 -0.215577
v -0.113123 -0.221564 -0.202621
v 0.218479 -0.221564 0.104912
v 0.232449 -0.239882 0.000000
v 0.218479 -0.221564 -0.104912
v 0.298600 0.214896 0.298600
v 0.317694 0.060288 0.317694
v 0.227733 -0.094320 0.211203
v -0.227733 -0.094320 -0.211203
v -0.317694 0.060288 -0.317694
v -0.298600 0.214896 -0.298600
v -0.298600 0.214896 0.298600
v -0.317694 0.060288 0.317694
v -0.227733 -0.094320 0.211203
v 0.298600 0.214896 -0.298600
v 0.317694 0.060288 -0.317694
v 0.227733 -0.094320 -0.211203
v -0.298600 0.358888 0.154608
v -0.317694 0.377982 -0.000000
v -0.298600 0.358888 -0.154608
v 0.154608 0.358888 0.298600
v -0.000000 0.377982 0.317694
v -0.154608 0.358888 0.298600
v -0.218479 -0.221564 -0.104912
v -0.232449 -0.239882 -0.000000
v -0.218479 -0.221564 0.104912
v -0.154608 0.358888 -0.298600
v 0.000000 0.377982 -0.317694
v 0.154608 0.358888 -0.298600
v 0.298600 0.358888 -0.154608
v 0.317694 0.377982 0.000000
v 0.298600 0.358888 0.154608
v -0.113123 -0.221564 0.202621
v -0.000000 -0.239882 0.215577
v 0.113123 -0.221564 0.202621
v 0.164774 0.440222 0.164774
v 0.173626 0.467760 0.000000
v 0.164774 0.440222 -0.164774
v -0.000000 0.467760 0.173626
v 0.000000 0.497821 -0.000000
v 0.000000 0.467760 -0.173626
v -0.164774 0.440222 0.164774
v -0.173626 0.467760 -0.000000
v -0.164774 0.440222 -0.164774
v -0.289764 -0.104486 0.116547
v -0.407472 0.060288 0.173626
v -0.379934 0.225062 0.164774
v -0.310766 -0.113338 -0.000000
v -0.437533 0.060288 -0.000000
v -0.407472 0.233914 -0.000000
v -0.289764 -0.104486 -0.116547
v -0.407472 0.060288 -0.173626
v -0.379934 0.225062 -0.164774
v -0.125668 -0.104486 -0.268732
v -0.173626 0.060288 -0.407472
v -0.164774 0.225062 -0.379934
v 0.000000 -0.113338 -0.288210
v 0.000000 0.060288 -0.437533
v 0.000000 0.233914 -0.407472
v 0.125668 -0.104486 -0.268732
v 0.173626 0.060288 -0.407472
v 0.164774 0.225062 -0.379934
v 0.120562 -0.180047 -0.111811
v 0.127038 -0.206467 0.000000
v 0.120562 -0.180047 0.111811
v -0.000000 -0.206467 -0.117817
v -0.000000 -0.235305 0.000000
v -0.000000 -0.206467 0.117817
v -0.120562 -0.180047 -0.111811
v -0.127038 -0.206467 0.000000
v -0.120562 -0.180047 0.111811
v 0.125668 -0.104486 0.268732
v 0.173626 0.060288 0.407472
v 0.164774 0.225062 0.379934
v -0.000000 -0.113338 0.288210
v -0.000000 0.060288 0.437533
v -0.000000 0.233914 0.407472
v -0.125668 -0.104486 0.268732
v -0.173626 0.060288 0.407472
v -0.164774 0.225062 0.379934
v 0.289764 -0.104486 -0.116547
v 0.407472 0.060288 -0.173626
v 0.379934 0.225062 -0.164774
v 0.310766 -0.113338 0.000000
v 0.437533 0.060288 0.000000
v 0.407472 0.233914 0.000000
v 0.289764 -0.104486 0.116547
v 0.407472 0.060288 0.173626
v 0.379934 0.225062 0.164774
vn 0.1713 0.9708 0.1681
vn 0.1681 0.9708 -0.1713
vn -0.1713 0.9708 0.1681
vn -0.1681 0.9708 -0.1713
vn 0.4446 0.7501 0.4896
vn 0.5213 0.8367 0.1678
vn 0.5214 0.8367 -0.1677
vn 0.4816 0.7322 -0.4816
vn 0.1678 0.8367 -0.5213
vn -0.1678 0.8367 -0.5213
vn -0.4816 0.7322 -0.4816
vn -0.5214 0.8367 -0.1677
vn -0.5213 0.8367 0.1678
vn -0.4446 0.7501 0.4896
vn -0.1677 0.8367 0.5214
vn 0.1677 0.8367 0.5214
vn -0.7934 -0.5793 0.1870
vn -0.9708 0.1713 0.1681
vn -0.7934 -0.5793 -0.1870
vn -0.9708 0.1713 -0.1681
vn -0.9882 -0.1337 0.0741
vn -0.6282 -0.6142 0.4776
vn -0.8367 0.1677 0.5214
vn -0.7501 0.4446 0.4896
vn -0.8367 0.5213 0.1678
vn -0.8367 0.5213 -0.1678
vn -0.7322 0.4816 -0.4816
vn -0.8367 0.1677 -0.5214
vn -0.6282 -0.6142 -0.4776
vn -0.9858 -0.1441 -0.0867
vn -0.8330 -0.5155 -0.2009
vn -0.8330 -0.5155 0.2009
vn -0.1613 -0.6435 -0.7482
vn -0.1681 0.1713 -0.9708
vn 0.1613 -0.6435 -0.7482
vn 0.1681 0.1713 -0.9708
vn -0.0748 -0.1340 -0.9882
vn -0.4202 -0.6529 -0.6302
vn -0.5214 0.1677 -0.8367
vn -0.4816 0.4816 -0.7322
vn -0.1678 0.5213 -0.8367
vn 0.1678 0.5213 -0.8367
vn 0.4816 0.4816 -0.7322
vn 0.5214 0.1677 -0.8367
vn 0.4202 -0.6529 -0.6302
vn 0.0614 -0.1221 -0.9906
vn 0.1771 -0.4899 -0.8536
vn -0.1771 -0.4899 -0.8536
vn 0.2192 -0.9466 -0.2364
vn 0.2153 -0.9485 0.2322
vn -0.2192 -0.9466 -0.2364
vn -0.2153 -0.9485 0.2322
vn -0.6670 -0.1948 0.7192
vn -0.3715 -0.9082 -0.1931
vn -0.2998 -0.9458 0.1252
vn -0.3804 -0.8289 -0.4101
vn 0.1775 -0.9004 -0.3971
vn -0.1775 -0.9004 -0.3971
vn 0.3804 -0.8289 -0.4101
vn 0.2998 -0.9458 0.1252
vn 0.3715 -0.9082 -0.1931
vn 0.6627 -0.2243 0.7145
vn -0.1154 -0.9399 0.3213
vn 0.1154 -0.9399 0.3213
vn 0.1613 -0.6435 0.7482
vn 0.1681 0.1713 0.9708
vn -0.1613 -0.6435 0.7482
vn -0.1681 0.1713 0.9708
vn 0.0552 -0.1166 0.9916
vn 0.4202 -0.6529 0.6302
vn 0.5214 0.1677 0.8367
vn 0.4896 0.4446 0.7501
vn 0.1678 0.5213 0.8367
vn -0.1678 0.5213 0.8367
vn -0.4896 0.4446 0.7501
vn -0.5214 0.1677 0.8367
vn -0.4202 -0.6529 0.6302
vn -0.0638 -0.1243 0.9902
vn -0.1771 -0.4899 0.8536
vn 0.1771 -0.4899 0.8536
vn 0.7934 -0.5793 -0.1870
vn 0.9708 0.1713 -0.1681
vn 0.7934 -0.5793 0.1870
vn 0.9708 0.1713 0.1681
vn 0.9888 -0.1314 -0.0712
vn 0.6282 -0.6142 -0.4776
vn 0.8367 0.1677 -0.5214
vn 0.7322 0.4816 -0.4816
vn 0.8367 0.5213 -0.1678
vn 0.8367 0.5213 0.1678
vn 0.7501 0.4446 0.4896
vn 0.8367 0.1677 0.5214
vn 0.6282 -0.6142 0.4776
vn 0.9900 -0.1255 0.0640
vn 0.8330 -0.5155 0.2009
vn 0.8330 -0.5155 -0.2009
vn 0.1681 0.9708 0.1713
vn 0.1713 0.9708 -0.1681
vn -0.1681 0.9708 0.1713
vn -0.1713 0.9708 -0.1681
vn 0.4896 0.7501 0.4446
vn 0.5214 0.8367 0.1677
vn 0.5213 0.8367 -0.1678
vn -0.4612 0.7580 0.4612
vn 0.1677 0.8367 -0.5214
vn -0.1677 0.8367 -0.5214
vn 0.4612 0.7580 0.4612
vn -0.5213 0.8367 -0.1678
vn -0.5214 0.8367 0.1677
vn -0.4896 0.7501 0.4446
vn -0.1678 0.8367 0.5213
vn 0.1678 0.8367 0.5213
vn -0.7834 -0.6066 0.1356
vn -0.9708 0.1681 0.1713
vn -0.7834 -0.6066 -0.1356
vn -0.9708 0.1681 -0.1713
vn -0.7080 -0.4823 0.5158
vn -0.6441 -0.6512 0.4014
vn -0.8367 0.1678 0.5213
vn -0.7501 0.4896 0.4446
vn -0.8367 0.5214 0.1677
vn -0.8367 0.5214 -0.1677
vn -0.9996 -0.0193 0.0193
vn -0.8367 0.1678 -0.5213
vn -0.6441 -0.6512 -0.4014
vn -0.7080 -0.4823 -0.5158
vn -0.8302 -0.5243 -0.1894
vn -0.8302 -0.5243 0.1894
vn -0.1281 -0.6603 -0.7400
vn -0.1713 0.1681 -0.9708
vn 0.1281 -0.6603 -0.7400
vn 0.1713 0.1681 -0.9708
vn -0.4681 -0.4720 -0.7471
vn -0.3946 -0.6658 -0.6332
vn -0.5213 0.1678 -0.8367
vn 0.4154 -0.4154 -0.8092
vn -0.1677 0.5214 -0.8367
vn 0.1677 0.5214 -0.8367
vn -0.4154 -0.4154 -0.8092
vn 0.5213 0.1678 -0.8367
vn 0.3946 -0.6658 -0.6332
vn 0.4681 -0.4720 -0.7471
vn 0.1670 -0.4983 -0.8508
vn -0.1670 -0.4983 -0.8508
vn 0.2153 -0.9485 -0.2322
vn 0.2192 -0.9466 0.2364
vn -0.2153 -0.9485 -0.2322
vn -0.2192 -0.9466 0.2364
vn -0.3804 -0.8289 0.4101
vn -0.2998 -0.9458 -0.1252
vn -0.3715 -0.9082 0.1931
vn -0.6686 -0.1820 -0.7210
vn 0.1154 -0.9399 -0.3213
vn -0.1154 -0.9399 -0.3213
vn 0.6663 -0.2000 -0.7184
vn 0.3715 -0.9082 0.1931
vn 0.2998 -0.9458 -0.1252
vn 0.3804 -0.8289 0.4101
vn -0.1775 -0.9004 0.3971
vn 0.1775 -0.9004 0.3971
vn 0.1281 -0.6603 0.7400
vn 0.1713 0.1681 0.9708
vn -0.1281 -0.6603 0.7400
vn -0.1713 0.1681 0.9708
vn 0.4681 -0.4720 0.7471
vn 0.3946 -0.6658 0.6332
vn 0.5213 0.1678 0.8367
vn 0.4446 0.4896 0.7501
vn 0.1677 0.5214 0.8367
vn -0.1677 0.5214 0.8367
vn -0.4446 0.4896 0.7501
vn -0.5213 0.1678 0.8367
vn -0.3946 -0.6658 0.6332
vn -0.4681 -0.4720 0.7471
vn -0.1670 -0.4983 0.8508
vn 0.1670 -0.4983 0.8508
vn 0.7834 -0.6066 -0.1356
vn 0.9708 0.1681 -0.1713
vn 0.7834 -0.6066 0.1356
vn 0.9708 0.1681 0.1713
vn 0.7080 -0.4823 -0.5158
vn 0.6441 -0.6512 -0.4014
vn 0.8367 0.1678 -0.5213
vn 0.9996 -0.0193 0.0193
vn 0.8367 0.5214 -0.1677
vn 0.8367 0.5214 0.1677
vn 0.7501 0.4896 0.4446
vn 0.8367 0.1678 0.5213
vn 0.6441 -0.6512 0.4014
vn 0.7080 -0.4823 0.5158
vn 0.8302 -0.5243 0.1894
vn 0.8302 -0.5243 -0.1894
vt 0.646826 0.618827
vt 0.678845 0.706450
vt 0.619087 0.676246
vt 0.769827 0.674771
vt 0.708585 0.643337
vt 0.589304 0.732637
vt 0.707298 0.798491
vt 0.645668 0.767825
vt 0.611219 0.547752
vt 0.589709 0.596386
vt 0.668359 0.553613
vt 0.802130 0.611970
vt 0.737831 0.576515
vt 0.834504 0.703167
vt 0.741433 0.738082
vt 0.768519 0.833724
vt 0.675894 0.861743
vt 0.609215 0.831003
vt 0.549577 0.788655
vt 0.510967 0.746139
vt 0.537340 0.699954
vt 0.564170 0.648482
vt 0.294329 0.729202
vt 0.354657 0.823813
vt 0.269884 0.783082
vt 0.441339 0.786999
vt 0.382040 0.761840
vt 0.245161 0.835309
vt 0.389760 0.915496
vt 0.324381 0.888035
vt 0.314400 0.669318
vt 0.227073 0.704484
vt 0.144236 0.641149
vt 0.460554 0.727774
vt 0.406328 0.705037
vt 0.509187 0.804821
vt 0.419728 0.851237
vt 0.456498 0.946904
vt 0.361326 0.984310
vt 0.288537 0.955898
vt 0.213977 0.882561
vt 0.184168 0.804160
vt 0.100497 0.799164
vt 0.201432 0.752977
vt 0.608266 0.071249
vt 0.684306 0.156480
vt 0.591797 0.129318
vt 0.770295 0.113570
vt 0.704245 0.090698
vt 0.575614 0.186580
vt 0.720493 0.241494
vt 0.661912 0.217632
vt 0.617309 0.014114
vt 0.543877 0.057329
vt 0.479093 0.004568
vt 0.794784 0.043373
vt 0.721122 0.017021
vt 0.840962 0.135149
vt 0.749107 0.180573
vt 0.782362 0.276634
vt 0.691514 0.297316
vt 0.638108 0.272146
vt 0.555916 0.238896
vt 0.513492 0.166407
vt 0.420179 0.177630
vt 0.523719 0.110417
vt 0.192442 0.391755
vt 0.117863 0.424854
vt 0.143343 0.377714
vt 0.227893 0.478475
vt 0.169588 0.450003
vt 0.137881 0.503862
vt 0.096569 0.473996
vt 0.160229 0.336409
vt 0.104131 0.362638
vt 0.101486 0.281282
vt 0.249173 0.361845
vt 0.206475 0.342809
vt 0.318945 0.425104
vt 0.246509 0.411831
vt 0.240548 0.581699
vt 0.186780 0.533821
vt 0.149536 0.566716
vt 0.108219 0.545080
vt 0.074595 0.512777
vt 0.060492 0.452525
vt 0.004568 0.498519
vt 0.076087 0.404567
vt 0.397467 0.484505
vt 0.455943 0.593625
vt 0.361528 0.545499
vt 0.537585 0.569378
vt 0.486261 0.539371
vt 0.333478 0.610412
vt 0.484593 0.673972
vt 0.429872 0.650197
vt 0.434004 0.434708
vt 0.305789 0.302019
vt 0.566453 0.518429
vt 0.516550 0.488410
vt 0.511447 0.621803
vt 0.283117 0.505832
vt 0.531920 0.287569
vt 0.580232 0.380947
vt 0.502312 0.334937
vt 0.666690 0.354655
vt 0.611413 0.325049
vt 0.471745 0.384298
vt 0.601826 0.468336
vt 0.547691 0.436519
vt 0.474801 0.251974
vt 0.732118 0.380779
vt 0.638265 0.413918
vt 0.656793 0.510720
vt 0.413900 0.342204
vt 0.440651 0.294058
vt 0.846764 0.647469
vt 0.807205 0.771323
vt 0.730946 0.876627
vt 0.490065 0.877813
vt 0.420689 0.995432
vt 0.846764 0.074762
vt 0.818881 0.209244
vt 0.741406 0.321192
vt 0.701625 0.450348
s 0
usemtl Material
f 45/1/1 49/2/1 48/3/1
f 47/4/2 49/2/2 46/5/2
f 49/2/3 51/6/3 48/3/3
f 49/2/4 53/7/4 52/8/4
f 1/9/5 45/1/5 30/10/5
f 41/11/6 46/5/6 45/1/6
f 39/12/7 46/5/7 40/13/7
f 39/12/8 38/14/8 47/4/8
f 38/14/9 50/15/9 47/4/9
f 50/15/10 36/16/10 53/7/10
f 36/16/11 29/17/11 53/7/11
f 52/8/12 29/17/12 28/18/12
f 52/8/13 27/19/13 51/6/13
f 51/6/14 3/20/14 32/21/14
f 48/3/15 32/21/15 31/22/15
f 30/10/16 48/3/16 31/22/16
f 54/23/17 58/24/17 57/25/17
f 56/26/18 58/24/18 55/27/18
f 58/24/19 60/28/19 57/25/19
f 58/24/20 62/29/20 61/30/20
f 23/31/21 35/32/21 4/33/21
f 23/31/22 55/27/22 54/23/22
f 21/34/23 55/27/23 22/35/23
f 3/20/24 56/26/24 21/34/24
f 27/36/25 59/37/25 56/26/25
f 59/37/26 29/38/26 62/29/26
f 29/38/27 20/39/27 62/29/27
f 61/30/28 20/39/28 19/40/28
f 61/30/29 18/41/29 60/28/29
f 33/42/30 18/41/30 8/43/30
f 57/25/31 33/42/31 34/44/31
f 35/32/32 57/25/32 34/44/32
f 63/45/33 67/46/33 66/47/33
f 65/48/34 67/46/34 64/49/34
f 67/46/35 69/50/35 66/47/35
f 67/46/36 71/51/36 70/52/36
f 18/53/37 11/54/37 8/55/37
f 18/53/38 64/49/38 63/45/38
f 20/56/39 64/49/39 19/57/39
f 20/56/40 36/58/40 65/48/40
f 36/58/41 68/59/41 65/48/41
f 68/59/42 38/60/42 71/51/42
f 38/60/43 24/61/43 71/51/43
f 70/52/44 24/61/44 25/62/44
f 70/52/45 26/63/45 69/50/45
f 9/64/46 26/63/46 6/65/46
f 66/47/47 9/64/47 10/66/47
f 11/54/48 66/47/48 10/66/48
f 73/67/49 75/68/49 72/69/49
f 73/67/50 77/70/50 76/71/50
f 75/68/51 79/72/51 78/73/51
f 77/70/52 79/72/52 76/71/52
f 14/74/53 9/75/53 6/76/53
f 14/74/54 73/67/54 72/69/54
f 12/77/55 73/67/55 13/78/55
f 12/77/56 44/79/56 74/80/56
f 44/79/57 77/70/57 74/80/57
f 77/70/58 42/81/58 80/82/58
f 42/81/59 35/83/59 80/82/59
f 79/72/60 35/83/60 34/84/60
f 79/72/61 33/85/61 78/73/61
f 11/86/62 33/85/62 8/87/62
f 75/68/63 11/86/63 10/88/63
f 9/75/64 75/68/64 10/88/64
f 81/89/65 85/90/65 84/91/65
f 83/92/66 85/90/66 82/93/66
f 85/90/67 87/94/67 84/91/67
f 85/90/68 89/95/68 88/96/68
f 17/97/69 44/79/69 2/98/69
f 17/97/70 82/93/70 81/89/70
f 15/99/71 82/93/71 16/100/71
f 1/9/72 83/92/72 15/99/72
f 30/10/73 86/101/73 83/92/73
f 86/101/74 32/21/74 89/95/74
f 89/95/75 3/20/75 21/34/75
f 88/96/76 21/34/76 22/35/76
f 88/96/77 23/31/77 87/94/77
f 42/81/78 23/31/78 4/33/78
f 84/91/79 42/81/79 43/102/79
f 44/79/80 84/91/80 43/102/80
f 90/103/81 94/104/81 93/105/81
f 92/106/82 94/104/82 91/107/82
f 94/104/83 96/108/83 93/105/83
f 94/104/84 98/109/84 97/110/84
f 26/63/85 14/111/85 6/65/85
f 26/63/86 91/107/86 90/103/86
f 24/61/87 91/107/87 25/62/87
f 24/61/88 39/112/88 92/106/88
f 39/112/89 95/113/89 92/106/89
f 95/113/90 41/114/90 98/109/90
f 98/109/91 1/9/91 15/99/91
f 97/110/92 15/99/92 16/100/92
f 97/110/93 17/97/93 96/108/93
f 12/115/94 17/97/94 2/98/94
f 93/105/95 12/115/95 13/116/95
f 14/111/96 93/105/96 13/116/96
f 45/1/97 46/5/97 49/2/97
f 47/4/98 50/15/98 49/2/98
f 49/2/99 52/8/99 51/6/99
f 49/2/100 50/15/100 53/7/100
f 1/9/101 41/11/101 45/1/101
f 41/11/102 40/13/102 46/5/102
f 39/12/103 47/4/103 46/5/103
f 39/12/104 5/117/104 38/14/104
f 38/14/105 37/118/105 50/15/105
f 50/15/106 37/118/106 36/16/106
f 36/16/107 7/119/107 29/17/107
f 52/8/108 53/7/108 29/17/108
f 52/8/109 28/18/109 27/19/109
f 51/6/110 27/19/110 3/20/110
f 48/3/111 51/6/111 32/21/111
f 30/10/112 45/1/112 48/3/112
f 54/23/113 55/27/113 58/24/113
f 56/26/114 59/37/114 58/24/114
f 58/24/115 61/30/115 60/28/115
f 58/24/116 59/37/116 62/29/116
f 23/31/117 54/23/117 35/32/117
f 23/31/118 22/35/118 55/27/118
f 21/34/119 56/26/119 55/27/119
f 3/20/120 27/36/120 56/26/120
f 27/36/121 28/120/121 59/37/121
f 59/37/122 28/120/122 29/38/122
f 29/38/123 7/121/123 20/39/123
f 61/30/124 62/29/124 20/39/124
f 61/30/125 19/40/125 18/41/125
f 33/42/126 60/28/126 18/41/126
f 57/25/127 60/28/127 33/42/127
f 35/32/128 54/23/128 57/25/128
f 63/45/129 64/49/129 67/46/129
f 65/48/130 68/59/130 67/46/130
f 67/46/131 70/52/131 69/50/131
f 67/46/132 68/59/132 71/51/132
f 18/53/133 63/45/133 11/54/133
f 18/53/134 19/57/134 64/49/134
f 20/56/135 65/48/135 64/49/135
f 20/56/136 7/122/136 36/58/136
f 36/58/137 37/123/137 68/59/137
f 68/59/138 37/123/138 38/60/138
f 38/60/139 5/124/139 24/61/139
f 70/52/140 71/51/140 24/61/140
f 70/52/141 25/62/141 26/63/141
f 9/64/142 69/50/142 26/63/142
f 66/47/143 69/50/143 9/64/143
f 11/54/144 63/45/144 66/47/144
f 73/67/145 76/71/145 75/68/145
f 73/67/146 74/80/146 77/70/146
f 75/68/147 76/71/147 79/72/147
f 77/70/148 80/82/148 79/72/148
f 14/74/149 72/69/149 9/75/149
f 14/74/150 13/78/150 73/67/150
f 12/77/151 74/80/151 73/67/151
f 12/77/152 2/98/152 44/79/152
f 44/79/153 43/102/153 77/70/153
f 77/70/154 43/102/154 42/81/154
f 42/81/155 4/33/155 35/83/155
f 79/72/156 80/82/156 35/83/156
f 79/72/157 34/84/157 33/85/157
f 11/86/158 78/73/158 33/85/158
f 75/68/159 78/73/159 11/86/159
f 9/75/160 72/69/160 75/68/160
f 81/89/161 82/93/161 85/90/161
f 83/92/162 86/101/162 85/90/162
f 85/90/163 88/96/163 87/94/163
f 85/90/164 86/101/164 89/95/164
f 17/97/165 81/89/165 44/79/165
f 17/97/166 16/100/166 82/93/166
f 15/99/167 83/92/167 82/93/167
f 1/9/168 30/10/168 83/92/168
f 30/10/169 31/22/169 86/101/169
f 86/101/170 31/22/170 32/21/170
f 89/95/171 32/21/171 3/20/171
f 88/96/172 89/95/172 21/34/172
f 88/96/173 22/35/173 23/31/173
f 42/81/174 87/94/174 23/31/174
f 84/91/175 87/94/175 42/81/175
f 44/79/176 81/89/176 84/91/176
f 90/103/177 91/107/177 94/104/177
f 92/106/178 95/113/178 94/104/178
f 94/104/179 97/110/179 96/108/179
f 94/104/180 95/113/180 98/109/180
f 26/63/181 90/103/181 14/111/181
f 26/63/182 25/62/182 91/107/182
f 24/61/183 92/106/183 91/107/183
f 24/61/184 5/124/184 39/112/184
f 39/112/185 40/125/185 95/113/185
f 95/113/186 40/125/186 41/114/186
f 98/109/187 41/114/187 1/9/187
f 97/110/188 98/109/188 15/99/188
f 97/110/189 16/100/189 17/97/189
f 12/115/190 96/108/190 17/97/190
f 93/105/191 96/108/191 12/115/191
f 14/111/192 90/103/192 93/105/192
