# Blender 5.1.1
# www.blender.org
mtllib Arrow.mtl
o 円柱.001
v 0.508845 0.493416 -0.150084
v 0.508845 0.495829 -0.134711
v 0.482714 0.493416 -0.150084
v 0.508845 0.471505 -0.137339
v 0.508845 0.449488 -0.125192
v 0.482714 0.471505 -0.137339
v 0.508845 0.473727 -0.122075
v 0.508845 0.451523 -0.110038
v 0.482714 0.473727 -0.122075
v 0.482714 0.495829 -0.134711
v 0.482714 0.451523 -0.110038
v 0.482714 0.429231 -0.098600
v 0.482714 0.449488 -0.125192
v 0.482714 0.427378 -0.113641
v 0.482714 0.405190 -0.102686
v 0.508845 0.427378 -0.113641
v 0.508845 0.405190 -0.102686
v 0.508845 0.429231 -0.098600
v 0.508845 0.406864 -0.087759
v 0.508845 0.384437 -0.077516
v 0.482714 0.406864 -0.087759
v 0.482714 0.384437 -0.077516
v 0.482714 0.361963 -0.067869
v 0.482714 0.382937 -0.092326
v 0.482714 0.360632 -0.082562
v 0.508845 0.382937 -0.092326
v 0.508845 0.360632 -0.082562
v 0.508845 0.338291 -0.073391
v 0.508845 0.361963 -0.067869
v 0.508845 0.339456 -0.058816
v 0.508845 0.316929 -0.050358
v 0.482714 0.339456 -0.058816
v 0.482714 0.316929 -0.050358
v 0.482714 0.338291 -0.073391
v 0.482714 0.315925 -0.064811
v 0.482714 0.293548 -0.056821
v 0.508845 0.315925 -0.064811
v 0.508845 0.293548 -0.056821
v 0.508845 0.271175 -0.049419
v 0.508845 0.294396 -0.042490
v 0.508845 0.271870 -0.035211
v 0.482714 0.294396 -0.042490
v 0.482714 0.271870 -0.035211
v 0.482714 0.249365 -0.028519
v 0.482714 0.271175 -0.049419
v 0.482714 0.248818 -0.042603
v 0.482714 0.226490 -0.036370
v 0.508845 0.248818 -0.042603
v 0.508845 0.226490 -0.036370
v 0.508845 0.249365 -0.028519
v 0.508845 0.226894 -0.022410
v 0.508845 0.204469 -0.016883
v 0.482714 0.226894 -0.022410
v 0.482714 0.204469 -0.016883
v 0.482714 0.182105 -0.011933
v 0.482714 0.204205 -0.030716
v 0.482714 0.181976 -0.025639
v 0.508845 0.204205 -0.030716
v 0.508845 0.181976 -0.025639
v 0.508845 0.159816 -0.021136
v 0.508845 0.182105 -0.011933
v 0.508845 0.159813 -0.007557
v 0.508845 0.137609 -0.003750
v 0.482714 0.159814 -0.007557
v 0.482714 0.137609 -0.003750
v 0.482714 0.159816 -0.021136
v 0.482714 0.137737 -0.017202
v 0.482714 0.115753 -0.013833
v 0.508845 0.137737 -0.017202
v 0.508845 0.115753 -0.013833
v 0.508845 0.093876 -0.011025
v 0.508845 0.115502 -0.000509
v 0.508845 0.093507 0.002170
v 0.482714 0.115502 -0.000509
v 0.482714 0.093507 0.002170
v 0.482714 0.071636 0.004293
v 0.482714 0.093876 -0.011025
v 0.482714 0.072119 -0.008773
v 0.482714 0.050494 -0.007074
v 0.508845 0.072119 -0.008773
v 0.508845 0.050494 -0.007074
v 0.508845 0.071636 0.004293
v 0.508845 0.049901 0.005864
v 0.508845 0.028640 0.005902
v 0.482714 0.049901 0.005864
v 0.482714 0.028640 0.005902
v 0.482714 0.006778 0.005021
v 0.482714 0.028635 -0.006317
v 0.482714 0.007080 -0.007201
v 0.508845 0.028635 -0.006317
v 0.508845 0.007080 -0.007201
v 0.508845 -0.014574 -0.008701
v 0.508845 0.006778 0.005021
v 0.508845 -0.015183 0.003516
v 0.508845 -0.037227 0.001377
v 0.482714 -0.015183 0.003516
v 0.482714 -0.037227 0.001377
v 0.482714 -0.014574 -0.008701
v 0.482714 -0.036309 -0.010824
v 0.482714 -0.058108 -0.013577
v 0.508845 -0.036309 -0.010824
v 0.508845 -0.058108 -0.013577
v 0.508845 -0.079951 -0.016964
v 0.508845 -0.059334 -0.001397
v 0.508845 -0.081485 -0.004814
v 0.482714 -0.059334 -0.001397
v 0.482714 -0.081485 -0.004814
v 0.482714 -0.103662 -0.008875
v 0.482714 -0.079951 -0.016964
v 0.482714 -0.101819 -0.020987
v 0.482714 -0.123693 -0.025650
v 0.508845 -0.101819 -0.020987
v 0.508845 -0.123693 -0.025650
v 0.508845 -0.103662 -0.008875
v 0.508845 -0.125845 -0.013586
v 0.508845 -0.148014 -0.018947
v 0.482714 -0.125845 -0.013586
v 0.482714 -0.148014 -0.018947
v 0.482714 -0.170150 -0.024964
v 0.482714 -0.145555 -0.030959
v 0.482714 -0.167385 -0.036912
v 0.508845 -0.145555 -0.030959
v 0.508845 -0.167385 -0.036912
v 0.508845 -0.189162 -0.043512
v 0.508845 -0.170150 -0.024964
v 0.508845 -0.192232 -0.031635
v 0.508845 -0.214241 -0.038962
v 0.482714 -0.192232 -0.031635
v 0.482714 -0.214241 -0.038962
v 0.482714 -0.189162 -0.043512
v 0.482714 -0.210866 -0.050762
v 0.482714 -0.232478 -0.058661
v 0.508845 -0.210866 -0.050762
v 0.508845 -0.232478 -0.058661
v 0.508845 -0.253976 -0.067208
v 0.508845 -0.236156 -0.046946
v 0.508845 -0.257956 -0.055587
v 0.482714 -0.236156 -0.046946
v 0.482714 -0.257956 -0.055587
v 0.482714 -0.279620 -0.064884
v 0.482714 -0.253976 -0.067208
v 0.482714 -0.275342 -0.076403
v 0.482714 -0.296553 -0.086244
v 0.508845 -0.275342 -0.076403
v 0.508845 -0.296553 -0.086244
v 0.508845 -0.279620 -0.064884
v 0.508845 -0.301128 -0.074834
v 0.508845 -0.322458 -0.085437
v 0.482714 -0.301128 -0.074834
v 0.482714 -0.322458 -0.085437
v 0.482714 -0.343590 -0.096689
v 0.482714 -0.317590 -0.096729
v 0.482714 -0.338430 -0.107857
v 0.508845 -0.317590 -0.096729
v 0.508845 -0.338430 -0.107857
v 0.508845 -0.359056 -0.119623
v 0.508845 -0.343590 -0.096689
v 0.508845 -0.364504 -0.108587
v 0.508845 -0.385177 -0.121127
v 0.482714 -0.364504 -0.108587
v 0.482714 -0.385177 -0.121127
v 0.482714 -0.359056 -0.119623
v 0.482714 -0.379445 -0.132023
v 0.482714 -0.399561 -0.145044
v 0.508845 -0.379445 -0.132023
v 0.508845 -0.399561 -0.145044
v 0.508845 -0.405567 -0.134291
v 0.482714 -0.405567 -0.134291
v 0.495780 -0.384836 -0.126017
v 0.495780 0.463710 -0.126017
v 0.496365 -0.384836 -0.125959
v 0.496365 0.463710 -0.125959
v 0.496928 -0.384836 -0.125788
v 0.496928 0.463710 -0.125788
v 0.497446 -0.384836 -0.125511
v 0.497446 0.463710 -0.125511
v 0.497901 -0.384836 -0.125138
v 0.497901 0.463710 -0.125138
v 0.498274 -0.384836 -0.124684
v 0.498274 0.463710 -0.124684
v 0.498551 -0.384836 -0.124165
v 0.498551 0.463710 -0.124165
v 0.498722 -0.384836 -0.123602
v 0.498722 0.463710 -0.123602
v 0.498780 -0.384836 -0.123017
v 0.498780 0.463710 -0.123017
v 0.498722 -0.384836 -0.122432
v 0.498722 0.463710 -0.122432
v 0.498551 -0.384836 -0.121869
v 0.498551 0.463710 -0.121869
v 0.498274 -0.384836 -0.121350
v 0.498274 0.463710 -0.121350
v 0.497901 -0.384836 -0.120896
v 0.497901 0.463710 -0.120896
v 0.497446 -0.384836 -0.120522
v 0.497446 0.463710 -0.120522
v 0.496928 -0.384836 -0.120245
v 0.496928 0.463710 -0.120245
v 0.496365 -0.384836 -0.120074
v 0.496365 0.463710 -0.120074
v 0.495780 -0.384836 -0.120017
v 0.495780 0.463710 -0.120017
v 0.495194 -0.384836 -0.120074
v 0.495194 0.463710 -0.120074
v 0.494631 -0.384836 -0.120245
v 0.494631 0.463710 -0.120245
v 0.494113 -0.384836 -0.120522
v 0.494113 0.463710 -0.120522
v 0.493658 -0.384836 -0.120896
v 0.493658 0.463710 -0.120896
v 0.493285 -0.384836 -0.121350
v 0.493285 0.463710 -0.121350
v 0.493008 -0.384836 -0.121869
v 0.493008 0.463710 -0.121869
v 0.492837 -0.384836 -0.122432
v 0.492837 0.463710 -0.122432
v 0.492780 -0.384836 -0.123017
v 0.492780 0.463710 -0.123017
v 0.492837 -0.384836 -0.123602
v 0.492837 0.463710 -0.123602
v 0.493008 -0.384836 -0.124165
v 0.493008 0.463710 -0.124165
v 0.493285 -0.384836 -0.124684
v 0.493285 0.463710 -0.124684
v 0.493658 -0.384836 -0.125138
v 0.493658 0.463710 -0.125138
v 0.494113 -0.384836 -0.125511
v 0.494113 0.463710 -0.125511
v 0.494631 -0.384836 -0.125788
v 0.494631 0.463710 -0.125788
v 0.495194 -0.384836 -0.125959
v 0.495194 0.463710 -0.125959
vn 1.0000 -0.0000 -0.0000
vn -0.0000 0.9879 -0.1551
vn -0.0000 -0.5028 -0.8644
vn -0.0000 -0.4831 -0.8756
vn -0.0000 0.4963 0.8682
vn -0.0000 0.4766 0.8791
vn -1.0000 -0.0000 -0.0000
vn -0.0000 0.4565 0.8897
vn -0.0000 -0.4631 -0.8863
vn -0.0000 -0.4427 -0.8967
vn -0.0000 0.4362 0.8999
vn -0.0000 0.4154 0.9096
vn -0.0000 0.3944 0.9189
vn -0.0000 -0.4220 -0.9066
vn -0.0000 -0.4010 -0.9161
vn -0.0000 -0.3798 -0.9251
vn -0.0000 0.3732 0.9278
vn -0.0000 0.3515 0.9362
vn -0.0000 -0.3581 -0.9337
vn -0.0000 -0.3363 -0.9418
vn -0.0000 -0.3141 -0.9494
vn -0.0000 0.3297 0.9441
vn -0.0000 0.3075 0.9516
vn -0.0000 0.2850 0.9585
vn -0.0000 -0.2916 -0.9565
vn -0.0000 -0.2689 -0.9632
vn -0.0000 0.2623 0.9650
vn -0.0000 0.2393 0.9709
vn -0.0000 0.2161 0.9764
vn -0.0000 -0.2459 -0.9693
vn -0.0000 -0.2226 -0.9749
vn -0.0000 -0.1992 -0.9800
vn -0.0000 0.1926 0.9813
vn -0.0000 0.1690 0.9856
vn -0.0000 -0.1754 -0.9845
vn -0.0000 -0.1515 -0.9885
vn -0.0000 -0.1273 -0.9919
vn -0.0000 0.1451 0.9894
vn -0.0000 0.1209 0.9927
vn -0.0000 0.0966 0.9953
vn -0.0000 -0.1029 -0.9947
vn -0.0000 -0.0783 -0.9969
vn -0.0000 0.0721 0.9974
vn -0.0000 0.0018 1.0000
vn -0.0000 -0.0403 0.9992
vn -0.0000 -0.0346 -0.9994
vn -0.0000 0.0410 -0.9992
vn -0.0000 0.0691 -0.9976
vn -0.0000 -0.0684 0.9977
vn -0.0000 -0.0966 0.9953
vn -0.0000 0.0972 -0.9953
vn -0.0000 0.1253 -0.9921
vn -0.0000 0.1532 -0.9882
vn -0.0000 -0.1245 0.9922
vn -0.0000 -0.1524 0.9883
vn -0.0000 -0.1801 0.9836
vn -0.0000 0.1809 -0.9835
vn -0.0000 0.2085 -0.9780
vn -0.0000 -0.2077 0.9782
vn -0.0000 -0.2351 0.9720
vn -0.0000 -0.2623 0.9650
vn -0.0000 0.2360 -0.9718
vn -0.0000 0.2631 -0.9648
vn -0.0000 0.2900 -0.9570
vn -0.0000 -0.2892 0.9573
vn -0.0000 -0.3159 0.9488
vn -0.0000 0.3168 -0.9485
vn -0.0000 0.3433 -0.9392
vn -0.0000 0.3695 -0.9292
vn -0.0000 -0.3423 0.9396
vn -0.0000 -0.3685 0.9296
vn -0.0000 -0.3944 0.9190
vn -0.0000 0.3953 -0.9186
vn -0.0000 0.4209 -0.9071
vn -0.0000 -0.4199 0.9076
vn -0.0000 -0.4451 0.8955
vn -0.0000 -0.4700 0.8827
vn -0.0000 0.4461 -0.8950
vn -0.0000 0.4710 -0.8821
vn -0.0000 0.4955 -0.8686
vn -0.0000 -0.4945 0.8692
vn -0.0000 -0.5186 0.8550
vn -0.0000 0.5196 -0.8544
vn -0.0000 0.5434 -0.8395
vn -0.0000 -0.8730 -0.4876
vn -0.0000 -0.5424 0.8401
vn 0.0980 -0.0000 -0.9952
vn 0.2903 -0.0000 -0.9569
vn 0.4714 -0.0000 -0.8819
vn 0.6344 -0.0000 -0.7730
vn 0.7730 -0.0000 -0.6344
vn 0.8819 -0.0000 -0.4714
vn 0.9570 -0.0000 -0.2902
vn 0.9952 -0.0000 -0.0981
vn 0.9952 -0.0000 0.0979
vn 0.9570 -0.0000 0.2902
vn 0.8819 -0.0000 0.4714
vn 0.7730 -0.0000 0.6344
vn 0.6344 -0.0000 0.7730
vn 0.4714 -0.0000 0.8819
vn 0.2903 -0.0000 0.9569
vn 0.0980 -0.0000 0.9952
vn -0.0980 -0.0000 0.9952
vn -0.2903 -0.0000 0.9569
vn -0.4714 -0.0000 0.8819
vn -0.6345 -0.0000 0.7730
vn -0.7730 -0.0000 0.6344
vn -0.8819 -0.0000 0.4715
vn -0.9569 -0.0000 0.2903
vn -0.9952 -0.0000 0.0979
vn -0.9952 -0.0000 -0.0981
vn -0.9570 -0.0000 -0.2902
vn -0.8820 -0.0000 -0.4713
vn -0.7730 -0.0000 -0.6344
vn -0.6344 -0.0000 -0.7730
vn -0.4713 -0.0000 -0.8819
vn -0.0000 1.0000 -0.0000
vn -0.2903 -0.0000 -0.9569
vn -0.0980 -0.0000 -0.9952
vn -0.0000 -1.0000 -0.0000
vn 0.9952 -0.0000 -0.0979
vn 0.9952 -0.0000 0.0981
vn -0.4713 -0.0000 0.8820
vn -0.6344 -0.0000 0.7730
vn -0.8820 -0.0000 0.4713
vn -0.9570 -0.0000 0.2902
vn -0.9952 -0.0000 0.0981
vn -0.9952 -0.0000 -0.0979
vn -0.9569 -0.0000 -0.2903
vn -0.8819 -0.0000 -0.4715
vn -0.6345 -0.0000 -0.7730
vn -0.4714 -0.0000 -0.8819
vn 0.0001 1.0000 -0.0000
vn 0.0003 1.0000 -0.0000
vn 0.0009 1.0000 -0.0000
vn -0.0004 1.0000 -0.0000
vn -0.0001 1.0000 -0.0000
vn 0.0002 1.0000 -0.0000
vn 0.0004 1.0000 -0.0000
vn -0.0009 1.0000 -0.0000
vn -0.0004 -1.0000 -0.0000
vn 0.0004 -1.0000 -0.0000
vn -0.0001 -1.0000 -0.0000
vn 0.0001 -1.0000 -0.0000
vt 0.835928 0.476775
vt 0.835928 0.476775
vt 0.500000 0.003840
vt 0.003840 0.034850
vt 0.003840 0.003840
vt 0.500000 0.034850
vt 0.003840 0.065860
vt 0.500000 0.065860
vt 0.003840 0.096870
vt 0.500000 0.096870
vt 0.003840 0.127880
vt 0.500000 0.127880
vt 0.003840 0.158890
vt 0.500000 0.158890
vt 0.003840 0.189900
vt 0.500000 0.189900
vt 0.003840 0.220910
vt 0.500000 0.220910
vt 0.003840 0.251920
vt 0.500000 0.251920
vt 0.003840 0.282930
vt 0.500000 0.282930
vt 0.003840 0.313940
vt 0.500000 0.313940
vt 0.003840 0.344950
vt 0.500000 0.344950
vt 0.003840 0.375960
vt 0.500000 0.375960
vt 0.003840 0.406970
vt 0.500000 0.406970
vt 0.003840 0.437980
vt 0.500000 0.437980
vt 0.003840 0.468990
vt 0.500000 0.468990
vt 0.003840 0.500000
vt 0.500000 0.500000
vt 0.003840 0.531010
vt 0.500000 0.531010
vt 0.003840 0.562020
vt 0.500000 0.562020
vt 0.003840 0.593030
vt 0.500000 0.593030
vt 0.003840 0.624040
vt 0.500000 0.624040
vt 0.003840 0.655050
vt 0.500000 0.655050
vt 0.003840 0.686060
vt 0.500000 0.686060
vt 0.003840 0.717070
vt 0.500000 0.717070
vt 0.003840 0.748080
vt 0.500000 0.748080
vt 0.003840 0.779090
vt 0.500000 0.779090
vt 0.003840 0.810100
vt 0.500000 0.810100
vt 0.003840 0.841110
vt 0.500000 0.841110
vt 0.003840 0.872120
vt 0.500000 0.872120
vt 0.003840 0.903130
vt 0.500000 0.903130
vt 0.003840 0.934140
vt 0.567376 0.025253
vt 0.578481 0.004477
vt 0.599257 0.015582
vt 0.500000 0.934140
vt 0.003840 0.965150
vt 0.500000 0.965150
vt 0.003840 0.996160
vt 0.572749 0.074129
vt 0.584949 0.077830
vt 0.581684 0.044675
vt 0.599894 0.018785
vt 0.599894 0.022050
vt 0.599257 0.025253
vt 0.598007 0.028270
vt 0.596193 0.030985
vt 0.593884 0.033294
vt 0.591169 0.035109
vt 0.588152 0.036358
vt 0.584949 0.036995
vt 0.581684 0.036995
vt 0.578481 0.036358
vt 0.575464 0.035109
vt 0.572749 0.033294
vt 0.570440 0.030985
vt 0.568625 0.028270
vt 0.566739 0.022050
vt 0.566739 0.018785
vt 0.567376 0.015582
vt 0.568625 0.012565
vt 0.570440 0.009850
vt 0.572749 0.007541
vt 0.575464 0.005727
vt 0.581684 0.003840
vt 0.584949 0.003840
vt 0.588152 0.004477
vt 0.591169 0.005727
vt 0.593884 0.007541
vt 0.596193 0.009850
vt 0.598007 0.012565
vt 0.500000 0.996160
vt 0.588152 0.077193
vt 0.596193 0.071820
vt 0.591169 0.075944
vt 0.593884 0.074129
vt 0.598007 0.069105
vt 0.599257 0.066088
vt 0.599894 0.062886
vt 0.599894 0.059620
vt 0.599257 0.056417
vt 0.593884 0.048376
vt 0.598007 0.053400
vt 0.596193 0.050685
vt 0.591169 0.046562
vt 0.588152 0.045312
vt 0.584949 0.044675
vt 0.578481 0.045312
vt 0.575464 0.046562
vt 0.572749 0.048376
vt 0.570440 0.050685
vt 0.568625 0.053400
vt 0.567376 0.056417
vt 0.566739 0.059620
vt 0.566739 0.062886
vt 0.567376 0.066088
vt 0.568625 0.069105
vt 0.570440 0.071820
vt 0.575464 0.075944
vt 0.578481 0.077193
vt 0.581684 0.077830
s 0
usemtl 
f 170/3/87 171/4/87 169/5/87
f 172/6/88 173/7/88 171/4/88
f 174/8/89 175/9/89 173/7/89
f 176/10/90 177/11/90 175/9/90
f 178/12/91 179/13/91 177/11/91
f 180/14/92 181/15/92 179/13/92
f 182/16/93 183/17/93 181/15/93
f 184/18/94 185/19/94 183/17/94
f 186/20/95 187/21/95 185/19/95
f 188/22/96 189/23/96 187/21/96
f 190/24/97 191/25/97 189/23/97
f 192/26/98 193/27/98 191/25/98
f 194/28/99 195/29/99 193/27/99
f 196/30/100 197/31/100 195/29/100
f 198/32/101 199/33/101 197/31/101
f 200/34/102 201/35/102 199/33/102
f 202/36/103 203/37/103 201/35/103
f 204/38/104 205/39/104 203/37/104
f 206/40/105 207/41/105 205/39/105
f 208/42/106 209/43/106 207/41/106
f 210/44/107 211/45/107 209/43/107
f 212/46/108 213/47/108 211/45/108
f 214/48/109 215/49/109 213/47/109
f 216/50/110 217/51/110 215/49/110
f 218/52/111 219/53/111 217/51/111
f 220/54/112 221/55/112 219/53/112
f 222/56/113 223/57/113 221/55/113
f 224/58/114 225/59/114 223/57/114
f 226/60/115 227/61/115 225/59/115
f 228/62/116 229/63/116 227/61/116
f 206/64/117 190/65/117 174/66/117
f 230/67/118 231/68/118 229/63/118
f 232/69/119 169/70/119 231/68/119
f 223/71/120 231/72/120 199/73/120
f 170/3/87 172/6/87 171/4/87
f 172/6/88 174/8/88 173/7/88
f 174/8/89 176/10/89 175/9/89
f 176/10/90 178/12/90 177/11/90
f 178/12/91 180/14/91 179/13/91
f 180/14/92 182/16/92 181/15/92
f 182/16/93 184/18/93 183/17/93
f 184/18/121 186/20/121 185/19/121
f 186/20/122 188/22/122 187/21/122
f 188/22/96 190/24/96 189/23/96
f 190/24/97 192/26/97 191/25/97
f 192/26/98 194/28/98 193/27/98
f 194/28/99 196/30/99 195/29/99
f 196/30/100 198/32/100 197/31/100
f 198/32/101 200/34/101 199/33/101
f 200/34/102 202/36/102 201/35/102
f 202/36/103 204/38/103 203/37/103
f 204/38/104 206/40/104 205/39/104
f 206/40/123 208/42/123 207/41/123
f 208/42/124 210/44/124 209/43/124
f 210/44/107 212/46/107 211/45/107
f 212/46/125 214/48/125 213/47/125
f 214/48/126 216/50/126 215/49/126
f 216/50/127 218/52/127 217/51/127
f 218/52/128 220/54/128 219/53/128
f 220/54/129 222/56/129 221/55/129
f 222/56/130 224/58/130 223/57/130
f 224/58/114 226/60/114 225/59/114
f 226/60/131 228/62/131 227/61/131
f 228/62/132 230/67/132 229/63/132
f 174/66/133 172/74/133 170/75/133
f 170/75/117 232/76/117 230/77/117
f 230/77/117 228/78/117 226/79/117
f 226/79/117 224/80/117 230/77/117
f 224/80/134 222/81/134 230/77/134
f 222/81/117 220/82/117 218/83/117
f 218/83/135 216/84/135 214/85/135
f 214/85/117 212/86/117 206/64/117
f 212/86/117 210/87/117 206/64/117
f 210/87/136 208/88/136 206/64/136
f 206/64/137 204/89/137 202/90/137
f 202/90/138 200/91/138 198/92/138
f 198/92/139 196/93/139 194/94/139
f 194/94/117 192/95/117 198/92/117
f 192/95/117 190/65/117 198/92/117
f 190/65/140 188/96/140 186/97/140
f 186/97/117 184/98/117 182/99/117
f 182/99/117 180/100/117 174/66/117
f 180/100/117 178/101/117 174/66/117
f 178/101/117 176/102/117 174/66/117
f 174/66/117 170/75/117 222/81/117
f 170/75/117 230/77/117 222/81/117
f 222/81/117 218/83/117 206/64/117
f 218/83/137 214/85/137 206/64/137
f 206/64/117 202/90/117 190/65/117
f 202/90/117 198/92/117 190/65/117
f 190/65/137 186/97/137 174/66/137
f 186/97/133 182/99/133 174/66/133
f 174/66/117 222/81/117 206/64/117
f 230/67/118 232/69/118 231/68/118
f 232/69/119 170/103/119 169/70/119
f 231/72/120 169/104/120 175/105/120
f 169/104/120 171/106/120 175/105/120
f 171/106/120 173/107/120 175/105/120
f 175/105/120 177/108/120 179/109/120
f 179/109/120 181/110/120 183/111/120
f 183/111/120 185/112/120 191/113/120
f 185/112/120 187/114/120 191/113/120
f 187/114/120 189/115/120 191/113/120
f 191/113/141 193/116/141 195/117/141
f 195/117/120 197/118/120 191/113/120
f 197/118/120 199/73/120 191/113/120
f 199/73/120 201/119/120 203/120/120
f 203/120/120 205/121/120 199/73/120
f 205/121/120 207/122/120 199/73/120
f 207/122/142 209/123/142 211/124/142
f 211/124/120 213/125/120 215/126/120
f 215/126/120 217/127/120 223/71/120
f 217/127/120 219/128/120 223/71/120
f 219/128/120 221/129/120 223/71/120
f 223/71/143 225/130/143 231/72/143
f 225/130/144 227/131/144 231/72/144
f 227/131/120 229/132/120 231/72/120
f 175/105/120 179/109/120 231/72/120
f 179/109/120 183/111/120 231/72/120
f 207/122/120 211/124/120 199/73/120
f 211/124/120 215/126/120 199/73/120
f 183/111/120 191/113/120 231/72/120
f 191/113/120 199/73/120 231/72/120
f 215/126/120 223/71/120 199/73/120
usemtl Material
f 4/1/1 2/1/1 7/1/1
f 3/2/2 2/1/2 1/1/2
f 3/2/3 4/1/3 6/1/3
f 5/1/1 7/1/1 8/1/1
f 6/1/4 5/1/4 13/1/4
f 2/1/5 9/1/5 7/1/5
f 7/1/6 11/1/6 8/1/6
f 10/1/7 6/1/7 9/1/7
f 9/1/7 13/1/7 11/1/7
f 8/1/8 12/1/8 18/1/8
f 11/1/7 14/1/7 12/1/7
f 13/1/9 16/1/9 14/1/9
f 12/1/7 15/1/7 21/1/7
f 14/1/10 17/1/10 15/1/10
f 16/1/1 8/1/1 18/1/1
f 17/1/1 18/1/1 19/1/1
f 18/1/11 21/1/11 19/1/11
f 19/1/12 22/1/12 20/1/12
f 26/1/1 19/1/1 20/1/1
f 21/1/7 24/1/7 22/1/7
f 20/1/13 23/1/13 29/1/13
f 22/1/7 25/1/7 23/1/7
f 15/1/14 26/1/14 24/1/14
f 24/1/15 27/1/15 25/1/15
f 27/1/1 20/1/1 29/1/1
f 28/1/1 29/1/1 30/1/1
f 25/1/16 28/1/16 34/1/16
f 29/1/17 32/1/17 30/1/17
f 30/1/18 33/1/18 31/1/18
f 37/1/1 30/1/1 31/1/1
f 32/1/7 35/1/7 33/1/7
f 23/1/7 34/1/7 32/1/7
f 34/1/19 37/1/19 35/1/19
f 33/1/7 36/1/7 42/1/7
f 35/1/20 38/1/20 36/1/20
f 38/1/1 31/1/1 40/1/1
f 39/1/1 40/1/1 41/1/1
f 36/1/21 39/1/21 45/1/21
f 31/1/22 42/1/22 40/1/22
f 40/1/23 43/1/23 41/1/23
f 42/1/7 45/1/7 43/1/7
f 41/1/24 44/1/24 50/1/24
f 43/1/7 46/1/7 44/1/7
f 45/1/25 48/1/25 46/1/25
f 44/1/7 47/1/7 53/1/7
f 46/1/26 49/1/26 47/1/26
f 48/1/1 41/1/1 50/1/1
f 49/1/1 50/1/1 51/1/1
f 50/1/27 53/1/27 51/1/27
f 51/1/28 54/1/28 52/1/28
f 58/1/1 51/1/1 52/1/1
f 53/1/7 56/1/7 54/1/7
f 52/1/29 55/1/29 61/1/29
f 54/1/7 57/1/7 55/1/7
f 47/1/30 58/1/30 56/1/30
f 56/1/31 59/1/31 57/1/31
f 59/1/1 52/1/1 61/1/1
f 60/1/1 61/1/1 62/1/1
f 57/1/32 60/1/32 66/1/32
f 61/1/33 64/1/33 62/1/33
f 62/1/34 65/1/34 63/1/34
f 69/1/1 62/1/1 63/1/1
f 64/1/7 67/1/7 65/1/7
f 55/1/7 66/1/7 64/1/7
f 66/1/35 69/1/35 67/1/35
f 65/1/7 68/1/7 74/1/7
f 67/1/36 70/1/36 68/1/36
f 70/1/1 63/1/1 72/1/1
f 71/1/1 72/1/1 73/1/1
f 68/1/37 71/1/37 77/1/37
f 63/1/38 74/1/38 72/1/38
f 72/1/39 75/1/39 73/1/39
f 74/1/7 77/1/7 75/1/7
f 73/1/40 76/1/40 82/1/40
f 75/1/7 78/1/7 76/1/7
f 77/1/41 80/1/41 78/1/41
f 76/1/7 79/1/7 85/1/7
f 78/1/42 81/1/42 79/1/42
f 80/1/1 73/1/1 82/1/1
f 81/1/1 82/1/1 83/1/1
f 82/1/43 85/1/43 83/1/43
f 83/1/44 86/2/44 84/2/44
f 90/1/1 83/1/1 84/2/1
f 85/1/7 88/1/7 86/2/7
f 84/2/45 87/1/45 93/1/45
f 87/1/7 88/1/7 89/1/7
f 79/1/46 90/1/46 88/1/46
f 88/1/47 91/1/47 89/1/47
f 90/1/1 93/1/1 91/1/1
f 91/1/1 94/1/1 92/1/1
f 89/1/48 92/1/48 98/1/48
f 93/1/49 96/1/49 94/1/49
f 94/1/50 97/1/50 95/1/50
f 92/1/1 95/1/1 101/1/1
f 97/1/7 98/1/7 99/1/7
f 96/1/7 89/1/7 98/1/7
f 98/1/51 101/1/51 99/1/51
f 106/1/7 99/1/7 100/1/7
f 99/1/52 102/1/52 100/1/52
f 101/1/1 104/1/1 102/1/1
f 102/1/1 105/1/1 103/1/1
f 100/1/53 103/1/53 109/1/53
f 95/1/54 106/1/54 104/1/54
f 104/1/55 107/1/55 105/1/55
f 107/1/7 100/1/7 109/1/7
f 105/1/56 108/1/56 114/1/56
f 108/1/7 109/1/7 110/1/7
f 109/1/57 112/1/57 110/1/57
f 117/1/7 110/1/7 111/1/7
f 110/1/58 113/1/58 111/1/58
f 103/1/1 114/1/1 112/1/1
f 112/1/1 115/1/1 113/1/1
f 114/1/59 117/1/59 115/1/59
f 115/1/60 118/1/60 116/1/60
f 113/1/1 116/1/1 122/1/1
f 118/1/7 111/1/7 120/1/7
f 116/1/61 119/1/61 125/1/61
f 119/1/7 120/1/7 121/1/7
f 111/1/62 122/1/62 120/1/62
f 120/1/63 123/1/63 121/1/63
f 122/1/1 125/1/1 123/1/1
f 123/1/1 126/1/1 124/1/1
f 121/1/64 124/1/64 130/1/64
f 125/1/65 128/1/65 126/1/65
f 126/1/66 129/1/66 127/1/66
f 124/1/1 127/1/1 133/1/1
f 129/1/7 130/1/7 131/1/7
f 128/1/7 121/1/7 130/1/7
f 130/1/67 133/1/67 131/1/67
f 138/1/7 131/1/7 132/1/7
f 131/1/68 134/1/68 132/1/68
f 133/1/1 136/1/1 134/1/1
f 134/1/1 137/1/1 135/1/1
f 132/1/69 135/1/69 141/1/69
f 127/1/70 138/1/70 136/1/70
f 136/1/71 139/1/71 137/1/71
f 139/1/7 132/1/7 141/1/7
f 137/1/72 140/1/72 146/1/72
f 140/1/7 141/1/7 142/1/7
f 141/1/73 144/1/73 142/1/73
f 149/1/7 142/1/7 143/1/7
f 142/1/74 145/1/74 143/1/74
f 135/1/1 146/1/1 144/1/1
f 144/1/1 147/1/1 145/1/1
f 146/1/75 149/1/75 147/1/75
f 147/1/76 150/1/76 148/1/76
f 145/1/1 148/1/1 154/1/1
f 150/1/7 143/1/7 152/1/7
f 148/1/77 151/1/77 157/1/77
f 151/1/7 152/1/7 153/1/7
f 143/1/78 154/1/78 152/1/78
f 152/1/79 155/1/79 153/1/79
f 154/1/1 157/1/1 155/1/1
f 155/1/1 158/1/1 156/1/1
f 153/1/80 156/1/80 162/1/80
f 157/1/81 160/1/81 158/1/81
f 158/1/82 161/1/82 159/1/82
f 156/1/1 159/1/1 165/1/1
f 161/1/7 162/1/7 163/1/7
f 160/1/7 153/1/7 162/1/7
f 162/1/83 165/1/83 163/1/83
f 168/1/7 163/1/7 164/1/7
f 163/1/84 166/2/84 164/1/84
f 165/1/1 167/1/1 166/2/1
f 166/2/85 168/1/85 164/1/85
f 159/1/86 168/1/86 167/1/86
f 4/1/1 1/1/1 2/1/1
f 3/2/2 10/1/2 2/1/2
f 3/2/3 1/1/3 4/1/3
f 5/1/1 4/1/1 7/1/1
f 6/1/4 4/1/4 5/1/4
f 2/1/5 10/1/5 9/1/5
f 7/1/6 9/1/6 11/1/6
f 10/1/7 3/2/7 6/1/7
f 9/1/7 6/1/7 13/1/7
f 8/1/8 11/1/8 12/1/8
f 11/1/7 13/1/7 14/1/7
f 13/1/9 5/1/9 16/1/9
f 12/1/7 14/1/7 15/1/7
f 14/1/10 16/1/10 17/1/10
f 16/1/1 5/1/1 8/1/1
f 17/1/1 16/1/1 18/1/1
f 18/1/11 12/1/11 21/1/11
f 19/1/12 21/1/12 22/1/12
f 26/1/1 17/1/1 19/1/1
f 21/1/7 15/1/7 24/1/7
f 20/1/13 22/1/13 23/1/13
f 22/1/7 24/1/7 25/1/7
f 15/1/14 17/1/14 26/1/14
f 24/1/15 26/1/15 27/1/15
f 27/1/1 26/1/1 20/1/1
f 28/1/1 27/1/1 29/1/1
f 25/1/16 27/1/16 28/1/16
f 29/1/17 23/1/17 32/1/17
f 30/1/18 32/1/18 33/1/18
f 37/1/1 28/1/1 30/1/1
f 32/1/7 34/1/7 35/1/7
f 23/1/7 25/1/7 34/1/7
f 34/1/19 28/1/19 37/1/19
f 33/1/7 35/1/7 36/1/7
f 35/1/20 37/1/20 38/1/20
f 38/1/1 37/1/1 31/1/1
f 39/1/1 38/1/1 40/1/1
f 36/1/21 38/1/21 39/1/21
f 31/1/22 33/1/22 42/1/22
f 40/1/23 42/1/23 43/1/23
f 42/1/7 36/1/7 45/1/7
f 41/1/24 43/1/24 44/1/24
f 43/1/7 45/1/7 46/1/7
f 45/1/25 39/1/25 48/1/25
f 44/1/7 46/1/7 47/1/7
f 46/1/26 48/1/26 49/1/26
f 48/1/1 39/1/1 41/1/1
f 49/1/1 48/1/1 50/1/1
f 50/1/27 44/1/27 53/1/27
f 51/1/28 53/1/28 54/1/28
f 58/1/1 49/1/1 51/1/1
f 53/1/7 47/1/7 56/1/7
f 52/1/29 54/1/29 55/1/29
f 54/1/7 56/1/7 57/1/7
f 47/1/30 49/1/30 58/1/30
f 56/1/31 58/1/31 59/1/31
f 59/1/1 58/1/1 52/1/1
f 60/1/1 59/1/1 61/1/1
f 57/1/32 59/1/32 60/1/32
f 61/1/33 55/1/33 64/1/33
f 62/1/34 64/1/34 65/1/34
f 69/1/1 60/1/1 62/1/1
f 64/1/7 66/1/7 67/1/7
f 55/1/7 57/1/7 66/1/7
f 66/1/35 60/1/35 69/1/35
f 65/1/7 67/1/7 68/1/7
f 67/1/36 69/1/36 70/1/36
f 70/1/1 69/1/1 63/1/1
f 71/1/1 70/1/1 72/1/1
f 68/1/37 70/1/37 71/1/37
f 63/1/38 65/1/38 74/1/38
f 72/1/39 74/1/39 75/1/39
f 74/1/7 68/1/7 77/1/7
f 73/1/40 75/1/40 76/1/40
f 75/1/7 77/1/7 78/1/7
f 77/1/41 71/1/41 80/1/41
f 76/1/7 78/1/7 79/1/7
f 78/1/42 80/1/42 81/1/42
f 80/1/1 71/1/1 73/1/1
f 81/1/1 80/1/1 82/1/1
f 82/1/43 76/1/43 85/1/43
f 83/1/44 85/1/44 86/2/44
f 90/1/1 81/1/1 83/1/1
f 85/1/7 79/1/7 88/1/7
f 84/2/45 86/2/45 87/1/45
f 87/1/7 86/2/7 88/1/7
f 79/1/46 81/1/46 90/1/46
f 88/1/47 90/1/47 91/1/47
f 90/1/1 84/2/1 93/1/1
f 91/1/1 93/1/1 94/1/1
f 89/1/48 91/1/48 92/1/48
f 93/1/49 87/1/49 96/1/49
f 94/1/50 96/1/50 97/1/50
f 92/1/1 94/1/1 95/1/1
f 97/1/7 96/1/7 98/1/7
f 96/1/7 87/1/7 89/1/7
f 98/1/51 92/1/51 101/1/51
f 106/1/7 97/1/7 99/1/7
f 99/1/52 101/1/52 102/1/52
f 101/1/1 95/1/1 104/1/1
f 102/1/1 104/1/1 105/1/1
f 100/1/53 102/1/53 103/1/53
f 95/1/54 97/1/54 106/1/54
f 104/1/55 106/1/55 107/1/55
f 107/1/7 106/1/7 100/1/7
f 105/1/56 107/1/56 108/1/56
f 108/1/7 107/1/7 109/1/7
f 109/1/57 103/1/57 112/1/57
f 117/1/7 108/1/7 110/1/7
f 110/1/58 112/1/58 113/1/58
f 103/1/1 105/1/1 114/1/1
f 112/1/1 114/1/1 115/1/1
f 114/1/59 108/1/59 117/1/59
f 115/1/60 117/1/60 118/1/60
f 113/1/1 115/1/1 116/1/1
f 118/1/7 117/1/7 111/1/7
f 116/1/61 118/1/61 119/1/61
f 119/1/7 118/1/7 120/1/7
f 111/1/62 113/1/62 122/1/62
f 120/1/63 122/1/63 123/1/63
f 122/1/1 116/1/1 125/1/1
f 123/1/1 125/1/1 126/1/1
f 121/1/64 123/1/64 124/1/64
f 125/1/65 119/1/65 128/1/65
f 126/1/66 128/1/66 129/1/66
f 124/1/1 126/1/1 127/1/1
f 129/1/7 128/1/7 130/1/7
f 128/1/7 119/1/7 121/1/7
f 130/1/67 124/1/67 133/1/67
f 138/1/7 129/1/7 131/1/7
f 131/1/68 133/1/68 134/1/68
f 133/1/1 127/1/1 136/1/1
f 134/1/1 136/1/1 137/1/1
f 132/1/69 134/1/69 135/1/69
f 127/1/70 129/1/70 138/1/70
f 136/1/71 138/1/71 139/1/71
f 139/1/7 138/1/7 132/1/7
f 137/1/72 139/1/72 140/1/72
f 140/1/7 139/1/7 141/1/7
f 141/1/73 135/1/73 144/1/73
f 149/1/7 140/1/7 142/1/7
f 142/1/74 144/1/74 145/1/74
f 135/1/1 137/1/1 146/1/1
f 144/1/1 146/1/1 147/1/1
f 146/1/75 140/1/75 149/1/75
f 147/1/76 149/1/76 150/1/76
f 145/1/1 147/1/1 148/1/1
f 150/1/7 149/1/7 143/1/7
f 148/1/77 150/1/77 151/1/77
f 151/1/7 150/1/7 152/1/7
f 143/1/78 145/1/78 154/1/78
f 152/1/79 154/1/79 155/1/79
f 154/1/1 148/1/1 157/1/1
f 155/1/1 157/1/1 158/1/1
f 153/1/80 155/1/80 156/1/80
f 157/1/81 151/1/81 160/1/81
f 158/1/82 160/1/82 161/1/82
f 156/1/1 158/1/1 159/1/1
f 161/1/7 160/1/7 162/1/7
f 160/1/7 151/1/7 153/1/7
f 162/1/83 156/1/83 165/1/83
f 168/1/7 161/1/7 163/1/7
f 163/1/84 165/1/84 166/2/84
f 165/1/1 159/1/1 167/1/1
f 166/2/85 167/1/85 168/1/85
f 159/1/86 161/1/86 168/1/86
