# Blender 5.1.1
# www.blender.org
mtllib Switch.mtl
o 立方体
v 0.000000 -0.146182 0.326062
v 0.282843 0.112768 0.163830
v -0.282843 0.112768 0.163830
v 0.000000 0.480754 0.001598
v -0.000000 -0.492436 -0.001598
v 0.282843 -0.143921 -0.163830
v -0.282843 -0.143921 -0.163830
v 0.000000 0.115029 -0.326062
vn -0.0000 0.4596 0.8881
vn -0.7679 0.4645 -0.4412
vn -0.0000 -0.4711 -0.8821
vn 0.7625 -0.4761 0.4380
vn -0.7625 -0.4761 0.4380
vn 0.7679 0.4645 -0.4412
vt 0.252146 0.004293
vt 0.500000 0.004293
vt 0.500000 0.252146
vt 0.252146 0.252146
vt 0.500000 0.500000
vt 0.252146 0.500000
vt 0.500000 0.747854
vt 0.252146 0.747854
vt 0.500000 0.995707
vt 0.252146 0.995707
vt 0.004293 0.500000
vt 0.004293 0.747854
vt 0.747854 0.500000
vt 0.747854 0.747854
s 0
usemtl マテリアル
f 1/1/1 2/2/1 4/3/1 3/4/1
f 3/4/2 4/3/2 8/5/2 7/6/2
f 7/6/3 8/5/3 6/7/3 5/8/3
f 5/8/4 6/7/4 2/9/4 1/10/4
f 3/11/5 7/6/5 5/8/5 1/12/5
f 8/5/6 4/13/6 2/14/6 6/7/6
