# Blender 5.1.1
# www.blender.org
mtllib ArrowBullet.mtl
o 平面.001
v 0.115596 -0.000842 -0.007699
v -0.115596 -0.000842 -0.060000
v 0.115596 -0.000842 0.007699
v -0.115596 -0.000842 0.060000
v -0.000000 0.029158 -0.000000
v 0.600000 0.029158 -0.000000
v -0.000000 0.028582 -0.005853
v 0.600000 0.028582 -0.005853
v -0.000000 0.026874 -0.011481
v 0.600000 0.026874 -0.011481
v -0.000000 0.024102 -0.016667
v 0.600000 0.024102 -0.016667
v -0.000000 0.020371 -0.021213
v 0.600000 0.020371 -0.021213
v -0.000000 0.015825 -0.024944
v 0.600000 0.015825 -0.024944
v -0.000000 0.010639 -0.027716
v 0.600000 0.010639 -0.027716
v -0.000000 0.005011 -0.029424
v 0.600000 0.005011 -0.029424
v -0.000000 -0.000842 -0.030000
v 0.600000 -0.000842 -0.030000
v -0.000000 -0.006695 -0.029424
v 0.600000 -0.006695 -0.029424
v -0.000000 -0.012322 -0.027716
v 0.600000 -0.012322 -0.027716
v -0.000000 -0.017509 -0.024944
v 0.600000 -0.017509 -0.024944
v -0.000000 -0.022055 -0.021213
v 0.600000 -0.022055 -0.021213
v -0.000000 -0.025786 -0.016667
v 0.600000 -0.025786 -0.016667
v -0.000000 -0.028558 -0.011481
v 0.600000 -0.028558 -0.011481
v -0.000000 -0.030265 -0.005853
v 0.600000 -0.030265 -0.005853
v 0.000000 -0.030842 0.000000
v 0.600000 -0.030842 -0.000000
v 0.000000 -0.030265 0.005853
v 0.600000 -0.030265 0.005853
v 0.000000 -0.028558 0.011481
v 0.600000 -0.028558 0.011480
v 0.000000 -0.025786 0.016667
v 0.600000 -0.025786 0.016667
v 0.000000 -0.022055 0.021213
v 0.600000 -0.022055 0.021213
v 0.000000 -0.017509 0.024944
v 0.600000 -0.017509 0.024944
v 0.000000 -0.012322 0.027716
v 0.600000 -0.012322 0.027716
v 0.000000 -0.006695 0.029424
v 0.600000 -0.006695 0.029424
v 0.000000 -0.000842 0.030000
v 0.600000 -0.000842 0.030000
v 0.000000 0.005011 0.029424
v 0.600000 0.005011 0.029424
v 0.000000 0.010639 0.027716
v 0.600000 0.010639 0.027716
v 0.000000 0.015825 0.024944
v 0.600000 0.015825 0.024944
v 0.000000 0.020371 0.021213
v 0.600000 0.020371 0.021213
v 0.000000 0.024102 0.016667
v 0.600000 0.024102 0.016667
v 0.000000 0.026874 0.011481
v 0.600000 0.026874 0.011480
v 0.000000 0.028582 0.005853
v 0.600000 0.028582 0.005853
v 0.596689 0.059158 -0.000000
v 0.596689 0.058005 -0.011705
v 0.596689 0.054591 -0.022961
v 0.596689 0.049046 -0.033334
v 0.596689 0.041584 -0.042426
v 0.596689 0.032492 -0.049888
v 0.596689 0.022119 -0.055433
v 0.596689 0.010863 -0.058847
v 0.596689 -0.000842 -0.060000
v 0.596689 -0.012547 -0.058847
v 0.596689 -0.023803 -0.055433
v 0.596689 -0.034176 -0.049888
v 0.596689 -0.043268 -0.042426
v 0.596689 -0.050730 -0.033334
v 0.596689 -0.056275 -0.022961
v 0.596689 -0.059689 -0.011705
v 0.596689 -0.060842 -0.000000
v 0.596689 -0.059689 0.011705
v 0.596689 -0.056275 0.022961
v 0.596689 -0.050730 0.033334
v 0.596689 -0.043268 0.042426
v 0.596689 -0.034176 0.049888
v 0.596689 -0.023803 0.055433
v 0.596689 -0.012547 0.058847
v 0.596689 -0.000842 0.060000
v 0.596689 0.010863 0.058847
v 0.596689 0.022119 0.055433
v 0.596689 0.032492 0.049888
v 0.596689 0.041584 0.042426
v 0.596689 0.049046 0.033334
v 0.596689 0.054591 0.022961
v 0.596689 0.058005 0.011705
v 0.776689 -0.000842 -0.000000
v 0.115596 0.002365 -0.000000
v -0.115596 -0.060842 0.000000
v 0.115596 -0.004049 -0.000000
v -0.115596 0.059158 0.000000
vn -0.0000 1.0000 -0.0000
vn -0.0000 0.9952 -0.0980
vn -0.0000 0.9569 -0.2903
vn -0.0000 0.8819 -0.4714
vn -0.0000 0.7730 -0.6344
vn -0.0000 0.6344 -0.7730
vn -0.0000 0.4714 -0.8819
vn -0.0000 0.2903 -0.9569
vn -0.0000 0.0980 -0.9952
vn -0.0000 -0.0980 -0.9952
vn -0.0000 -0.2903 -0.9569
vn -0.0000 -0.4714 -0.8819
vn -0.0000 -0.6344 -0.7730
vn -0.0000 -0.7730 -0.6344
vn -0.0000 -0.8819 -0.4714
vn -0.0000 -0.9569 -0.2903
vn -0.0000 -0.9952 -0.0980
vn -0.0000 -0.9952 0.0980
vn -0.0000 -0.9569 0.2903
vn -0.0000 -0.8819 0.4714
vn -0.0000 -0.7730 0.6344
vn -0.0000 -0.6344 0.7730
vn -0.0000 -0.4714 0.8819
vn -0.0000 -0.2903 0.9569
vn -0.0000 -0.0980 0.9952
vn -0.0000 0.0980 0.9952
vn -0.0000 0.2903 0.9569
vn -0.0000 0.4714 0.8819
vn -0.0000 0.6344 0.7730
vn -0.0000 0.7730 0.6344
vn -0.0000 0.8819 0.4714
vn 1.0000 -0.0000 -0.0000
vn -0.0000 0.9569 0.2903
vn -0.0000 0.9952 0.0980
vn -1.0000 -0.0000 -0.0000
vn 0.3149 0.9446 -0.0930
vn 0.3149 0.9083 -0.2755
vn 0.3149 0.8371 -0.4474
vn 0.3149 0.7337 -0.6021
vn 0.3149 0.6021 -0.7337
vn 0.3149 0.4474 -0.8371
vn 0.3149 0.2755 -0.9083
vn 0.3149 0.0930 -0.9446
vn 0.3149 -0.0930 -0.9446
vn 0.3149 -0.2755 -0.9083
vn 0.3149 -0.4474 -0.8371
vn 0.3149 -0.6021 -0.7337
vn 0.3149 -0.7337 -0.6021
vn 0.3149 -0.8371 -0.4474
vn 0.3149 -0.9083 -0.2755
vn 0.3149 -0.9446 -0.0930
vn 0.3149 -0.9446 0.0930
vn 0.3149 -0.9083 0.2755
vn 0.3149 -0.8371 0.4474
vn 0.3149 -0.7337 0.6021
vn 0.3149 -0.6021 0.7337
vn 0.3149 -0.4474 0.8371
vn 0.3149 -0.2755 0.9083
vn 0.3149 -0.0930 0.9446
vn 0.3149 0.0930 0.9446
vn 0.3149 0.2755 0.9083
vn 0.3149 0.4474 0.8371
vn 0.3149 0.6021 0.7337
vn 0.3149 0.7337 0.6021
vn 0.3149 0.8371 0.4474
vn 0.3149 0.9083 0.2755
vn 0.3149 0.9446 0.0930
vn -0.0000 -0.0000 1.0000
vn 1.0000 -0.0000 0.0001
vn 1.0000 -0.0000 -0.0001
vn -0.0000 -0.0000 -1.0000
vt 0.874720 0.417920
vt 0.615954 0.563905
vt 0.615954 0.530701
vt 0.334753 0.010697
vt 0.010697 0.030951
vt 0.010697 0.010697
vt 0.334753 0.030951
vt 0.010697 0.051204
vt 0.334753 0.051204
vt 0.010697 0.071458
vt 0.334753 0.071458
vt 0.010697 0.091711
vt 0.334753 0.091711
vt 0.010697 0.111965
vt 0.334753 0.111965
vt 0.010697 0.132218
vt 0.334753 0.132218
vt 0.010697 0.152472
vt 0.334753 0.152472
vt 0.010697 0.172725
vt 0.334753 0.172725
vt 0.010697 0.192978
vt 0.334753 0.192978
vt 0.010697 0.213232
vt 0.334753 0.213232
vt 0.010697 0.233485
vt 0.334753 0.233485
vt 0.010697 0.253739
vt 0.334753 0.253739
vt 0.010697 0.273992
vt 0.334753 0.273992
vt 0.010697 0.294246
vt 0.334753 0.294246
vt 0.010697 0.314499
vt 0.334753 0.314499
vt 0.010697 0.334753
vt 0.334753 0.334753
vt 0.010697 0.355006
vt 0.334753 0.355006
vt 0.010697 0.375259
vt 0.334753 0.375259
vt 0.010697 0.395513
vt 0.334753 0.395513
vt 0.010697 0.415766
vt 0.334753 0.415766
vt 0.010697 0.436020
vt 0.334753 0.436020
vt 0.010697 0.456273
vt 0.334753 0.456273
vt 0.010697 0.476527
vt 0.334753 0.476527
vt 0.010698 0.496780
vt 0.334753 0.496780
vt 0.010698 0.517034
vt 0.334753 0.517034
vt 0.010698 0.537287
vt 0.334753 0.537287
vt 0.010698 0.557540
vt 0.334753 0.557540
vt 0.010698 0.577794
vt 0.334753 0.577794
vt 0.010698 0.598047
vt 0.334753 0.598047
vt 0.010698 0.618301
vt 0.826794 0.926856
vt 0.805705 0.940947
vt 0.844729 0.744762
vt 0.334753 0.618301
vt 0.010698 0.638554
vt 0.334753 0.638554
vt 0.010698 0.658808
vt 0.341987 0.822984
vt 0.337039 0.847861
vt 0.547879 0.760528
vt 0.530061 0.396525
vt 0.549060 0.203612
vt 0.568061 0.396525
vt 0.605332 0.389111
vt 0.640440 0.374569
vt 0.672036 0.353457
vt 0.698907 0.326587
vt 0.720019 0.294990
vt 0.734561 0.259882
vt 0.741975 0.222612
vt 0.741975 0.184611
vt 0.734561 0.147341
vt 0.720019 0.112232
vt 0.698907 0.080636
vt 0.672037 0.053765
vt 0.640440 0.032653
vt 0.605332 0.018111
vt 0.568062 0.010697
vt 0.530061 0.010697
vt 0.492790 0.018111
vt 0.457682 0.032653
vt 0.426086 0.053765
vt 0.399215 0.080636
vt 0.378103 0.112232
vt 0.363561 0.147340
vt 0.356148 0.184611
vt 0.356148 0.222611
vt 0.363561 0.259882
vt 0.378103 0.294990
vt 0.399215 0.326586
vt 0.426086 0.353457
vt 0.457682 0.374569
vt 0.015646 0.771405
vt 0.010697 0.796281
vt 0.221537 0.708948
vt 0.492790 0.389111
vt 0.594559 0.609790
vt 0.356148 0.417920
vt 0.368384 0.424365
vt 0.874720 0.676686
vt 0.782272 0.950653
vt 0.757396 0.955601
vt 0.782272 0.703029
vt 0.732032 0.955601
vt 0.757396 0.698081
vt 0.707156 0.950653
vt 0.732033 0.698081
vt 0.683723 0.940947
vt 0.707156 0.703029
vt 0.662634 0.926856
vt 0.644700 0.908921
vt 0.683724 0.712736
vt 0.630608 0.887832
vt 0.662634 0.726827
vt 0.620902 0.864399
vt 0.644700 0.744762
vt 0.615954 0.839523
vt 0.630608 0.765850
vt 0.615954 0.814159
vt 0.620902 0.789283
vt 0.805705 0.712736
vt 0.826794 0.726827
vt 0.858820 0.765851
vt 0.868526 0.789283
vt 0.844729 0.908921
vt 0.873474 0.814160
vt 0.858820 0.887832
vt 0.873474 0.839523
vt 0.868526 0.864399
vt 0.334753 0.658808
vt 0.337039 0.873224
vt 0.341987 0.898100
vt 0.589611 0.822984
vt 0.351693 0.921533
vt 0.594559 0.847861
vt 0.365785 0.942622
vt 0.383719 0.960557
vt 0.594559 0.873224
vt 0.404808 0.974648
vt 0.579905 0.921533
vt 0.428241 0.984354
vt 0.565814 0.942622
vt 0.453117 0.989302
vt 0.478481 0.989303
vt 0.547879 0.960557
vt 0.503357 0.984354
vt 0.526790 0.974648
vt 0.589611 0.898100
vt 0.579905 0.799552
vt 0.565814 0.778463
vt 0.526790 0.746437
vt 0.351693 0.799552
vt 0.503357 0.736730
vt 0.365785 0.778463
vt 0.478481 0.731782
vt 0.453117 0.731782
vt 0.383719 0.760528
vt 0.428241 0.736730
vt 0.404808 0.746437
vt 0.010697 0.821645
vt 0.015646 0.846521
vt 0.263269 0.771405
vt 0.025352 0.869954
vt 0.268218 0.796281
vt 0.039443 0.891043
vt 0.057378 0.908977
vt 0.268218 0.821644
vt 0.078467 0.923068
vt 0.253563 0.869954
vt 0.101900 0.932775
vt 0.239472 0.891043
vt 0.126776 0.937723
vt 0.152139 0.937723
vt 0.221537 0.908977
vt 0.177016 0.932775
vt 0.200448 0.923068
vt 0.263270 0.846521
vt 0.253563 0.747972
vt 0.239472 0.726883
vt 0.200448 0.694857
vt 0.025352 0.747972
vt 0.177016 0.685151
vt 0.039443 0.726883
vt 0.152139 0.680203
vt 0.126776 0.680203
vt 0.057378 0.708948
vt 0.101900 0.685151
vt 0.078467 0.694857
vt 0.356148 0.710387
s 0
usemtl マテリアル
f 2/1/1 3/2/1 1/3/1
f 6/4/2 7/5/2 5/6/2
f 8/7/3 9/8/3 7/5/3
f 10/9/4 11/10/4 9/8/4
f 12/11/5 13/12/5 11/10/5
f 14/13/6 15/14/6 13/12/6
f 16/15/7 17/16/7 15/14/7
f 18/17/8 19/18/8 17/16/8
f 20/19/9 21/20/9 19/18/9
f 22/21/10 23/22/10 21/20/10
f 24/23/11 25/24/11 23/22/11
f 26/25/12 27/26/12 25/24/12
f 28/27/13 29/28/13 27/26/13
f 30/29/14 31/30/14 29/28/14
f 32/31/15 33/32/15 31/30/15
f 34/33/16 35/34/16 33/32/16
f 36/35/17 37/36/17 35/34/17
f 38/37/18 39/38/18 37/36/18
f 40/39/19 41/40/19 39/38/19
f 42/41/20 43/42/20 41/40/20
f 44/43/21 45/44/21 43/42/21
f 46/45/22 47/46/22 45/44/22
f 48/47/23 49/48/23 47/46/23
f 50/49/24 51/50/24 49/48/24
f 52/51/25 53/52/25 51/50/25
f 54/53/26 55/54/26 53/52/26
f 56/55/27 57/56/27 55/54/27
f 58/57/28 59/58/28 57/56/28
f 60/59/29 61/60/29 59/58/29
f 62/61/30 63/62/30 61/60/30
f 64/63/31 65/64/31 63/62/31
f 14/65/32 12/66/32 30/67/32
f 66/68/33 67/69/33 65/64/33
f 68/70/34 5/71/34 67/69/34
f 63/72/35 65/73/35 43/74/35
f 69/75/36 101/76/36 70/77/36
f 70/77/37 101/76/37 71/78/37
f 71/78/38 101/76/38 72/79/38
f 72/79/39 101/76/39 73/80/39
f 73/80/40 101/76/40 74/81/40
f 74/81/41 101/76/41 75/82/41
f 75/82/42 101/76/42 76/83/42
f 76/83/43 101/76/43 77/84/43
f 77/84/44 101/76/44 78/85/44
f 78/85/45 101/76/45 79/86/45
f 79/86/46 101/76/46 80/87/46
f 80/87/47 101/76/47 81/88/47
f 81/88/48 101/76/48 82/89/48
f 82/89/49 101/76/49 83/90/49
f 83/90/50 101/76/50 84/91/50
f 84/91/51 101/76/51 85/92/51
f 85/92/52 101/76/52 86/93/52
f 86/93/53 101/76/53 87/94/53
f 87/94/54 101/76/54 88/95/54
f 88/95/55 101/76/55 89/96/55
f 89/96/56 101/76/56 90/97/56
f 90/97/57 101/76/57 91/98/57
f 91/98/58 101/76/58 92/99/58
f 92/99/59 101/76/59 93/100/59
f 93/100/60 101/76/60 94/101/60
f 94/101/61 101/76/61 95/102/61
f 95/102/62 101/76/62 96/103/62
f 96/103/63 101/76/63 97/104/63
f 97/104/64 101/76/64 98/105/64
f 98/105/65 101/76/65 99/106/65
f 98/107/35 99/108/35 88/109/35
f 99/106/66 101/76/66 100/110/66
f 100/110/67 101/76/67 69/75/67
f 103/111/68 104/112/68 102/113/68
f 2/1/1 4/114/1 3/2/1
f 6/4/2 8/7/2 7/5/2
f 8/7/3 10/9/3 9/8/3
f 10/9/4 12/11/4 11/10/4
f 12/11/5 14/13/5 13/12/5
f 14/13/6 16/15/6 15/14/6
f 16/15/7 18/17/7 17/16/7
f 18/17/8 20/19/8 19/18/8
f 20/19/9 22/21/9 21/20/9
f 22/21/10 24/23/10 23/22/10
f 24/23/11 26/25/11 25/24/11
f 26/25/12 28/27/12 27/26/12
f 28/27/13 30/29/13 29/28/13
f 30/29/14 32/31/14 31/30/14
f 32/31/15 34/33/15 33/32/15
f 34/33/16 36/35/16 35/34/16
f 36/35/17 38/37/17 37/36/17
f 38/37/18 40/39/18 39/38/18
f 40/39/19 42/41/19 41/40/19
f 42/41/20 44/43/20 43/42/20
f 44/43/21 46/45/21 45/44/21
f 46/45/22 48/47/22 47/46/22
f 48/47/23 50/49/23 49/48/23
f 50/49/24 52/51/24 51/50/24
f 52/51/25 54/53/25 53/52/25
f 54/53/26 56/55/26 55/54/26
f 56/55/27 58/57/27 57/56/27
f 58/57/28 60/59/28 59/58/28
f 60/59/29 62/61/29 61/60/29
f 62/61/30 64/63/30 63/62/30
f 64/63/31 66/68/31 65/64/31
f 10/115/32 8/116/32 36/117/32
f 8/116/32 6/118/32 38/119/32
f 6/118/32 68/120/32 40/121/32
f 68/120/32 66/122/32 42/123/32
f 66/122/32 64/124/32 42/123/32
f 64/124/32 62/125/32 44/126/32
f 42/123/32 64/124/32 44/126/32
f 62/125/32 60/127/32 46/128/32
f 60/127/32 58/129/32 48/130/32
f 46/128/32 60/127/32 48/130/32
f 58/129/32 56/131/32 50/132/32
f 56/131/32 54/133/32 52/134/32
f 50/132/32 56/131/32 52/134/32
f 50/132/69 48/130/69 58/129/69
f 46/128/32 44/126/32 62/125/32
f 42/123/32 40/121/32 68/120/32
f 40/121/32 38/119/32 6/118/32
f 38/119/32 36/117/32 8/116/32
f 36/117/32 34/135/32 10/115/32
f 34/135/32 32/136/32 10/115/32
f 32/136/32 30/67/32 12/66/32
f 10/115/32 32/136/32 12/66/32
f 30/67/32 28/137/32 14/65/32
f 28/137/32 26/138/32 16/139/32
f 14/65/32 28/137/32 16/139/32
f 26/138/32 24/140/32 18/141/32
f 24/140/70 22/142/70 20/143/70
f 18/141/32 24/140/32 20/143/32
f 18/141/32 16/139/32 26/138/32
f 66/68/33 68/70/33 67/69/33
f 68/70/34 6/144/34 5/71/34
f 67/145/35 5/146/35 37/147/35
f 5/146/35 7/148/35 35/149/35
f 7/148/35 9/150/35 35/149/35
f 9/150/35 11/151/35 33/152/35
f 35/149/35 9/150/35 33/152/35
f 11/151/35 13/153/35 29/154/35
f 13/153/35 15/155/35 27/156/35
f 15/155/35 17/157/35 27/156/35
f 17/157/35 19/158/35 25/159/35
f 27/156/35 17/157/35 25/159/35
f 19/158/35 21/160/35 23/161/35
f 23/161/35 25/159/35 19/158/35
f 27/156/35 29/154/35 13/153/35
f 29/154/35 31/162/35 11/151/35
f 31/162/35 33/152/35 11/151/35
f 35/149/35 37/147/35 5/146/35
f 37/147/35 39/163/35 67/145/35
f 39/163/35 41/164/35 67/145/35
f 41/164/35 43/74/35 65/73/35
f 67/145/35 41/164/35 65/73/35
f 43/74/35 45/165/35 61/166/35
f 45/165/35 47/167/35 59/168/35
f 47/167/35 49/169/35 59/168/35
f 49/169/35 51/170/35 57/171/35
f 59/168/35 49/169/35 57/171/35
f 51/170/35 53/172/35 55/173/35
f 55/173/35 57/171/35 51/170/35
f 59/168/35 61/166/35 45/165/35
f 61/166/35 63/72/35 43/74/35
f 100/174/35 69/175/35 85/176/35
f 69/175/35 70/177/35 84/178/35
f 70/177/35 71/179/35 84/178/35
f 71/179/35 72/180/35 83/181/35
f 84/178/35 71/179/35 83/181/35
f 72/180/35 73/182/35 81/183/35
f 73/182/35 74/184/35 80/185/35
f 74/184/35 75/186/35 80/185/35
f 75/186/35 76/187/35 79/188/35
f 80/185/35 75/186/35 79/188/35
f 76/187/35 77/189/35 78/190/35
f 78/190/35 79/188/35 76/187/35
f 80/185/35 81/183/35 73/182/35
f 81/183/35 82/191/35 72/180/35
f 82/191/35 83/181/35 72/180/35
f 84/178/35 85/176/35 69/175/35
f 85/176/35 86/192/35 100/174/35
f 86/192/35 87/193/35 100/174/35
f 87/193/35 88/109/35 99/108/35
f 100/174/35 87/193/35 99/108/35
f 88/109/35 89/194/35 97/195/35
f 89/194/35 90/196/35 96/197/35
f 90/196/35 91/198/35 96/197/35
f 91/198/35 92/199/35 95/200/35
f 96/197/35 91/198/35 95/200/35
f 92/199/35 93/201/35 94/202/35
f 94/202/35 95/200/35 92/199/35
f 96/197/35 97/195/35 89/194/35
f 97/195/35 98/107/35 88/109/35
f 103/111/71 105/203/71 104/112/71
